<?xml version="1.0" encoding="UTF-8"?><svg id="Laag_1" xmlns="http://www.w3.org/2000/svg" xmlns:xlink="http://www.w3.org/1999/xlink" viewBox="0 0 563.73 916.22"><defs><style>.cls-1{fill:#a29265;}.cls-2{fill:#fff;}.cls-3{fill:none;}.cls-4{fill:#96d9ed;}.cls-5{filter:url(#drop-shadow-1);}.cls-6{fill:#da2128;}</style><filter id="drop-shadow-1" x="-9.01" y="-4.28" width="582.24" height="371.76" filterUnits="userSpaceOnUse"><feOffset dx="0" dy="4"/><feGaussianBlur result="blur" stdDeviation="3"/><feFlood flood-color="#231f20" flood-opacity=".3"/><feComposite in2="blur" operator="in"/><feComposite in="SourceGraphic"/></filter></defs><g id="v_blauw_2"><polygon id="bg" class="cls-4" points=".67 276.67 563.67 276.67 563.73 916.12 .28 916.12 .67 276.67"/><rect class="cls-3" x="29.12" y="661.3" width="504.95" height="48.07"/><path class="cls-1" d="M59.12,665.63c2.18.85,4.25,2.11,6.21,3.78l-4.43,4.62c-1.54-1.21-2.99-2.08-4.34-2.62-1.35-.54-2.92-.81-4.71-.81-3.33,0-6.05,1.33-8.18,4-2.12,2.66-3.18,6.74-3.18,12.24s.84,9.88,2.53,12.42c1.69,2.54,4.25,3.81,7.71,3.81,2.62,0,4.91-.56,6.87-1.69v-11.24h-6.49l-.87-6.12h15.48v21.1c-4.66,2.83-9.61,4.25-14.86,4.25-6.16,0-10.87-1.91-14.14-5.74-3.27-3.83-4.9-9.43-4.9-16.79,0-4.7.88-8.75,2.65-12.14,1.77-3.39,4.15-5.96,7.15-7.71,3-1.75,6.33-2.62,9.99-2.62,2.83,0,5.34.43,7.52,1.28Z"/><path class="cls-1" d="M100.6,666.98c2.83,1.75,5,4.31,6.52,7.68,1.52,3.37,2.28,7.43,2.28,12.17s-.77,8.74-2.31,12.11c-1.54,3.37-3.73,5.95-6.55,7.74-2.83,1.79-6.16,2.68-9.99,2.68s-7.22-.87-10.05-2.62c-2.83-1.75-5.02-4.31-6.55-7.68-1.54-3.37-2.31-7.43-2.31-12.17s.77-8.69,2.31-12.08c1.54-3.39,3.73-5.98,6.59-7.77,2.85-1.79,6.19-2.68,10.02-2.68s7.22.87,10.05,2.62ZM82.93,674.56c-1.75,2.6-2.62,6.71-2.62,12.33,0,10.78,3.41,16.17,10.24,16.17,3.33,0,5.86-1.29,7.58-3.87,1.73-2.58,2.59-6.7,2.59-12.36s-.86-9.72-2.59-12.3c-1.73-2.58-4.26-3.87-7.58-3.87s-5.87,1.3-7.62,3.9Z"/><path class="cls-1" d="M148.6,694.32c0,2.91-.61,5.5-1.84,7.77s-3.06,4.05-5.49,5.34c-2.43,1.29-5.36,1.94-8.77,1.94-5.16,0-9.11-1.36-11.86-4.09-2.75-2.73-4.12-6.38-4.12-10.96v-29.03h8.24v28.59c0,3.04.63,5.31,1.9,6.8s3.21,2.25,5.84,2.25,4.63-.75,5.9-2.25,1.9-3.77,1.9-6.8v-28.59h8.3v29.03Z"/><path class="cls-1" d="M184.78,669.85c4.02,3.04,6.02,8.64,6.02,16.79s-1.98,13.62-5.93,16.89c-3.96,3.27-8.97,4.9-15.04,4.9h-11.74v-43.14h10.61c6.7,0,12.06,1.52,16.08,4.56ZM166.33,671.47v30.78h4.06c3.66,0,6.53-1.13,8.62-3.4,2.08-2.27,3.12-6.34,3.12-12.2,0-4.08-.53-7.23-1.59-9.46-1.06-2.23-2.46-3.73-4.18-4.53-1.73-.79-3.8-1.19-6.21-1.19h-3.81Z"/><path class="cls-1" d="M223.58,665.29l-.87,6.12h-15.92v12.05h13.86v6.12h-13.86v12.67h17.04v6.18h-25.28v-43.14h25.03Z"/><path class="cls-1" d="M263.47,708.43h-10.67l-14.79-34.9c.38,3.08.66,5.87.84,8.37s.28,5.47.28,8.93v17.6h-7.49v-43.14h10.42l15.04,34.96c-.25-1.66-.5-3.86-.75-6.59s-.38-5.44-.38-8.15v-20.23h7.49v43.14Z"/><path class="cls-1" d="M297.43,665.29v36.4h17.29l-.94,6.74h-24.6v-43.14h8.24Z"/><path class="cls-1" d="M344.68,666.98c2.83,1.75,5,4.31,6.52,7.68,1.52,3.37,2.28,7.43,2.28,12.17s-.77,8.74-2.31,12.11c-1.54,3.37-3.72,5.95-6.55,7.74-2.83,1.79-6.16,2.68-9.99,2.68s-7.22-.87-10.05-2.62-5.02-4.31-6.55-7.68c-1.54-3.37-2.31-7.43-2.31-12.17s.77-8.69,2.31-12.08c1.54-3.39,3.74-5.98,6.59-7.77,2.85-1.79,6.19-2.68,10.02-2.68s7.22.87,10.05,2.62ZM327.02,674.56c-1.75,2.6-2.62,6.71-2.62,12.33,0,10.78,3.41,16.17,10.24,16.17,3.33,0,5.86-1.29,7.58-3.87,1.73-2.58,2.59-6.7,2.59-12.36s-.86-9.72-2.59-12.3c-1.73-2.58-4.26-3.87-7.58-3.87s-5.87,1.3-7.62,3.9Z"/><path class="cls-1" d="M386.76,665.29l-.87,6.56h-11.24v36.58h-8.3v-36.58h-11.61v-6.56h32.03Z"/><path class="cls-1" d="M423.59,694.32c0,2.91-.61,5.5-1.84,7.77s-3.06,4.05-5.49,5.34c-2.43,1.29-5.36,1.94-8.77,1.94-5.16,0-9.12-1.36-11.86-4.09-2.75-2.73-4.12-6.38-4.12-10.96v-29.03h8.24v28.59c0,3.04.63,5.31,1.9,6.8,1.27,1.5,3.21,2.25,5.84,2.25s4.63-.75,5.9-2.25,1.9-3.77,1.9-6.8v-28.59h8.3v29.03Z"/><path class="cls-1" d="M453.06,665.66c2.25.87,4.35,2.21,6.3,4l-4.06,4.68c-1.54-1.29-3.09-2.23-4.65-2.81-1.56-.58-3.24-.87-5.03-.87-2,0-3.61.45-4.84,1.34-1.23.9-1.84,2.15-1.84,3.78,0,1.08.24,1.98.72,2.68.48.71,1.34,1.37,2.59,2,1.25.62,3.1,1.31,5.56,2.06,4.25,1.33,7.44,2.99,9.58,4.96,2.14,1.98,3.21,4.86,3.21,8.65,0,2.58-.66,4.87-1.97,6.87-1.31,2-3.19,3.56-5.65,4.68-2.46,1.12-5.37,1.69-8.74,1.69s-6.23-.53-8.83-1.59c-2.6-1.06-4.84-2.51-6.71-4.34l4.25-4.74c1.66,1.42,3.39,2.49,5.18,3.21,1.79.73,3.77,1.09,5.93,1.09,2.37,0,4.29-.56,5.74-1.69,1.46-1.12,2.19-2.7,2.19-4.74,0-1.25-.25-2.28-.75-3.09-.5-.81-1.35-1.54-2.56-2.19-1.21-.64-2.96-1.32-5.24-2.03-4.58-1.42-7.89-3.12-9.93-5.12-2.04-2-3.06-4.62-3.06-7.87,0-2.37.62-4.45,1.87-6.24,1.25-1.79,2.99-3.18,5.21-4.18,2.23-1,4.75-1.5,7.58-1.5,3.04,0,5.68.44,7.93,1.31Z"/><rect class="cls-3" x="448.61" y="664.36" width="91.5" height="151.4"/><path class="cls-1" d="M532.2,688.9c-1.37,2.44-3.23,4.29-5.59,5.54-2.36,1.25-5.02,1.88-7.98,1.88-3.3,0-6.43-.57-9.38-1.71-2.96-1.14-6.33-3.04-10.11-5.71-3.78-2.67-8.77-6.62-14.97-11.86v20.3l-8.36-1.11v-30.37h7.76c7.05,5.63,12.5,9.79,16.33,12.5,3.84,2.7,7.09,4.58,9.77,5.63,2.67,1.05,5.46,1.58,8.36,1.58,2.61,0,4.59-.57,5.93-1.71,1.34-1.14,2-2.7,2-4.69,0-1.65-.44-3.11-1.32-4.39-.88-1.28-2.35-2.69-4.39-4.22l4.69-6.23c6.2,4.04,9.3,9.33,9.3,15.87,0,3.35-.68,6.25-2.05,8.7Z"/><path class="cls-1" d="M526.83,734.11c-4.95,2.96-12.4,4.43-22.35,4.43-19.96,0-29.94-5.83-29.94-17.49s9.98-17.66,29.94-17.66,29.77,5.89,29.77,17.66c0,5.74-2.47,10.09-7.42,13.05ZM524.4,717.09c-1.28-1-3.5-1.74-6.65-2.22-3.16-.48-7.58-.72-13.26-.72s-10.19.24-13.35.72c-3.16.48-5.37,1.22-6.65,2.22-1.28.99-1.92,2.32-1.92,3.97s.64,2.96,1.92,3.92c1.28.97,3.5,1.68,6.65,2.13,3.16.45,7.6.68,13.35.68s10.18-.23,13.31-.68c3.13-.46,5.33-1.17,6.61-2.13,1.28-.97,1.92-2.28,1.92-3.92s-.64-2.97-1.92-3.97Z"/><path class="cls-1" d="M532.2,766.27c-1.37,2.44-3.23,4.29-5.59,5.54-2.36,1.25-5.02,1.88-7.98,1.88-3.3,0-6.43-.57-9.38-1.71-2.96-1.14-6.33-3.04-10.11-5.71-3.78-2.67-8.77-6.62-14.97-11.86v20.3l-8.36-1.11v-30.37h7.76c7.05,5.63,12.5,9.79,16.33,12.5,3.84,2.7,7.09,4.58,9.77,5.63,2.67,1.05,5.46,1.58,8.36,1.58,2.61,0,4.59-.57,5.93-1.71,1.34-1.14,2-2.7,2-4.69,0-1.65-.44-3.11-1.32-4.39-.88-1.28-2.35-2.69-4.39-4.22l4.69-6.23c6.2,4.04,9.3,9.33,9.3,15.87,0,3.35-.68,6.25-2.05,8.7Z"/><path class="cls-1" d="M525.38,808.57v-17.4h-14.67c.74,1.25,1.28,2.44,1.62,3.58.34,1.14.51,2.36.51,3.67,0,3.98-1.61,7.22-4.82,9.72-3.21,2.5-7.72,3.75-13.52,3.75-3.92,0-7.39-.75-10.41-2.26-3.01-1.51-5.36-3.64-7.04-6.4-1.68-2.76-2.52-5.96-2.52-9.6,0-3.36.68-6.27,2.05-8.74,1.37-2.47,3.35-4.73,5.97-6.78l5.29,5.88c-1.76,1.48-3.06,2.91-3.88,4.31-.83,1.39-1.24,3.03-1.24,4.9,0,2.56.98,4.53,2.94,5.93,1.96,1.39,4.9,2.09,8.83,2.09s6.87-.6,8.49-1.79c1.62-1.19,2.43-2.87,2.43-5.03,0-1.02-.17-1.99-.51-2.9-.34-.91-.85-1.93-1.54-3.07v-7.17h29.85v28.57l-7.85-1.28Z"/><rect class="cls-3" x="29.12" y="710.54" width="438.05" height="101.38"/><path class="cls-1" d="M89.12,811.87l-5.77-21.47h-30.74l-5.77,21.47h-18.39l28.86-92.75h21.88l28.72,92.75h-18.79ZM56.1,776.97h23.62l-11.81-44.29-11.81,44.29Z"/><path class="cls-1" d="M217.56,719.12l-17.05,92.75h-23.08l-14.09-73.96-14.5,73.96h-22.41l-16.78-92.75h17.58l11.81,78.65,15.17-78.65h18.79l14.9,78.65,12.88-78.65h16.78Z"/><path class="cls-1" d="M279.7,811.87l-5.77-21.47h-30.74l-5.77,21.47h-18.39l28.86-92.75h21.88l28.72,92.75h-18.79ZM246.68,776.97h23.62l-11.81-44.29-11.81,44.29Z"/><path class="cls-1" d="M337.82,774.69h-11.27v37.18h-17.72v-92.75h27.65c24.52,0,36.78,9.08,36.78,27.25,0,6.17-1.52,11.27-4.56,15.3-3.04,4.03-7.78,7.29-14.23,9.8l24.29,40.4h-20.4l-20.54-37.18ZM326.54,761.94h11.01c5.64,0,9.91-1.23,12.82-3.69,2.91-2.46,4.36-6.42,4.36-11.88,0-5.01-1.5-8.66-4.5-10.94-3-2.28-7.72-3.42-14.16-3.42h-9.53v29.93Z"/><path class="cls-1" d="M448.21,728.92c8.63,6.53,12.95,18.57,12.95,36.1s-4.25,29.28-12.75,36.31c-8.5,7.03-19.28,10.54-32.35,10.54h-25.23v-92.75h22.82c14.41,0,25.92,3.27,34.56,9.8ZM408.55,732.41v66.17h8.72c7.87,0,14.05-2.44,18.52-7.31,4.47-4.88,6.71-13.62,6.71-26.24,0-8.77-1.14-15.55-3.42-20.33-2.28-4.79-5.28-8.03-8.99-9.73-3.71-1.7-8.17-2.55-13.35-2.55h-8.19Z"/><rect class="cls-3" x="31.84" y="375.8" width="500.34" height="131.02"/><path class="cls-2" d="M61.24,385.01l-1.02,7.02h-14.64v9.96h12.78v6.9h-12.78v10.62h15.66v7.08h-25.5v-41.58h25.5Z"/><path class="cls-2" d="M89.74,385.01l-1.02,7.02h-14.64v9.96h12.78v6.9h-12.78v10.62h15.66v7.08h-25.5v-41.58h25.5Z"/><path class="cls-2" d="M124.78,426.59h-12.54l-12-32.22c.4,3.16.71,5.95.93,8.37.22,2.42.33,5.29.33,8.61v15.24h-8.76v-41.58h12.24l12.3,32.28c-.88-5.48-1.32-10.64-1.32-15.48v-16.8h8.82v41.58Z"/><path class="cls-2" d="M150.46,385.01v33.78h16.2l-1.02,7.8h-25.02v-41.58h9.84Z"/><path class="cls-2" d="M190.24,426.59l-2.16-8.94h-12.12l-2.1,8.94h-10.2l12.54-41.58h11.94l12.54,41.58h-10.44ZM177.64,410.51h8.76l-4.38-18.36-4.38,18.36Z"/><path class="cls-2" d="M232.72,426.59h-12.54l-12-32.22c.4,3.16.71,5.95.93,8.37.22,2.42.33,5.29.33,8.61v15.24h-8.76v-41.58h12.24l12.3,32.28c-.88-5.48-1.32-10.64-1.32-15.48v-16.8h8.82v41.58Z"/><path class="cls-2" d="M269.26,389.09l-4.98,5.22c-1.48-1.12-2.85-1.93-4.11-2.43-1.26-.5-2.71-.75-4.35-.75-3.08,0-5.54,1.21-7.38,3.63-1.84,2.42-2.76,6.09-2.76,11.01,0,5.32.7,9.09,2.1,11.31,1.4,2.22,3.58,3.33,6.54,3.33,2.08,0,3.96-.46,5.64-1.38v-9.42h-5.4l-.96-6.96h15.9v20.58c-2.16,1.4-4.54,2.48-7.14,3.24-2.6.76-5.2,1.14-7.8,1.14-6.32,0-11.08-1.85-14.28-5.55-3.2-3.7-4.8-9.13-4.8-16.29,0-4.56.87-8.48,2.61-11.76,1.74-3.28,4.12-5.77,7.14-7.47,3.02-1.7,6.41-2.55,10.17-2.55,5.36,0,9.98,1.7,13.86,5.1Z"/><path class="cls-2" d="M298.54,385.01l-1.02,7.02h-14.64v9.96h12.78v6.9h-12.78v10.62h15.66v7.08h-25.5v-41.58h25.5Z"/><path class="cls-2" d="M341.59,407.63c1.74,1.52,2.61,3.8,2.61,6.84,0,4.44-1.59,7.57-4.77,9.39-3.18,1.82-7.63,2.73-13.35,2.73h-13.38v-41.58h11.76c5.84,0,10.3.83,13.38,2.49,3.08,1.66,4.62,4.37,4.62,8.13,0,2.44-.73,4.41-2.19,5.91s-3.27,2.51-5.43,3.03c2.76.52,5.01,1.54,6.75,3.06ZM322.54,391.97v9.66h3.66c4.16,0,6.24-1.68,6.24-5.04,0-1.68-.56-2.87-1.68-3.57-1.12-.7-2.9-1.05-5.34-1.05h-2.88ZM332.05,418.28c1.34-.78,2.01-2.23,2.01-4.35,0-3.84-2.4-5.76-7.2-5.76h-4.32v11.28h3.6c2.6,0,4.57-.39,5.91-1.17Z"/><path class="cls-2" d="M372.15,385.01l-1.02,7.02h-14.64v9.96h12.78v6.9h-12.78v10.62h15.66v7.08h-25.5v-41.58h25.5Z"/><path class="cls-2" d="M402.42,389.42c3.94,2.94,5.91,8.33,5.91,16.17s-1.92,13.15-5.76,16.29c-3.84,3.14-8.82,4.71-14.94,4.71h-12.48v-41.58h11.58c6.52,0,11.75,1.47,15.69,4.41ZM384.99,392.15v27.3h3.24c3.24,0,5.7-1.01,7.38-3.03,1.68-2.02,2.52-5.63,2.52-10.83,0-3.56-.42-6.32-1.26-8.28-.84-1.96-1.98-3.31-3.42-4.05-1.44-.74-3.22-1.11-5.34-1.11h-3.12Z"/><path class="cls-2" d="M424.83,410.69h-3.84v15.9h-9.84v-41.58h13.62c5.68,0,9.95,1.04,12.81,3.12,2.86,2.08,4.29,5.26,4.29,9.54,0,2.68-.64,4.91-1.92,6.69-1.28,1.78-3.3,3.29-6.06,4.53l10.56,17.7h-11.1l-8.52-15.9ZM420.99,403.91h4.14c2.2,0,3.85-.5,4.95-1.5,1.1-1,1.65-2.58,1.65-4.74,0-2-.59-3.46-1.77-4.38-1.18-.92-2.99-1.38-5.43-1.38h-3.54v12Z"/><path class="cls-2" d="M454.95,385.01v41.58h-9.84v-41.58h9.84Z"/><path class="cls-2" d="M471.09,420.29c0,3.32-.59,6.06-1.77,8.22s-2.74,3.85-4.68,5.07c-1.94,1.22-4.25,2.27-6.93,3.15l-2.64-6.96c1.76-.68,3.08-1.46,3.96-2.34s1.47-1.9,1.77-3.06c.3-1.16.45-2.64.45-4.44v-34.92h9.84v35.28Z"/><path class="cls-2" d="M475.59,426.59v-41.58h24.78l-1.02,7.02h-13.92v11.04h12.12v7.02h-12.12v16.5h-9.84Z"/><path class="cls-2" d="M523.26,385.31c2.3.88,4.39,2.22,6.27,4.02l-4.56,5.34c-2.84-2.32-5.88-3.48-9.12-3.48-1.72,0-3.08.35-4.08,1.05-1,.7-1.5,1.71-1.5,3.03,0,.92.22,1.67.66,2.25.44.58,1.22,1.13,2.34,1.65,1.12.52,2.8,1.14,5.04,1.86,4.24,1.36,7.36,3.03,9.36,5.01,2,1.98,3,4.79,3,8.43,0,2.6-.66,4.89-1.98,6.87s-3.22,3.52-5.7,4.62-5.42,1.65-8.82,1.65-6.41-.54-9.03-1.62c-2.62-1.08-4.87-2.52-6.75-4.32l4.98-5.46c1.6,1.36,3.25,2.38,4.95,3.06,1.7.68,3.55,1.02,5.55,1.02s3.65-.45,4.83-1.35,1.77-2.15,1.77-3.75c0-1.04-.22-1.91-.66-2.61-.44-.7-1.2-1.33-2.28-1.89-1.08-.56-2.64-1.16-4.68-1.8-4.6-1.4-7.87-3.12-9.81-5.16-1.94-2.04-2.91-4.62-2.91-7.74,0-2.4.64-4.51,1.92-6.33,1.28-1.82,3.06-3.22,5.34-4.2,2.28-.98,4.86-1.47,7.74-1.47,3.12,0,5.83.44,8.13,1.32Z"/><path class="cls-2" d="M97.21,486.59h-12.54l-12-32.22c.4,3.16.71,5.95.93,8.37.22,2.42.33,5.29.33,8.61v15.24h-8.76v-41.58h12.24l12.3,32.28c-.88-5.48-1.32-10.64-1.32-15.48v-16.8h8.82v41.58Z"/><path class="cls-2" d="M123.79,486.59l-2.16-8.94h-12.12l-2.1,8.94h-10.2l12.54-41.58h11.94l12.54,41.58h-10.44ZM111.19,470.51h8.76l-4.38-18.36-4.38,18.36Z"/><path class="cls-2" d="M156.13,486.59l-2.16-8.94h-12.12l-2.1,8.94h-10.2l12.54-41.58h11.94l12.54,41.58h-10.44ZM143.53,470.51h8.76l-4.38-18.36-4.38,18.36Z"/><path class="cls-2" d="M207.85,486.59h-9.66l-.72-16.26c-.2-3.88-.3-7.34-.3-10.38,0-2.32.06-4.52.18-6.6l-6.42,28.86h-9.3l-6.84-28.86c.24,3.48.36,6.76.36,9.84,0,2.32-.06,4.74-.18,7.26l-.72,16.14h-9.6l3.12-41.58h12.42l6.24,28.2,5.82-28.2h12.48l3.12,41.58Z"/><path class="cls-2" d="M252.46,449.69c3.3,3.8,4.95,9.16,4.95,16.08,0,4.52-.75,8.42-2.25,11.7-1.5,3.28-3.66,5.79-6.48,7.53-2.82,1.74-6.17,2.61-10.05,2.61s-7.22-.86-10.02-2.58-4.95-4.21-6.45-7.47c-1.5-3.26-2.25-7.19-2.25-11.79s.75-8.36,2.25-11.64c1.5-3.28,3.65-5.79,6.45-7.53,2.8-1.74,6.14-2.61,10.02-2.61,5.92,0,10.53,1.9,13.83,5.7ZM232.3,454.64c-1.38,2.3-2.07,6.01-2.07,11.13s.7,8.84,2.1,11.16c1.4,2.32,3.5,3.48,6.3,3.48s5.01-1.15,6.39-3.45c1.38-2.3,2.07-6.03,2.07-11.19s-.7-8.88-2.1-11.16-3.52-3.42-6.36-3.42-4.95,1.15-6.33,3.45Z"/><path class="cls-2" d="M286.45,448.43c3.04,2.28,4.56,5.66,4.56,10.14s-1.49,8.21-4.47,10.59c-2.98,2.38-6.97,3.57-11.97,3.57h-4.5v13.86h-9.84v-41.58h13.44c5.48,0,9.74,1.14,12.78,3.42ZM279.04,464c1.22-1.1,1.83-2.91,1.83-5.43,0-4.36-2.44-6.54-7.32-6.54h-3.48v13.62h3.66c2.32,0,4.09-.55,5.31-1.65Z"/><path class="cls-2" d="M322.23,446.75c2.1,1.04,3.7,2.44,4.8,4.2,1.1,1.76,1.65,3.7,1.65,5.82s-.44,4.22-1.32,6.18c-.88,1.96-2.44,4.21-4.68,6.75-2.24,2.54-5.5,5.75-9.78,9.63h16.62l-.96,7.26h-26.4v-6.72c4.92-4.84,8.5-8.49,10.74-10.95,2.24-2.46,3.81-4.51,4.71-6.15.9-1.64,1.35-3.32,1.35-5.04s-.47-2.93-1.41-3.87c-.94-.94-2.21-1.41-3.81-1.41-1.44,0-2.72.33-3.84.99-1.12.66-2.3,1.73-3.54,3.21l-5.58-4.44c1.68-2.2,3.69-3.92,6.03-5.16,2.34-1.24,4.97-1.86,7.89-1.86s5.43.52,7.53,1.56Z"/><path class="cls-2" d="M353.28,445.01v33.78h16.2l-1.02,7.8h-25.02v-41.58h9.84Z"/><path class="cls-2" d="M381,445.01v41.58h-9.84v-41.58h9.84Z"/><path class="cls-2" d="M397.14,480.29c0,3.32-.59,6.06-1.77,8.22s-2.74,3.85-4.68,5.07c-1.94,1.22-4.25,2.27-6.93,3.15l-2.64-6.96c1.76-.68,3.08-1.46,3.96-2.34s1.47-1.9,1.77-3.06c.3-1.16.45-2.64.45-4.44v-34.92h9.84v35.28Z"/><path class="cls-2" d="M433.68,486.59h-12.54l-12-32.22c.4,3.16.71,5.95.93,8.37.22,2.42.33,5.29.33,8.61v15.24h-8.76v-41.58h12.24l12.3,32.28c-.88-5.48-1.32-10.64-1.32-15.48v-16.8h8.82v41.58Z"/><path class="cls-2" d="M463.86,445.01l-1.02,7.02h-14.64v9.96h12.78v6.9h-12.78v10.62h15.66v7.08h-25.5v-41.58h25.5Z"/><path class="cls-2" d="M498.9,486.59h-12.54l-12-32.22c.4,3.16.71,5.95.93,8.37.22,2.42.33,5.29.33,8.61v15.24h-8.76v-41.58h12.24l12.3,32.28c-.88-5.48-1.32-10.64-1.32-15.48v-16.8h8.82v41.58Z"/><g class="cls-5"><path class="cls-6" d="M239.76,345.76S110.05,408.65,0,193.45C0,193.45,28.5,163.97,95.32,176.74c0,0,28.5,147.4,144.44,169.01Z"/><path class="cls-6" d="M274.15,333.96s-190.63-11.79-160.17-267.27c0,0,180.8,18.68,160.17,267.27Z"/><path class="cls-6" d="M324.26,345.76s129.71,62.89,239.77-152.31c0,0-28.5-29.48-95.32-16.71,0,0-28.49,147.4-144.45,169.01Z"/><path class="cls-1" d="M289.88,333.96s190.62-11.79,160.16-267.27c0,0-180.8,18.68-160.16,267.27Z"/><path class="cls-6" d="M282.01.85c-35.37,22.6-72.72,81.56-72.72,81.56,53.06,32.43,72.72,97.28,72.72,97.28,0,0,19.65-64.85,72.72-97.28,0,0-37.34-58.96-72.72-81.56Z"/></g><rect class="cls-3" x="26.88" y="841.49" width="500.34" height="49.7"/><path class="cls-2" d="M60.24,861.53h-2.18l-.57-7.38c-.24-2.89-.37-5.12-.4-6.67l-3.54,12.2h-2.11l-3.73-12.22c0,1.98-.1,4.26-.31,6.86l-.55,7.21h-2.14l1.35-16.35h3.04l3.44,11.89,3.28-11.89h3.06l1.35,16.35Z"/><path class="cls-2" d="M72.22,845.17l-.26,1.8h-6.34v5.34h5.51v1.8h-5.51v5.6h6.79v1.8h-9.04v-16.35h8.85Z"/><path class="cls-2" d="M84.21,845.17l-.26,1.8h-6.34v5.34h5.51v1.8h-5.51v5.6h6.79v1.8h-9.04v-16.35h8.85Z"/><path class="cls-2" d="M93.94,845.35c.77.31,1.53.79,2.25,1.44l-1.23,1.38c-.62-.49-1.22-.85-1.82-1.08-.59-.23-1.23-.34-1.91-.34-.85,0-1.56.2-2.11.59-.55.4-.83.97-.83,1.73,0,.47.09.87.29,1.2.19.32.54.62,1.06.89.51.27,1.26.55,2.24.85,1.03.32,1.88.66,2.56,1.02.68.36,1.23.87,1.65,1.51s.63,1.45.63,2.43-.23,1.79-.7,2.52-1.14,1.3-2.02,1.71c-.88.41-1.92.62-3.12.62-2.26,0-4.11-.7-5.55-2.11l1.23-1.38c.67.54,1.34.95,2.02,1.22.68.28,1.44.42,2.28.42,1.01,0,1.85-.25,2.52-.75.66-.5,1-1.22,1-2.17,0-.54-.1-.98-.31-1.34-.21-.36-.56-.68-1.06-.96-.5-.29-1.22-.57-2.17-.85-1.68-.51-2.9-1.12-3.68-1.83-.78-.71-1.16-1.68-1.16-2.9,0-.82.22-1.56.65-2.21.44-.65,1.04-1.15,1.83-1.52.78-.36,1.67-.55,2.67-.55,1.09,0,2.03.15,2.8.46Z"/><path class="cls-2" d="M108.46,845.17l-.24,1.92h-4.53v14.43h-2.25v-14.43h-4.65v-1.92h11.68Z"/><path class="cls-2" d="M126.62,845.17l-5.22,16.35h-2.42l-5.27-16.35h2.42l4.11,13.91,4.11-13.91h2.28Z"/><path class="cls-2" d="M137.27,845.17l-.26,1.8h-6.34v5.34h5.51v1.8h-5.51v5.6h6.79v1.8h-9.04v-16.35h8.85Z"/><path class="cls-2" d="M145.2,854.6h-2.54v6.93h-2.25v-16.35h4.3c2.04,0,3.59.39,4.64,1.16,1.05.78,1.58,1.93,1.58,3.46,0,1.14-.29,2.06-.88,2.78-.58.71-1.47,1.25-2.66,1.61l4.41,7.33h-2.68l-3.92-6.93ZM144.94,852.86c1.19,0,2.08-.24,2.68-.72.6-.48.9-1.26.9-2.34,0-1.01-.3-1.74-.91-2.2-.61-.45-1.59-.68-2.93-.68h-2.02v5.93h2.28Z"/><path class="cls-2" d="M165.51,861.53h-3.01l-6.64-13.88c.09,1.09.17,2.1.23,3.03.05.93.08,2.04.08,3.36v7.5h-2.11v-16.35h2.94l6.72,13.91c-.05-.41-.11-1.13-.19-2.16s-.12-1.97-.12-2.82v-8.92h2.11v16.35Z"/><path class="cls-2" d="M171.8,845.17v16.35h-2.25v-16.35h2.25Z"/><path class="cls-2" d="M184.69,845.17l-.26,1.8h-6.34v5.34h5.51v1.8h-5.51v5.6h6.79v1.8h-9.04v-16.35h8.85Z"/><path class="cls-2" d="M199.02,856.28c0,1.09-.23,2.05-.68,2.88-.45.83-1.11,1.48-1.97,1.95-.86.47-1.9.7-3.1.7-1.82,0-3.22-.5-4.21-1.51-.99-1-1.48-2.34-1.48-4.02v-11.11h2.25v10.94c0,1.27.28,2.22.85,2.85.57.63,1.43.95,2.59.95s2.04-.31,2.61-.94c.57-.62.85-1.58.85-2.86v-10.94h2.28v11.11Z"/><path class="cls-2" d="M219.46,845.17l-3.32,16.35h-2.9l-3.01-13.69-3.04,13.69h-2.82l-3.32-16.35h2.21l2.63,14.38,3.16-14.38h2.4l3.23,14.38,2.73-14.38h2.06Z"/><path class="cls-2" d="M230.56,845.17l-.26,1.8h-6.34v5.34h5.51v1.8h-5.51v5.6h6.79v1.8h-9.04v-16.35h8.85Z"/><path class="cls-2" d="M245.16,861.53h-3.01l-6.64-13.88c.09,1.09.17,2.1.23,3.03.05.93.08,2.04.08,3.36v7.5h-2.11v-16.35h2.94l6.72,13.91c-.05-.41-.11-1.13-.19-2.16s-.12-1.97-.12-2.82v-8.92h2.11v16.35Z"/><path class="cls-2" d="M258.55,846.9c1.5,1.15,2.24,3.27,2.24,6.37s-.75,5.15-2.24,6.4c-1.5,1.24-3.31,1.86-5.45,1.86h-3.92v-16.35h3.42c2.47,0,4.45.57,5.94,1.72ZM251.45,846.98v12.77h1.83c1.52,0,2.75-.47,3.7-1.4s1.42-2.63,1.42-5.08c0-1.72-.25-3.05-.74-3.97-.49-.93-1.12-1.54-1.88-1.85s-1.65-.46-2.68-.46h-1.66Z"/><path class="cls-2" d="M272.61,845.17l-.26,1.8h-6.34v5.34h5.51v1.8h-5.51v5.6h6.79v1.8h-9.04v-16.35h8.85Z"/><path class="cls-2" d="M290.69,846.9c1.5,1.15,2.24,3.27,2.24,6.37s-.75,5.15-2.24,6.4c-1.5,1.24-3.31,1.86-5.45,1.86h-3.92v-16.35h3.42c2.47,0,4.45.57,5.94,1.72ZM283.58,846.98v12.77h1.83c1.52,0,2.75-.47,3.7-1.4s1.42-2.63,1.42-5.08c0-1.72-.25-3.05-.74-3.97-.49-.93-1.12-1.54-1.88-1.85s-1.65-.46-2.68-.46h-1.66Z"/><path class="cls-2" d="M298.15,845.17v16.35h-2.25v-16.35h2.25Z"/><path class="cls-2" d="M311.04,845.17l-.26,1.8h-6.34v5.34h5.51v1.8h-5.51v5.6h6.79v1.8h-9.04v-16.35h8.85Z"/><path class="cls-2" d="M325.63,861.53h-3.01l-6.64-13.88c.09,1.09.17,2.1.23,3.03.05.93.08,2.04.08,3.36v7.5h-2.11v-16.35h2.94l6.72,13.91c-.05-.41-.11-1.13-.19-2.16s-.12-1.97-.12-2.82v-8.92h2.11v16.35Z"/><path class="cls-2" d="M336.5,845.35c.77.31,1.53.79,2.25,1.44l-1.23,1.38c-.62-.49-1.22-.85-1.82-1.08-.59-.23-1.23-.34-1.91-.34-.85,0-1.56.2-2.11.59-.55.4-.83.97-.83,1.73,0,.47.09.87.29,1.2.19.32.54.62,1.06.89.51.27,1.26.55,2.24.85,1.03.32,1.88.66,2.56,1.02.68.36,1.23.87,1.65,1.51s.63,1.45.63,2.43-.23,1.79-.7,2.52-1.14,1.3-2.02,1.71c-.88.41-1.92.62-3.12.62-2.26,0-4.11-.7-5.55-2.11l1.23-1.38c.67.54,1.34.95,2.02,1.22.68.28,1.44.42,2.28.42,1.01,0,1.85-.25,2.52-.75.66-.5,1-1.22,1-2.17,0-.54-.1-.98-.31-1.34-.21-.36-.56-.68-1.06-.96-.5-.29-1.22-.57-2.17-.85-1.68-.51-2.9-1.12-3.68-1.83-.78-.71-1.16-1.68-1.16-2.9,0-.82.22-1.56.65-2.21.44-.65,1.04-1.15,1.83-1.52.78-.36,1.67-.55,2.67-.55,1.09,0,2.03.15,2.8.46Z"/><path class="cls-2" d="M351.02,845.17l-.24,1.92h-4.53v14.43h-2.25v-14.43h-4.65v-1.92h11.68Z"/><path class="cls-2" d="M363.6,845.17l-5.22,16.35h-2.42l-5.27-16.35h2.42l4.11,13.91,4.11-13.91h2.28Z"/><path class="cls-2" d="M374.26,845.17l-.26,1.8h-6.34v5.34h5.51v1.8h-5.51v5.6h6.79v1.8h-9.04v-16.35h8.85Z"/><path class="cls-2" d="M382.18,854.6h-2.54v6.93h-2.25v-16.35h4.3c2.04,0,3.59.39,4.64,1.16,1.05.78,1.58,1.93,1.58,3.46,0,1.14-.29,2.06-.88,2.78-.58.71-1.47,1.25-2.66,1.61l4.41,7.33h-2.68l-3.92-6.93ZM381.92,852.86c1.19,0,2.08-.24,2.68-.72.6-.48.9-1.26.9-2.34,0-1.01-.3-1.74-.91-2.2-.61-.45-1.59-.68-2.93-.68h-2.02v5.93h2.28Z"/><path class="cls-2" d="M393.29,845.17v14.38h6.72l-.26,1.97h-8.71v-16.35h2.25Z"/><path class="cls-2" d="M410.99,845.17l-.26,1.8h-6.34v5.34h5.51v1.8h-5.51v5.6h6.79v1.8h-9.04v-16.35h8.85Z"/><path class="cls-2" d="M425.59,861.53h-3.01l-6.64-13.88c.09,1.09.17,2.1.23,3.03.05.93.08,2.04.08,3.36v7.5h-2.11v-16.35h2.94l6.72,13.91c-.05-.41-.11-1.13-.19-2.16s-.12-1.97-.12-2.82v-8.92h2.11v16.35Z"/><path class="cls-2" d="M431.88,845.17v16.35h-2.25v-16.35h2.25Z"/><path class="cls-2" d="M447.38,861.53h-3.01l-6.64-13.88c.09,1.09.17,2.1.23,3.03.05.93.08,2.04.08,3.36v7.5h-2.11v-16.35h2.94l6.72,13.91c-.05-.41-.11-1.13-.19-2.16s-.12-1.97-.12-2.82v-8.92h2.11v16.35Z"/><path class="cls-2" d="M460.11,845.33c.75.29,1.5.75,2.24,1.37l-1.33,1.38c-.58-.47-1.15-.81-1.68-1.02-.54-.21-1.17-.31-1.9-.31-.84,0-1.61.23-2.31.68s-1.28,1.17-1.72,2.16c-.44.99-.66,2.24-.66,3.76,0,2.29.38,3.97,1.13,5.03.75,1.06,1.86,1.59,3.33,1.59,1.2,0,2.24-.25,3.11-.74v-4.94h-2.9l-.26-1.83h5.39v7.9c-1.69.97-3.47,1.45-5.34,1.45-2.15,0-3.83-.72-5.04-2.16-1.21-1.44-1.82-3.54-1.82-6.31,0-1.77.32-3.29.96-4.57s1.5-2.24,2.59-2.9c1.08-.66,2.27-.98,3.55-.98,1.03,0,1.92.15,2.67.44Z"/><path class="cls-2" d="M479.96,861.53l-1.23-4.11h-6.19l-1.23,4.11h-2.28l5.24-16.35h2.85l5.22,16.35h-2.37ZM473.08,855.59h5.1l-2.54-8.54-2.56,8.54Z"/><path class="cls-2" d="M492.85,861.53l-1.23-4.11h-6.19l-1.23,4.11h-2.28l5.24-16.35h2.85l5.22,16.35h-2.37ZM485.96,855.59h5.1l-2.54-8.54-2.56,8.54Z"/><path class="cls-2" d="M508.49,861.53h-3.01l-6.64-13.88c.09,1.09.17,2.1.23,3.03.05.93.08,2.04.08,3.36v7.5h-2.11v-16.35h2.94l6.72,13.91c-.05-.41-.11-1.13-.19-2.16s-.12-1.97-.12-2.82v-8.92h2.11v16.35Z"/><path class="cls-2" d="M223.61,869.27c.67.25,1.36.66,2.05,1.23l-1.23,1.45c-1-.81-2.05-1.21-3.16-1.21-1.36,0-2.46.52-3.29,1.57-.83,1.04-1.25,2.72-1.25,5.03s.41,3.9,1.23,4.97c.82,1.07,1.91,1.6,3.27,1.6.7,0,1.31-.12,1.83-.36.52-.24,1.08-.57,1.66-1l1.12,1.42c-.51.52-1.16.96-1.95,1.31s-1.7.52-2.73.52c-1.33,0-2.51-.33-3.55-.99-1.04-.66-1.84-1.62-2.42-2.9-.58-1.27-.87-2.8-.87-4.59s.3-3.32.9-4.59,1.42-2.23,2.44-2.88c1.03-.65,2.17-.97,3.44-.97.98,0,1.81.13,2.48.38Z"/><path class="cls-2" d="M236.97,869.87c1.04.66,1.84,1.62,2.42,2.88.58,1.27.87,2.8.87,4.6s-.29,3.29-.87,4.56c-.58,1.27-1.38,2.23-2.42,2.9s-2.24,1-3.62,1-2.58-.32-3.62-.97c-1.04-.65-1.84-1.61-2.42-2.87-.58-1.27-.87-2.79-.87-4.58s.29-3.28.87-4.56c.58-1.28,1.39-2.26,2.43-2.93,1.04-.67,2.25-1.01,3.61-1.01s2.58.33,3.62.98ZM230.03,872.36c-.79,1.08-1.19,2.75-1.19,5.03s.4,3.92,1.2,4.98c.8,1.06,1.9,1.59,3.31,1.59,3.01,0,4.51-2.2,4.51-6.6s-1.5-6.62-4.51-6.62c-1.42,0-2.53.54-3.32,1.61Z"/><path class="cls-2" d="M254.69,885.53h-3.01l-6.64-13.88c.09,1.09.17,2.1.23,3.03.05.93.08,2.04.08,3.36v7.5h-2.11v-16.35h2.94l6.72,13.91c-.05-.41-.11-1.13-.19-2.16s-.12-1.97-.12-2.82v-8.92h2.11v16.35Z"/><path class="cls-2" d="M265.55,869.35c.77.31,1.53.79,2.25,1.44l-1.23,1.38c-.62-.49-1.22-.85-1.82-1.08-.59-.23-1.23-.34-1.91-.34-.85,0-1.56.2-2.11.59-.55.4-.83.97-.83,1.73,0,.47.09.87.29,1.2.19.32.54.62,1.06.89.51.27,1.26.55,2.24.85,1.03.32,1.88.66,2.56,1.02.68.36,1.23.87,1.65,1.51s.63,1.45.63,2.43-.23,1.79-.7,2.52-1.14,1.3-2.02,1.71c-.88.41-1.92.62-3.12.62-2.26,0-4.11-.7-5.55-2.11l1.23-1.38c.67.54,1.34.95,2.02,1.22.68.28,1.44.42,2.28.42,1.01,0,1.85-.25,2.52-.75.66-.5,1-1.22,1-2.17,0-.54-.1-.98-.31-1.34-.21-.36-.56-.68-1.06-.96-.5-.29-1.22-.57-2.17-.85-1.68-.51-2.9-1.12-3.68-1.83-.78-.71-1.16-1.68-1.16-2.9,0-.82.22-1.56.65-2.21.44-.65,1.04-1.15,1.83-1.52.78-.36,1.67-.55,2.67-.55,1.09,0,2.03.15,2.8.46Z"/><path class="cls-2" d="M282.14,880.28c0,1.09-.23,2.05-.68,2.88-.45.83-1.11,1.48-1.97,1.95-.86.47-1.9.7-3.1.7-1.82,0-3.22-.5-4.21-1.51-.99-1-1.48-2.34-1.48-4.02v-11.11h2.25v10.94c0,1.27.28,2.22.85,2.85.57.63,1.43.95,2.59.95s2.04-.31,2.61-.94c.57-.62.85-1.58.85-2.86v-10.94h2.28v11.11Z"/><path class="cls-2" d="M300.56,885.53h-2.18l-.57-7.38c-.24-2.89-.37-5.12-.4-6.67l-3.54,12.2h-2.11l-3.73-12.22c0,1.98-.1,4.26-.31,6.86l-.55,7.21h-2.14l1.35-16.35h3.04l3.44,11.89,3.28-11.89h3.06l1.35,16.35Z"/><path class="cls-2" d="M312.54,869.17l-.26,1.8h-6.34v5.34h5.51v1.8h-5.51v5.6h6.79v1.8h-9.04v-16.35h8.85Z"/><path class="cls-2" d="M327.14,885.53h-3.01l-6.64-13.88c.09,1.09.17,2.1.23,3.03.05.93.08,2.04.08,3.36v7.5h-2.11v-16.35h2.94l6.72,13.91c-.05-.41-.11-1.13-.19-2.16s-.12-1.97-.12-2.82v-8.92h2.11v16.35Z"/><path class="cls-2" d="M340.83,869.17l-.24,1.92h-4.53v14.43h-2.25v-14.43h-4.65v-1.92h11.68Z"/><rect class="cls-3" x="31.69" y="529.4" width="509.27" height="114.91"/><path class="cls-2" d="M130.9,538.42l-11.24,96.43h-31.91l-6.38-72.84-7.21,72.84h-31.36l-10.54-96.43h23.45l5.41,78.25,8.05-78.25h25.11l7.21,78.25,6.8-78.25h22.62Z"/><path class="cls-2" d="M161.14,538.42v96.43h-24.56v-96.43h24.56Z"/><path class="cls-2" d="M236.76,634.85h-29.97l-17.48-74.51.42,3.33c.83,6.38,1.5,12.47,2.01,18.25.51,5.78.76,12.14.76,19.08v33.85h-20.95v-96.43h29.83l17.62,74.78c-1.02-6.66-1.8-12.88-2.36-18.66-.56-5.78-.83-12.28-.83-19.49v-36.63h20.95v96.43Z"/><path class="cls-2" d="M312.23,634.85h-29.97l-17.48-74.51.42,3.33c.83,6.38,1.5,12.47,2.01,18.25.51,5.78.76,12.14.76,19.08v33.85h-20.95v-96.43h29.83l17.62,74.78c-1.02-6.66-1.8-12.88-2.36-18.66-.55-5.78-.83-12.28-.83-19.49v-36.63h20.95v96.43Z"/><path class="cls-2" d="M365.51,634.85l-3.33-20.12h-19.15l-3.19,20.12h-24.56l23.03-96.43h29.14l22.89,96.43h-24.83ZM345.95,597.25h13.46l-6.8-41.21-6.66,41.21Z"/><path class="cls-2" d="M436.41,634.85l-3.33-20.12h-19.15l-3.19,20.12h-24.56l23.03-96.43h29.14l22.89,96.43h-24.83ZM416.84,597.25h13.46l-6.8-41.21-6.66,41.21Z"/><path class="cls-2" d="M493.15,598.91h-4.3v35.94h-24.56v-96.43h27.61c24.42,0,36.63,9.94,36.63,29.83,0,5.55-1.11,10.61-3.33,15.19-2.22,4.58-5.74,8.21-10.54,10.89l19.29,40.51h-25.95l-14.85-35.94ZM488.85,582.12h3.47c4.07,0,6.96-1.09,8.67-3.26,1.71-2.17,2.57-5.71,2.57-10.61,0-4.35-.95-7.56-2.84-9.64-1.9-2.08-4.83-3.12-8.81-3.12h-3.05v26.64Z"/></g></svg>