<?xml version="1.0" encoding="UTF-8"?><svg id="Laag_1" xmlns="http://www.w3.org/2000/svg" viewBox="0 0 563.73 916.22"><defs><style>.cls-1{fill:#fff;}.cls-2{fill:none;}.cls-3{fill:#2c94d2;}.cls-4{fill:#da2128;}.cls-5{fill:#d5af34;}</style></defs><g id="v_blauw_1"><rect id="bg" class="cls-3" x=".28" y="276.67" width="563.44" height="639.55" rx="28.98" ry="28.98"/><rect class="cls-2" x="29.12" y="661.3" width="504.95" height="48.07"/><path class="cls-5" d="M59.12,665.63c2.18.85,4.25,2.11,6.21,3.78l-4.43,4.62c-1.54-1.21-2.99-2.08-4.34-2.62-1.35-.54-2.92-.81-4.71-.81-3.33,0-6.05,1.33-8.18,4-2.12,2.66-3.18,6.74-3.18,12.24s.84,9.88,2.53,12.42c1.69,2.54,4.25,3.81,7.71,3.81,2.62,0,4.91-.56,6.87-1.69v-11.24h-6.49l-.87-6.12h15.48v21.1c-4.66,2.83-9.61,4.25-14.86,4.25-6.16,0-10.87-1.91-14.14-5.74-3.27-3.83-4.9-9.43-4.9-16.79,0-4.7.88-8.75,2.65-12.14,1.77-3.39,4.15-5.96,7.15-7.71,3-1.75,6.33-2.62,9.99-2.62,2.83,0,5.34.43,7.52,1.28Z"/><path class="cls-5" d="M100.6,666.98c2.83,1.75,5,4.31,6.52,7.68,1.52,3.37,2.28,7.43,2.28,12.17s-.77,8.74-2.31,12.11c-1.54,3.37-3.73,5.95-6.55,7.74-2.83,1.79-6.16,2.68-9.99,2.68s-7.22-.87-10.05-2.62c-2.83-1.75-5.02-4.31-6.55-7.68-1.54-3.37-2.31-7.43-2.31-12.17s.77-8.69,2.31-12.08c1.54-3.39,3.73-5.98,6.59-7.77,2.85-1.79,6.19-2.68,10.02-2.68s7.22.87,10.05,2.62ZM82.93,674.56c-1.75,2.6-2.62,6.71-2.62,12.33,0,10.78,3.41,16.17,10.24,16.17,3.33,0,5.86-1.29,7.58-3.87,1.73-2.58,2.59-6.7,2.59-12.36s-.86-9.72-2.59-12.3c-1.73-2.58-4.26-3.87-7.58-3.87s-5.87,1.3-7.62,3.9Z"/><path class="cls-5" d="M148.6,694.32c0,2.91-.61,5.5-1.84,7.77s-3.06,4.05-5.49,5.34c-2.43,1.29-5.36,1.94-8.77,1.94-5.16,0-9.11-1.36-11.86-4.09-2.75-2.73-4.12-6.38-4.12-10.96v-29.03h8.24v28.59c0,3.04.63,5.31,1.9,6.8s3.21,2.25,5.84,2.25,4.63-.75,5.9-2.25,1.9-3.77,1.9-6.8v-28.59h8.3v29.03Z"/><path class="cls-5" d="M184.78,669.85c4.02,3.04,6.02,8.64,6.02,16.79s-1.98,13.62-5.93,16.89c-3.96,3.27-8.97,4.9-15.04,4.9h-11.74v-43.14h10.61c6.7,0,12.06,1.52,16.08,4.56ZM166.33,671.47v30.78h4.06c3.66,0,6.53-1.13,8.62-3.4,2.08-2.27,3.12-6.34,3.12-12.2,0-4.08-.53-7.23-1.59-9.46-1.06-2.23-2.46-3.73-4.18-4.53-1.73-.79-3.8-1.19-6.21-1.19h-3.81Z"/><path class="cls-5" d="M223.58,665.29l-.87,6.12h-15.92v12.05h13.86v6.12h-13.86v12.67h17.04v6.18h-25.28v-43.14h25.03Z"/><path class="cls-5" d="M263.47,708.43h-10.67l-14.79-34.9c.38,3.08.66,5.87.84,8.37s.28,5.47.28,8.93v17.6h-7.49v-43.14h10.42l15.04,34.96c-.25-1.66-.5-3.86-.75-6.59s-.38-5.44-.38-8.15v-20.23h7.49v43.14Z"/><path class="cls-5" d="M297.43,665.29v36.4h17.29l-.94,6.74h-24.6v-43.14h8.24Z"/><path class="cls-5" d="M344.68,666.98c2.83,1.75,5,4.31,6.52,7.68,1.52,3.37,2.28,7.43,2.28,12.17s-.77,8.74-2.31,12.11c-1.54,3.37-3.72,5.95-6.55,7.74-2.83,1.79-6.16,2.68-9.99,2.68s-7.22-.87-10.05-2.62-5.02-4.31-6.55-7.68c-1.54-3.37-2.31-7.43-2.31-12.17s.77-8.69,2.31-12.08c1.54-3.39,3.74-5.98,6.59-7.77,2.85-1.79,6.19-2.68,10.02-2.68s7.22.87,10.05,2.62ZM327.02,674.56c-1.75,2.6-2.62,6.71-2.62,12.33,0,10.78,3.41,16.17,10.24,16.17,3.33,0,5.86-1.29,7.58-3.87,1.73-2.58,2.59-6.7,2.59-12.36s-.86-9.72-2.59-12.3c-1.73-2.58-4.26-3.87-7.58-3.87s-5.87,1.3-7.62,3.9Z"/><path class="cls-5" d="M386.76,665.29l-.87,6.56h-11.24v36.58h-8.3v-36.58h-11.61v-6.56h32.03Z"/><path class="cls-5" d="M423.59,694.32c0,2.91-.61,5.5-1.84,7.77s-3.06,4.05-5.49,5.34c-2.43,1.29-5.36,1.94-8.77,1.94-5.16,0-9.12-1.36-11.86-4.09-2.75-2.73-4.12-6.38-4.12-10.96v-29.03h8.24v28.59c0,3.04.63,5.31,1.9,6.8,1.27,1.5,3.21,2.25,5.84,2.25s4.63-.75,5.9-2.25,1.9-3.77,1.9-6.8v-28.59h8.3v29.03Z"/><path class="cls-5" d="M453.06,665.67c2.25.87,4.35,2.21,6.3,4l-4.06,4.68c-1.54-1.29-3.09-2.23-4.65-2.81-1.56-.58-3.24-.87-5.03-.87-2,0-3.61.45-4.84,1.34-1.23.9-1.84,2.15-1.84,3.78,0,1.08.24,1.98.72,2.68.48.71,1.34,1.37,2.59,2,1.25.62,3.1,1.31,5.56,2.06,4.25,1.33,7.44,2.99,9.58,4.96,2.14,1.98,3.21,4.86,3.21,8.65,0,2.58-.66,4.87-1.97,6.87-1.31,2-3.19,3.56-5.65,4.68-2.46,1.12-5.37,1.69-8.74,1.69s-6.23-.53-8.83-1.59c-2.6-1.06-4.84-2.51-6.71-4.34l4.25-4.74c1.66,1.42,3.39,2.49,5.18,3.21,1.79.73,3.77,1.09,5.93,1.09,2.37,0,4.29-.56,5.74-1.69,1.46-1.12,2.19-2.7,2.19-4.74,0-1.25-.25-2.28-.75-3.09-.5-.81-1.35-1.54-2.56-2.19-1.21-.64-2.96-1.32-5.24-2.03-4.58-1.42-7.89-3.12-9.93-5.12-2.04-2-3.06-4.62-3.06-7.87,0-2.37.62-4.45,1.87-6.24,1.25-1.79,2.99-3.18,5.21-4.18,2.23-1,4.75-1.5,7.58-1.5,3.04,0,5.68.44,7.93,1.31Z"/><rect class="cls-2" x="448.61" y="664.36" width="91.5" height="151.4"/><path class="cls-5" d="M532.2,688.9c-1.37,2.44-3.23,4.29-5.59,5.54-2.36,1.25-5.02,1.88-7.98,1.88-3.3,0-6.43-.57-9.38-1.71-2.96-1.14-6.33-3.04-10.11-5.71-3.78-2.67-8.77-6.62-14.97-11.86v20.3l-8.36-1.11v-30.37h7.76c7.05,5.63,12.5,9.79,16.33,12.5,3.84,2.7,7.09,4.58,9.77,5.63,2.67,1.05,5.46,1.58,8.36,1.58,2.61,0,4.59-.57,5.93-1.71,1.34-1.14,2-2.7,2-4.69,0-1.65-.44-3.11-1.32-4.39-.88-1.28-2.35-2.69-4.39-4.22l4.69-6.23c6.2,4.04,9.3,9.33,9.3,15.87,0,3.35-.68,6.25-2.05,8.7Z"/><path class="cls-5" d="M526.83,734.11c-4.95,2.96-12.4,4.43-22.35,4.43-19.96,0-29.94-5.83-29.94-17.49s9.98-17.66,29.94-17.66,29.77,5.89,29.77,17.66c0,5.74-2.47,10.09-7.42,13.05ZM524.4,717.09c-1.28-1-3.5-1.74-6.65-2.22-3.16-.48-7.58-.72-13.26-.72s-10.19.24-13.35.72c-3.16.48-5.37,1.22-6.65,2.22-1.28.99-1.92,2.32-1.92,3.97s.64,2.96,1.92,3.92c1.28.97,3.5,1.68,6.65,2.13,3.16.45,7.6.68,13.35.68s10.18-.23,13.31-.68c3.13-.46,5.33-1.17,6.61-2.13,1.28-.97,1.92-2.28,1.92-3.92s-.64-2.97-1.92-3.97Z"/><path class="cls-5" d="M532.2,766.27c-1.37,2.44-3.23,4.29-5.59,5.54-2.36,1.25-5.02,1.88-7.98,1.88-3.3,0-6.43-.57-9.38-1.71-2.96-1.14-6.33-3.04-10.11-5.71-3.78-2.67-8.77-6.62-14.97-11.86v20.3l-8.36-1.11v-30.37h7.76c7.05,5.63,12.5,9.79,16.33,12.5,3.84,2.7,7.09,4.58,9.77,5.63,2.67,1.05,5.46,1.58,8.36,1.58,2.61,0,4.59-.57,5.93-1.71,1.34-1.14,2-2.7,2-4.69,0-1.65-.44-3.11-1.32-4.39-.88-1.28-2.35-2.69-4.39-4.22l4.69-6.23c6.2,4.04,9.3,9.33,9.3,15.87,0,3.35-.68,6.25-2.05,8.7Z"/><path class="cls-5" d="M525.38,808.57v-17.4h-14.67c.74,1.25,1.28,2.44,1.62,3.58.34,1.14.51,2.36.51,3.67,0,3.98-1.61,7.22-4.82,9.72-3.21,2.5-7.72,3.75-13.52,3.75-3.92,0-7.39-.75-10.41-2.26-3.01-1.51-5.36-3.64-7.04-6.4-1.68-2.76-2.52-5.96-2.52-9.6,0-3.36.68-6.27,2.05-8.74,1.37-2.47,3.35-4.73,5.97-6.78l5.29,5.88c-1.76,1.48-3.06,2.91-3.88,4.31-.83,1.39-1.24,3.03-1.24,4.9,0,2.56.98,4.53,2.94,5.93,1.96,1.39,4.9,2.09,8.83,2.09s6.87-.6,8.49-1.79c1.62-1.19,2.43-2.87,2.43-5.03,0-1.02-.17-1.99-.51-2.9-.34-.91-.85-1.93-1.54-3.07v-7.17h29.85v28.57l-7.85-1.28Z"/><rect class="cls-2" x="29.12" y="710.54" width="438.05" height="101.38"/><path class="cls-5" d="M89.12,811.87l-5.77-21.47h-30.74l-5.77,21.47h-18.39l28.86-92.75h21.88l28.72,92.75h-18.79ZM56.1,776.97h23.62l-11.81-44.29-11.81,44.29Z"/><path class="cls-5" d="M217.56,719.12l-17.05,92.75h-23.08l-14.09-73.96-14.5,73.96h-22.41l-16.78-92.75h17.58l11.81,78.65,15.17-78.65h18.79l14.9,78.65,12.88-78.65h16.78Z"/><path class="cls-5" d="M279.7,811.87l-5.77-21.47h-30.74l-5.77,21.47h-18.39l28.86-92.75h21.88l28.72,92.75h-18.79ZM246.68,776.97h23.62l-11.81-44.29-11.81,44.29Z"/><path class="cls-5" d="M337.82,774.69h-11.27v37.18h-17.72v-92.75h27.65c24.52,0,36.78,9.08,36.78,27.25,0,6.17-1.52,11.27-4.56,15.3-3.04,4.03-7.78,7.29-14.23,9.8l24.29,40.4h-20.4l-20.54-37.18ZM326.54,761.94h11.01c5.64,0,9.91-1.23,12.82-3.69,2.91-2.46,4.36-6.42,4.36-11.88,0-5.01-1.5-8.66-4.5-10.94-3-2.28-7.72-3.42-14.16-3.42h-9.53v29.93Z"/><path class="cls-5" d="M448.21,728.92c8.63,6.53,12.95,18.57,12.95,36.1s-4.25,29.28-12.75,36.31c-8.5,7.03-19.28,10.54-32.35,10.54h-25.23v-92.75h22.82c14.41,0,25.92,3.27,34.56,9.8ZM408.55,732.41v66.17h8.72c7.87,0,14.05-2.44,18.52-7.31,4.47-4.88,6.71-13.62,6.71-26.24,0-8.77-1.14-15.55-3.42-20.33-2.28-4.79-5.28-8.03-8.99-9.73-3.71-1.7-8.17-2.55-13.35-2.55h-8.19Z"/><rect class="cls-2" x="31.84" y="375.8" width="500.34" height="131.02"/><path class="cls-1" d="M264.05,385.56c2.82,2.11,4.24,5.97,4.24,11.59s-1.38,9.42-4.13,11.67c-2.75,2.25-6.32,3.38-10.71,3.38h-8.94v-29.8h8.3c4.67,0,8.42,1.05,11.25,3.16ZM251.56,387.51v19.57h2.32c2.32,0,4.08-.72,5.29-2.17,1.2-1.45,1.81-4.03,1.81-7.76,0-2.55-.3-4.53-.9-5.93-.6-1.4-1.42-2.37-2.45-2.9s-2.31-.8-3.83-.8h-2.24Z"/><path class="cls-1" d="M288.2,412.2l-1.55-6.41h-8.69l-1.5,6.41h-7.31l8.99-29.8h8.56l8.99,29.8h-7.48ZM279.17,400.67h6.28l-3.14-13.16-3.14,13.16Z"/><path class="cls-1" d="M304.92,382.4v29.8h-7.05v-29.8h7.05ZM322.04,382.4l-9.5,13.37,10.28,16.43h-8.17l-9.5-15.91,9.46-13.89h7.44Z"/><path class="cls-1" d="M45.25,434v29.8h-7.05v-29.8h7.05Z"/><path class="cls-1" d="M71.78,463.8h-8.99l-8.6-23.09c.29,2.26.51,4.26.67,6,.16,1.73.24,3.79.24,6.17v10.92h-6.28v-29.8h8.77l8.81,23.13c-.63-3.93-.95-7.62-.95-11.09v-12.04h6.32v29.8Z"/><path class="cls-1" d="M95.73,434l-.69,5.42h-7.35v24.38h-7.05v-24.38h-7.7v-5.42h22.79Z"/><path class="cls-1" d="M114.87,434l-.73,5.03h-10.49v7.14h9.16v4.95h-9.16v7.61h11.22v5.07h-18.28v-29.8h18.28Z"/><path class="cls-1" d="M127.03,452.4h-2.75v11.39h-7.05v-29.8h9.76c4.07,0,7.13.75,9.18,2.24s3.07,3.77,3.07,6.84c0,1.92-.46,3.52-1.38,4.79-.92,1.28-2.36,2.36-4.34,3.25l7.57,12.68h-7.96l-6.11-11.39ZM124.28,447.54h2.97c1.58,0,2.76-.36,3.55-1.08.79-.72,1.18-1.85,1.18-3.4,0-1.43-.42-2.48-1.27-3.14-.85-.66-2.14-.99-3.89-.99h-2.54v8.6Z"/><path class="cls-1" d="M171.37,463.8h-6.92l-.52-11.65c-.14-2.78-.22-5.26-.22-7.44,0-1.66.04-3.24.13-4.73l-4.6,20.68h-6.67l-4.9-20.68c.17,2.49.26,4.84.26,7.05,0,1.66-.04,3.4-.13,5.2l-.52,11.57h-6.88l2.24-29.8h8.9l4.47,20.21,4.17-20.21h8.94l2.24,29.8Z"/><path class="cls-1" d="M191.88,434l-.73,5.03h-10.49v7.14h9.16v4.95h-9.16v7.61h11.22v5.07h-18.28v-29.8h18.28Z"/><path class="cls-1" d="M213.79,437.16c2.82,2.11,4.24,5.97,4.24,11.59s-1.38,9.42-4.13,11.67c-2.75,2.25-6.32,3.38-10.71,3.38h-8.94v-29.8h8.3c4.67,0,8.42,1.05,11.25,3.16ZM201.29,439.11v19.56h2.32c2.32,0,4.08-.72,5.29-2.17s1.81-4.04,1.81-7.76c0-2.55-.3-4.53-.9-5.93-.6-1.4-1.42-2.37-2.45-2.9-1.03-.53-2.31-.79-3.83-.79h-2.24Z"/><path class="cls-1" d="M227.31,434v29.8h-7.05v-29.8h7.05Z"/><path class="cls-1" d="M246.57,463.8l-1.55-6.41h-8.69l-1.5,6.41h-7.31l8.99-29.8h8.56l8.99,29.8h-7.48ZM237.54,452.27h6.28l-3.14-13.16-3.14,13.16Z"/><path class="cls-1" d="M261.32,434v29.8h-7.05v-29.8h7.05Z"/><path class="cls-1" d="M274.69,452.4h-2.75v11.39h-7.05v-29.8h9.76c4.07,0,7.13.75,9.18,2.24s3.07,3.77,3.07,6.84c0,1.92-.46,3.52-1.38,4.79-.92,1.28-2.36,2.36-4.34,3.25l7.57,12.68h-7.96l-6.11-11.39ZM271.94,447.54h2.97c1.58,0,2.76-.36,3.55-1.08.79-.72,1.18-1.85,1.18-3.4,0-1.43-.42-2.48-1.27-3.14-.85-.66-2.14-.99-3.89-.99h-2.54v8.6Z"/><path class="cls-1" d="M304.86,434.21c1.65.63,3.15,1.59,4.49,2.88l-3.27,3.83c-2.04-1.66-4.21-2.49-6.54-2.49-1.23,0-2.21.25-2.92.75-.72.5-1.07,1.23-1.07,2.17,0,.66.16,1.2.47,1.61.32.42.87.81,1.68,1.18.8.37,2.01.82,3.61,1.33,3.04.97,5.27,2.17,6.71,3.59,1.43,1.42,2.15,3.43,2.15,6.04,0,1.86-.47,3.5-1.42,4.92-.95,1.42-2.31,2.52-4.08,3.31s-3.88,1.18-6.32,1.18-4.59-.39-6.47-1.16c-1.88-.77-3.49-1.81-4.84-3.1l3.57-3.91c1.15.97,2.33,1.71,3.55,2.19,1.22.49,2.54.73,3.98.73s2.62-.32,3.46-.97c.85-.64,1.27-1.54,1.27-2.69,0-.75-.16-1.37-.47-1.87-.32-.5-.86-.95-1.63-1.35-.77-.4-1.89-.83-3.35-1.29-3.3-1-5.64-2.24-7.03-3.7-1.39-1.46-2.09-3.31-2.09-5.55,0-1.72.46-3.23,1.38-4.54.92-1.3,2.19-2.31,3.83-3.01,1.63-.7,3.48-1.05,5.55-1.05,2.24,0,4.18.32,5.83.95Z"/><path class="cls-1" d="M329.2,434.08c1.45.54,2.82,1.36,4.11,2.45l-3.35,4c-.89-.69-1.76-1.2-2.62-1.55-.86-.34-1.78-.52-2.75-.52-2.01,0-3.59.85-4.75,2.54-1.16,1.69-1.74,4.3-1.74,7.83s.58,6.04,1.74,7.72,2.77,2.52,4.84,2.52c1.09,0,2.08-.21,2.97-.62.89-.42,1.85-1.01,2.88-1.78l3.14,4.04c-1.12,1.12-2.47,2.04-4.06,2.75s-3.35,1.08-5.27,1.08c-2.75,0-5.15-.6-7.18-1.81-2.04-1.2-3.62-2.99-4.75-5.35-1.13-2.36-1.7-5.21-1.7-8.54s.58-6.03,1.74-8.38,2.77-4.13,4.82-5.35c2.05-1.22,4.38-1.83,6.99-1.83,1.86,0,3.52.27,4.97.82Z"/><path class="cls-1" d="M356.76,437.35c2.37,2.72,3.55,6.56,3.55,11.52,0,3.24-.54,6.04-1.61,8.38-1.08,2.35-2.62,4.15-4.64,5.4-2.02,1.25-4.42,1.87-7.2,1.87s-5.17-.62-7.18-1.85c-2.01-1.23-3.55-3.02-4.62-5.35-1.08-2.34-1.61-5.15-1.61-8.45s.54-5.99,1.61-8.34,2.62-4.15,4.62-5.4c2.01-1.25,4.4-1.87,7.18-1.87,4.24,0,7.55,1.36,9.91,4.08ZM342.31,440.9c-.99,1.65-1.48,4.31-1.48,7.98s.5,6.34,1.5,8c1,1.66,2.51,2.49,4.51,2.49s3.59-.82,4.58-2.47c.99-1.65,1.48-4.32,1.48-8.02s-.5-6.36-1.51-8c-1-1.63-2.52-2.45-4.56-2.45s-3.55.83-4.54,2.47Z"/><path class="cls-1" d="M369.59,434v24.21h11.61l-.73,5.59h-17.93v-29.8h7.05Z"/><path class="cls-1" d="M389.67,434v24.21h11.61l-.73,5.59h-17.93v-29.8h7.05Z"/><path class="cls-1" d="M422.96,434l-.73,5.03h-10.49v7.14h9.16v4.95h-9.16v7.61h11.22v5.07h-18.28v-29.8h18.28Z"/><path class="cls-1" d="M444.43,434.08c1.45.54,2.82,1.36,4.11,2.45l-3.35,4c-.89-.69-1.76-1.2-2.62-1.55-.86-.34-1.78-.52-2.75-.52-2.01,0-3.59.85-4.75,2.54-1.16,1.69-1.74,4.3-1.74,7.83s.58,6.04,1.74,7.72,2.77,2.52,4.84,2.52c1.09,0,2.08-.21,2.97-.62.89-.42,1.85-1.01,2.88-1.78l3.14,4.04c-1.12,1.12-2.47,2.04-4.06,2.75s-3.35,1.08-5.27,1.08c-2.75,0-5.15-.6-7.18-1.81-2.04-1.2-3.62-2.99-4.75-5.35-1.13-2.36-1.7-5.21-1.7-8.54s.58-6.03,1.74-8.38,2.77-4.13,4.82-5.35c2.05-1.22,4.38-1.83,6.99-1.83,1.86,0,3.52.27,4.97.82Z"/><path class="cls-1" d="M472.4,434l-.69,5.42h-7.35v24.38h-7.05v-24.38h-7.7v-5.42h22.79Z"/><path class="cls-1" d="M482.29,434v29.8h-7.05v-29.8h7.05Z"/><path class="cls-1" d="M506.12,434l-.73,5.03h-10.49v7.14h9.16v4.95h-9.16v7.61h11.22v5.07h-18.28v-29.8h18.28Z"/><path class="cls-1" d="M510.46,463.8v-29.8h17.76l-.73,5.03h-9.98v7.91h8.69v5.03h-8.69v11.83h-7.05Z"/><path class="cls-4" d="M239.76,345.76S110.05,408.65,0,193.45C0,193.45,28.5,163.97,95.32,176.74c0,0,28.5,147.4,144.44,169.01Z"/><path class="cls-4" d="M274.15,333.96s-190.63-11.79-160.17-267.27c0,0,180.8,18.68,160.17,267.27Z"/><path class="cls-4" d="M324.26,345.76s129.71,62.89,239.77-152.31c0,0-28.5-29.48-95.32-16.71,0,0-28.49,147.4-144.45,169.01Z"/><path class="cls-5" d="M289.88,333.96s190.62-11.79,160.16-267.27c0,0-180.8,18.68-160.16,267.27Z"/><path class="cls-4" d="M282.01.85c-35.37,22.6-72.72,81.56-72.72,81.56,53.06,32.43,72.72,97.28,72.72,97.28,0,0,19.65-64.85,72.72-97.28,0,0-37.34-58.96-72.72-81.56Z"/><rect class="cls-2" x="26.88" y="841.49" width="500.34" height="49.7"/><path class="cls-1" d="M60.24,861.53h-2.18l-.57-7.38c-.24-2.89-.37-5.12-.4-6.67l-3.54,12.2h-2.11l-3.73-12.22c0,1.98-.1,4.26-.31,6.86l-.55,7.21h-2.14l1.35-16.35h3.04l3.44,11.89,3.28-11.89h3.06l1.35,16.35Z"/><path class="cls-1" d="M72.22,845.17l-.26,1.8h-6.34v5.34h5.51v1.8h-5.51v5.6h6.79v1.8h-9.04v-16.35h8.85Z"/><path class="cls-1" d="M84.21,845.17l-.26,1.8h-6.34v5.34h5.51v1.8h-5.51v5.6h6.79v1.8h-9.04v-16.35h8.85Z"/><path class="cls-1" d="M93.94,845.35c.77.31,1.53.79,2.25,1.44l-1.23,1.38c-.62-.49-1.22-.85-1.82-1.08-.59-.23-1.23-.34-1.91-.34-.85,0-1.56.2-2.11.59-.55.4-.83.97-.83,1.73,0,.47.09.87.29,1.2.19.32.54.62,1.06.89.51.27,1.26.55,2.24.85,1.03.32,1.88.66,2.56,1.02.68.36,1.23.87,1.65,1.51s.63,1.45.63,2.43-.23,1.79-.7,2.52-1.14,1.3-2.02,1.71c-.88.41-1.92.62-3.12.62-2.26,0-4.11-.7-5.55-2.11l1.23-1.38c.67.54,1.34.95,2.02,1.22.68.28,1.44.42,2.28.42,1.01,0,1.85-.25,2.52-.75.66-.5,1-1.22,1-2.17,0-.54-.1-.98-.31-1.34-.21-.36-.56-.68-1.06-.96-.5-.29-1.22-.57-2.17-.85-1.68-.51-2.9-1.12-3.68-1.83-.78-.71-1.16-1.68-1.16-2.9,0-.82.22-1.56.65-2.21.44-.65,1.04-1.15,1.83-1.52.78-.36,1.67-.55,2.67-.55,1.09,0,2.03.15,2.8.46Z"/><path class="cls-1" d="M108.46,845.17l-.24,1.92h-4.53v14.43h-2.25v-14.43h-4.65v-1.92h11.68Z"/><path class="cls-1" d="M126.62,845.17l-5.22,16.35h-2.42l-5.27-16.35h2.42l4.11,13.91,4.11-13.91h2.28Z"/><path class="cls-1" d="M137.27,845.17l-.26,1.8h-6.34v5.34h5.51v1.8h-5.51v5.6h6.79v1.8h-9.04v-16.35h8.85Z"/><path class="cls-1" d="M145.2,854.6h-2.54v6.93h-2.25v-16.35h4.3c2.04,0,3.59.39,4.64,1.16,1.05.78,1.58,1.93,1.58,3.46,0,1.14-.29,2.06-.88,2.78-.58.71-1.47,1.25-2.66,1.61l4.41,7.33h-2.68l-3.92-6.93ZM144.94,852.86c1.19,0,2.08-.24,2.68-.72.6-.48.9-1.26.9-2.34,0-1.01-.3-1.74-.91-2.2-.61-.45-1.59-.68-2.93-.68h-2.02v5.93h2.28Z"/><path class="cls-1" d="M165.51,861.53h-3.01l-6.64-13.88c.09,1.09.17,2.1.23,3.03.05.93.08,2.04.08,3.36v7.5h-2.11v-16.35h2.94l6.72,13.91c-.05-.41-.11-1.13-.19-2.16s-.12-1.97-.12-2.82v-8.92h2.11v16.35Z"/><path class="cls-1" d="M171.8,845.17v16.35h-2.25v-16.35h2.25Z"/><path class="cls-1" d="M184.69,845.17l-.26,1.8h-6.34v5.34h5.51v1.8h-5.51v5.6h6.79v1.8h-9.04v-16.35h8.85Z"/><path class="cls-1" d="M199.02,856.28c0,1.09-.23,2.05-.68,2.88-.45.83-1.11,1.48-1.97,1.95-.86.47-1.9.7-3.1.7-1.82,0-3.22-.5-4.21-1.51-.99-1-1.48-2.34-1.48-4.02v-11.11h2.25v10.94c0,1.27.28,2.22.85,2.85.57.63,1.43.95,2.59.95s2.04-.31,2.61-.94c.57-.62.85-1.58.85-2.86v-10.94h2.28v11.11Z"/><path class="cls-1" d="M219.46,845.17l-3.32,16.35h-2.9l-3.01-13.69-3.04,13.69h-2.82l-3.32-16.35h2.21l2.63,14.38,3.16-14.38h2.4l3.23,14.38,2.73-14.38h2.06Z"/><path class="cls-1" d="M230.56,845.17l-.26,1.8h-6.34v5.34h5.51v1.8h-5.51v5.6h6.79v1.8h-9.04v-16.35h8.85Z"/><path class="cls-1" d="M245.16,861.53h-3.01l-6.64-13.88c.09,1.09.17,2.1.23,3.03.05.93.08,2.04.08,3.36v7.5h-2.11v-16.35h2.94l6.72,13.91c-.05-.41-.11-1.13-.19-2.16s-.12-1.97-.12-2.82v-8.92h2.11v16.35Z"/><path class="cls-1" d="M258.55,846.9c1.5,1.15,2.24,3.27,2.24,6.37s-.75,5.15-2.24,6.4c-1.5,1.24-3.31,1.86-5.45,1.86h-3.92v-16.35h3.42c2.47,0,4.45.57,5.94,1.72ZM251.45,846.98v12.77h1.83c1.52,0,2.75-.47,3.7-1.4s1.42-2.63,1.42-5.08c0-1.72-.25-3.05-.74-3.97-.49-.93-1.12-1.54-1.88-1.85s-1.65-.46-2.68-.46h-1.66Z"/><path class="cls-1" d="M272.61,845.17l-.26,1.8h-6.34v5.34h5.51v1.8h-5.51v5.6h6.79v1.8h-9.04v-16.35h8.85Z"/><path class="cls-1" d="M290.69,846.9c1.5,1.15,2.24,3.27,2.24,6.37s-.75,5.15-2.24,6.4c-1.5,1.24-3.31,1.86-5.45,1.86h-3.92v-16.35h3.42c2.47,0,4.45.57,5.94,1.72ZM283.58,846.98v12.77h1.83c1.52,0,2.75-.47,3.7-1.4s1.42-2.63,1.42-5.08c0-1.72-.25-3.05-.74-3.97-.49-.93-1.12-1.54-1.88-1.85s-1.65-.46-2.68-.46h-1.66Z"/><path class="cls-1" d="M298.15,845.17v16.35h-2.25v-16.35h2.25Z"/><path class="cls-1" d="M311.04,845.17l-.26,1.8h-6.34v5.34h5.51v1.8h-5.51v5.6h6.79v1.8h-9.04v-16.35h8.85Z"/><path class="cls-1" d="M325.63,861.53h-3.01l-6.64-13.88c.09,1.09.17,2.1.23,3.03.05.93.08,2.04.08,3.36v7.5h-2.11v-16.35h2.94l6.72,13.91c-.05-.41-.11-1.13-.19-2.16s-.12-1.97-.12-2.82v-8.92h2.11v16.35Z"/><path class="cls-1" d="M336.5,845.35c.77.31,1.53.79,2.25,1.44l-1.23,1.38c-.62-.49-1.22-.85-1.82-1.08-.59-.23-1.23-.34-1.91-.34-.85,0-1.56.2-2.11.59-.55.4-.83.97-.83,1.73,0,.47.09.87.29,1.2.19.32.54.62,1.06.89.51.27,1.26.55,2.24.85,1.03.32,1.88.66,2.56,1.02.68.36,1.23.87,1.65,1.51s.63,1.45.63,2.43-.23,1.79-.7,2.52-1.14,1.3-2.02,1.71c-.88.41-1.92.62-3.12.62-2.26,0-4.11-.7-5.55-2.11l1.23-1.38c.67.54,1.34.95,2.02,1.22.68.28,1.44.42,2.28.42,1.01,0,1.85-.25,2.52-.75.66-.5,1-1.22,1-2.17,0-.54-.1-.98-.31-1.34-.21-.36-.56-.68-1.06-.96-.5-.29-1.22-.57-2.17-.85-1.68-.51-2.9-1.12-3.68-1.83-.78-.71-1.16-1.68-1.16-2.9,0-.82.22-1.56.65-2.21.44-.65,1.04-1.15,1.83-1.52.78-.36,1.67-.55,2.67-.55,1.09,0,2.03.15,2.8.46Z"/><path class="cls-1" d="M351.02,845.17l-.24,1.92h-4.53v14.43h-2.25v-14.43h-4.65v-1.92h11.68Z"/><path class="cls-1" d="M363.6,845.17l-5.22,16.35h-2.42l-5.27-16.35h2.42l4.11,13.91,4.11-13.91h2.28Z"/><path class="cls-1" d="M374.26,845.17l-.26,1.8h-6.34v5.34h5.51v1.8h-5.51v5.6h6.79v1.8h-9.04v-16.35h8.85Z"/><path class="cls-1" d="M382.18,854.6h-2.54v6.93h-2.25v-16.35h4.3c2.04,0,3.59.39,4.64,1.16,1.05.78,1.58,1.93,1.58,3.46,0,1.14-.29,2.06-.88,2.78-.58.71-1.47,1.25-2.66,1.61l4.41,7.33h-2.68l-3.92-6.93ZM381.92,852.86c1.19,0,2.08-.24,2.68-.72.6-.48.9-1.26.9-2.34,0-1.01-.3-1.74-.91-2.2-.61-.45-1.59-.68-2.93-.68h-2.02v5.93h2.28Z"/><path class="cls-1" d="M393.29,845.17v14.38h6.72l-.26,1.97h-8.71v-16.35h2.25Z"/><path class="cls-1" d="M410.99,845.17l-.26,1.8h-6.34v5.34h5.51v1.8h-5.51v5.6h6.79v1.8h-9.04v-16.35h8.85Z"/><path class="cls-1" d="M425.59,861.53h-3.01l-6.64-13.88c.09,1.09.17,2.1.23,3.03.05.93.08,2.04.08,3.36v7.5h-2.11v-16.35h2.94l6.72,13.91c-.05-.41-.11-1.13-.19-2.16s-.12-1.97-.12-2.82v-8.92h2.11v16.35Z"/><path class="cls-1" d="M431.88,845.17v16.35h-2.25v-16.35h2.25Z"/><path class="cls-1" d="M447.38,861.53h-3.01l-6.64-13.88c.09,1.09.17,2.1.23,3.03.05.93.08,2.04.08,3.36v7.5h-2.11v-16.35h2.94l6.72,13.91c-.05-.41-.11-1.13-.19-2.16s-.12-1.97-.12-2.82v-8.92h2.11v16.35Z"/><path class="cls-1" d="M460.11,845.33c.75.29,1.5.75,2.24,1.37l-1.33,1.38c-.58-.47-1.15-.81-1.68-1.02-.54-.21-1.17-.31-1.9-.31-.84,0-1.61.23-2.31.68s-1.28,1.17-1.72,2.16c-.44.99-.66,2.24-.66,3.76,0,2.29.38,3.97,1.13,5.03.75,1.06,1.86,1.59,3.33,1.59,1.2,0,2.24-.25,3.11-.74v-4.94h-2.9l-.26-1.83h5.39v7.9c-1.69.97-3.47,1.45-5.34,1.45-2.15,0-3.83-.72-5.04-2.16-1.21-1.44-1.82-3.54-1.82-6.31,0-1.77.32-3.29.96-4.57s1.5-2.24,2.59-2.9c1.08-.66,2.27-.98,3.55-.98,1.03,0,1.92.15,2.67.44Z"/><path class="cls-1" d="M479.96,861.53l-1.23-4.11h-6.19l-1.23,4.11h-2.28l5.24-16.35h2.85l5.22,16.35h-2.37ZM473.08,855.59h5.1l-2.54-8.54-2.56,8.54Z"/><path class="cls-1" d="M492.85,861.53l-1.23-4.11h-6.19l-1.23,4.11h-2.28l5.24-16.35h2.85l5.22,16.35h-2.37ZM485.96,855.59h5.1l-2.54-8.54-2.56,8.54Z"/><path class="cls-1" d="M508.49,861.53h-3.01l-6.64-13.88c.09,1.09.17,2.1.23,3.03.05.93.08,2.04.08,3.36v7.5h-2.11v-16.35h2.94l6.72,13.91c-.05-.41-.11-1.13-.19-2.16s-.12-1.97-.12-2.82v-8.92h2.11v16.35Z"/><path class="cls-1" d="M223.61,869.27c.67.25,1.36.66,2.05,1.23l-1.23,1.45c-1-.81-2.05-1.21-3.16-1.21-1.36,0-2.46.52-3.29,1.57-.83,1.04-1.25,2.72-1.25,5.03s.41,3.9,1.23,4.97c.82,1.07,1.91,1.6,3.27,1.6.7,0,1.31-.12,1.83-.36.52-.24,1.08-.57,1.66-1l1.12,1.42c-.51.52-1.16.96-1.95,1.31s-1.7.52-2.73.52c-1.33,0-2.51-.33-3.55-.99-1.04-.66-1.84-1.62-2.42-2.9-.58-1.27-.87-2.8-.87-4.59s.3-3.32.9-4.59,1.42-2.23,2.44-2.88c1.03-.65,2.17-.97,3.44-.97.98,0,1.81.13,2.48.38Z"/><path class="cls-1" d="M236.97,869.87c1.04.66,1.84,1.62,2.42,2.88.58,1.27.87,2.8.87,4.6s-.29,3.29-.87,4.56c-.58,1.27-1.38,2.23-2.42,2.9s-2.24,1-3.62,1-2.58-.32-3.62-.97c-1.04-.65-1.84-1.61-2.42-2.87-.58-1.27-.87-2.79-.87-4.58s.29-3.28.87-4.56c.58-1.28,1.39-2.26,2.43-2.93,1.04-.67,2.25-1.01,3.61-1.01s2.58.33,3.62.98ZM230.03,872.36c-.79,1.08-1.19,2.75-1.19,5.03s.4,3.92,1.2,4.98c.8,1.06,1.9,1.59,3.31,1.59,3.01,0,4.51-2.2,4.51-6.6s-1.5-6.62-4.51-6.62c-1.42,0-2.53.54-3.32,1.61Z"/><path class="cls-1" d="M254.69,885.53h-3.01l-6.64-13.88c.09,1.09.17,2.1.23,3.03.05.93.08,2.04.08,3.36v7.5h-2.11v-16.35h2.94l6.72,13.91c-.05-.41-.11-1.13-.19-2.16s-.12-1.97-.12-2.82v-8.92h2.11v16.35Z"/><path class="cls-1" d="M265.55,869.35c.77.31,1.53.79,2.25,1.44l-1.23,1.38c-.62-.49-1.22-.85-1.82-1.08-.59-.23-1.23-.34-1.91-.34-.85,0-1.56.2-2.11.59-.55.4-.83.97-.83,1.73,0,.47.09.87.29,1.2.19.32.54.62,1.06.89.51.27,1.26.55,2.24.85,1.03.32,1.88.66,2.56,1.02.68.36,1.23.87,1.65,1.51s.63,1.45.63,2.43-.23,1.79-.7,2.52-1.14,1.3-2.02,1.71c-.88.41-1.92.62-3.12.62-2.26,0-4.11-.7-5.55-2.11l1.23-1.38c.67.54,1.34.95,2.02,1.22.68.28,1.44.42,2.28.42,1.01,0,1.85-.25,2.52-.75.66-.5,1-1.22,1-2.17,0-.54-.1-.98-.31-1.34-.21-.36-.56-.68-1.06-.96-.5-.29-1.22-.57-2.17-.85-1.68-.51-2.9-1.12-3.68-1.83-.78-.71-1.16-1.68-1.16-2.9,0-.82.22-1.56.65-2.21.44-.65,1.04-1.15,1.83-1.52.78-.36,1.67-.55,2.67-.55,1.09,0,2.03.15,2.8.46Z"/><path class="cls-1" d="M282.14,880.28c0,1.09-.23,2.05-.68,2.88-.45.83-1.11,1.48-1.97,1.95-.86.47-1.9.7-3.1.7-1.82,0-3.22-.5-4.21-1.51-.99-1-1.48-2.34-1.48-4.02v-11.11h2.25v10.94c0,1.27.28,2.22.85,2.85.57.63,1.43.95,2.59.95s2.04-.31,2.61-.94c.57-.62.85-1.58.85-2.86v-10.94h2.28v11.11Z"/><path class="cls-1" d="M300.56,885.53h-2.18l-.57-7.38c-.24-2.89-.37-5.12-.4-6.67l-3.54,12.2h-2.11l-3.73-12.22c0,1.98-.1,4.26-.31,6.86l-.55,7.21h-2.14l1.35-16.35h3.04l3.44,11.89,3.28-11.89h3.06l1.35,16.35Z"/><path class="cls-1" d="M312.54,869.17l-.26,1.8h-6.34v5.34h5.51v1.8h-5.51v5.6h6.79v1.8h-9.04v-16.35h8.85Z"/><path class="cls-1" d="M327.14,885.53h-3.01l-6.64-13.88c.09,1.09.17,2.1.23,3.03.05.93.08,2.04.08,3.36v7.5h-2.11v-16.35h2.94l6.72,13.91c-.05-.41-.11-1.13-.19-2.16s-.12-1.97-.12-2.82v-8.92h2.11v16.35Z"/><path class="cls-1" d="M340.83,869.17l-.24,1.92h-4.53v14.43h-2.25v-14.43h-4.65v-1.92h11.68Z"/><rect class="cls-2" x="31.69" y="529.4" width="509.27" height="114.91"/><path class="cls-1" d="M130.9,538.42l-11.24,96.43h-31.91l-6.38-72.84-7.21,72.84h-31.36l-10.54-96.43h23.45l5.41,78.25,8.05-78.25h25.11l7.21,78.25,6.8-78.25h22.62Z"/><path class="cls-1" d="M161.14,538.42v96.43h-24.56v-96.43h24.56Z"/><path class="cls-1" d="M236.76,634.85h-29.97l-17.48-74.51.42,3.33c.83,6.38,1.5,12.47,2.01,18.25.51,5.78.76,12.14.76,19.08v33.85h-20.95v-96.43h29.83l17.62,74.78c-1.02-6.66-1.8-12.88-2.36-18.66-.56-5.78-.83-12.28-.83-19.49v-36.63h20.95v96.43Z"/><path class="cls-1" d="M312.23,634.85h-29.97l-17.48-74.51.42,3.33c.83,6.38,1.5,12.47,2.01,18.25.51,5.78.76,12.14.76,19.08v33.85h-20.95v-96.43h29.83l17.62,74.78c-1.02-6.66-1.8-12.88-2.36-18.66-.55-5.78-.83-12.28-.83-19.49v-36.63h20.95v96.43Z"/><path class="cls-1" d="M365.51,634.85l-3.33-20.12h-19.15l-3.19,20.12h-24.56l23.03-96.43h29.14l22.89,96.43h-24.83ZM345.95,597.25h13.46l-6.8-41.21-6.66,41.21Z"/><path class="cls-1" d="M436.41,634.85l-3.33-20.12h-19.15l-3.19,20.12h-24.56l23.03-96.43h29.14l22.89,96.43h-24.83ZM416.84,597.25h13.46l-6.8-41.21-6.66,41.21Z"/><path class="cls-1" d="M493.15,598.91h-4.3v35.94h-24.56v-96.43h27.61c24.42,0,36.63,9.94,36.63,29.83,0,5.55-1.11,10.61-3.33,15.19-2.22,4.58-5.74,8.21-10.54,10.89l19.29,40.51h-25.95l-14.85-35.94ZM488.85,582.12h3.47c4.07,0,6.96-1.09,8.67-3.26,1.71-2.17,2.57-5.71,2.57-10.61,0-4.35-.95-7.56-2.84-9.64-1.9-2.08-4.83-3.12-8.81-3.12h-3.05v26.64Z"/></g></svg>