<?xml version="1.0" encoding="UTF-8"?><svg id="Laag_1" xmlns="http://www.w3.org/2000/svg" viewBox="0 0 563.73 916.22"><defs><style>.cls-1{fill:#a29265;}.cls-2{fill:#fff;}.cls-3{fill:none;}.cls-4{fill:#4e4b42;}.cls-5{fill:#da2128;}</style></defs><g id="v_groenGrijs"><rect id="bg" class="cls-4" x=".28" y="276.67" width="563.44" height="639.55"/><rect class="cls-3" x="29.12" y="661.3" width="504.95" height="48.07"/><path class="cls-1" d="M59.12,665.63c2.19.85,4.25,2.11,6.21,3.78l-4.43,4.62c-1.54-1.21-2.99-2.08-4.34-2.62-1.35-.54-2.92-.81-4.71-.81-3.33,0-6.05,1.33-8.18,4-2.12,2.66-3.18,6.74-3.18,12.24s.84,9.88,2.53,12.42c1.69,2.54,4.25,3.81,7.71,3.81,2.62,0,4.91-.56,6.87-1.69v-11.24h-6.49l-.88-6.12h15.48v21.1c-4.66,2.83-9.61,4.25-14.86,4.25-6.16,0-10.87-1.91-14.14-5.74-3.27-3.83-4.9-9.43-4.9-16.79,0-4.7.88-8.75,2.65-12.14,1.77-3.39,4.15-5.96,7.15-7.71s6.33-2.62,9.99-2.62c2.83,0,5.34.43,7.52,1.28Z"/><path class="cls-1" d="M100.6,666.98c2.83,1.75,5,4.31,6.52,7.68,1.52,3.37,2.28,7.43,2.28,12.17s-.77,8.74-2.31,12.11c-1.54,3.37-3.73,5.95-6.55,7.74-2.83,1.79-6.16,2.68-9.99,2.68s-7.22-.87-10.05-2.62c-2.83-1.75-5.02-4.31-6.55-7.68-1.54-3.37-2.31-7.43-2.31-12.17s.77-8.69,2.31-12.08c1.54-3.39,3.73-5.98,6.59-7.77,2.85-1.79,6.19-2.68,10.02-2.68s7.22.87,10.05,2.62ZM82.93,674.56c-1.75,2.6-2.62,6.71-2.62,12.33,0,10.78,3.41,16.17,10.24,16.17,3.33,0,5.86-1.29,7.58-3.87,1.73-2.58,2.59-6.7,2.59-12.36s-.87-9.72-2.59-12.3c-1.73-2.58-4.26-3.87-7.58-3.87s-5.87,1.3-7.62,3.9Z"/><path class="cls-1" d="M148.61,694.32c0,2.91-.62,5.5-1.84,7.77-1.23,2.27-3.06,4.05-5.49,5.34-2.43,1.29-5.36,1.94-8.77,1.94-5.16,0-9.11-1.36-11.86-4.09-2.75-2.73-4.12-6.38-4.12-10.96v-29.03h8.24v28.59c0,3.04.63,5.31,1.9,6.8s3.21,2.25,5.84,2.25,4.63-.75,5.9-2.25,1.9-3.77,1.9-6.8v-28.59h8.3v29.03Z"/><path class="cls-1" d="M184.78,669.85c4.02,3.04,6.02,8.64,6.02,16.79s-1.98,13.62-5.93,16.89c-3.96,3.27-8.97,4.9-15.04,4.9h-11.74v-43.14h10.61c6.7,0,12.06,1.52,16.08,4.56ZM166.33,671.47v30.78h4.06c3.66,0,6.53-1.13,8.62-3.4,2.08-2.27,3.12-6.34,3.12-12.2,0-4.08-.53-7.23-1.59-9.46-1.06-2.23-2.46-3.73-4.18-4.53-1.73-.79-3.8-1.19-6.21-1.19h-3.81Z"/><path class="cls-1" d="M223.58,665.29l-.87,6.12h-15.92v12.05h13.86v6.12h-13.86v12.67h17.04v6.18h-25.28v-43.14h25.03Z"/><path class="cls-1" d="M263.47,708.43h-10.67l-14.79-34.9c.37,3.08.66,5.87.84,8.37s.28,5.47.28,8.93v17.6h-7.49v-43.14h10.43l15.04,34.96c-.25-1.66-.5-3.86-.75-6.59-.25-2.73-.38-5.44-.38-8.15v-20.23h7.49v43.14Z"/><path class="cls-1" d="M297.43,665.29v36.4h17.29l-.94,6.74h-24.6v-43.14h8.24Z"/><path class="cls-1" d="M344.69,666.98c2.83,1.75,5,4.31,6.52,7.68s2.28,7.43,2.28,12.17-.77,8.74-2.31,12.11-3.72,5.95-6.55,7.74-6.16,2.68-9.99,2.68-7.22-.87-10.05-2.62-5.02-4.31-6.55-7.68-2.31-7.43-2.31-12.17.77-8.69,2.31-12.08c1.54-3.39,3.74-5.98,6.59-7.77,2.85-1.79,6.19-2.68,10.02-2.68s7.22.87,10.05,2.62ZM327.02,674.56c-1.75,2.6-2.62,6.71-2.62,12.33,0,10.78,3.41,16.17,10.24,16.17,3.33,0,5.86-1.29,7.59-3.87,1.73-2.58,2.59-6.7,2.59-12.36s-.86-9.72-2.59-12.3c-1.73-2.58-4.26-3.87-7.59-3.87s-5.87,1.3-7.62,3.9Z"/><path class="cls-1" d="M386.76,665.29l-.88,6.56h-11.24v36.58h-8.3v-36.58h-11.61v-6.56h32.03Z"/><path class="cls-1" d="M423.59,694.32c0,2.91-.61,5.5-1.84,7.77-1.23,2.27-3.06,4.05-5.49,5.34-2.44,1.29-5.36,1.94-8.77,1.94-5.16,0-9.12-1.36-11.86-4.09-2.75-2.73-4.12-6.38-4.12-10.96v-29.03h8.24v28.59c0,3.04.63,5.31,1.9,6.8,1.27,1.5,3.21,2.25,5.84,2.25s4.63-.75,5.9-2.25,1.9-3.77,1.9-6.8v-28.59h8.3v29.03Z"/><path class="cls-1" d="M453.06,665.66c2.25.87,4.35,2.21,6.3,4l-4.06,4.68c-1.54-1.29-3.09-2.23-4.65-2.81-1.56-.58-3.24-.87-5.03-.87-2,0-3.61.45-4.84,1.34-1.23.9-1.84,2.15-1.84,3.78,0,1.08.24,1.98.72,2.68s1.34,1.37,2.59,2,3.1,1.31,5.56,2.06c4.25,1.33,7.44,2.99,9.58,4.96,2.14,1.98,3.21,4.86,3.21,8.65,0,2.58-.65,4.87-1.96,6.87-1.31,2-3.2,3.56-5.65,4.68s-5.37,1.69-8.74,1.69-6.23-.53-8.83-1.59c-2.6-1.06-4.84-2.51-6.71-4.34l4.24-4.74c1.66,1.42,3.39,2.49,5.18,3.21,1.79.73,3.77,1.09,5.93,1.09,2.37,0,4.29-.56,5.74-1.69,1.46-1.12,2.19-2.7,2.19-4.74,0-1.25-.25-2.28-.75-3.09s-1.35-1.54-2.56-2.19c-1.21-.64-2.96-1.32-5.24-2.03-4.58-1.42-7.89-3.12-9.93-5.12-2.04-2-3.06-4.62-3.06-7.87,0-2.37.62-4.45,1.87-6.24,1.25-1.79,2.99-3.18,5.21-4.18,2.23-1,4.75-1.5,7.59-1.5,3.04,0,5.68.44,7.93,1.31Z"/><rect class="cls-3" x="448.61" y="664.36" width="91.5" height="151.4"/><path class="cls-1" d="M532.2,688.9c-1.37,2.44-3.23,4.29-5.59,5.54-2.36,1.25-5.02,1.88-7.98,1.88-3.3,0-6.43-.57-9.38-1.71-2.96-1.14-6.33-3.04-10.11-5.71-3.78-2.67-8.77-6.62-14.97-11.86v20.3l-8.36-1.11v-30.37h7.76c7.05,5.63,12.5,9.79,16.33,12.5,3.84,2.7,7.09,4.58,9.77,5.63,2.67,1.05,5.46,1.58,8.36,1.58,2.61,0,4.59-.57,5.93-1.71,1.34-1.14,2-2.7,2-4.69,0-1.65-.44-3.11-1.32-4.39-.88-1.28-2.35-2.69-4.39-4.22l4.69-6.23c6.2,4.04,9.3,9.33,9.3,15.87,0,3.35-.68,6.25-2.05,8.7Z"/><path class="cls-1" d="M526.83,734.11c-4.95,2.96-12.4,4.43-22.35,4.43-19.96,0-29.94-5.83-29.94-17.49s9.98-17.66,29.94-17.66,29.77,5.89,29.77,17.66c0,5.74-2.47,10.09-7.42,13.05ZM524.4,717.09c-1.28-1-3.5-1.74-6.65-2.22-3.16-.48-7.58-.72-13.26-.72s-10.19.24-13.35.72c-3.16.48-5.37,1.22-6.65,2.22-1.28.99-1.92,2.32-1.92,3.97s.64,2.96,1.92,3.92c1.28.97,3.5,1.68,6.65,2.13,3.16.45,7.61.68,13.35.68s10.18-.23,13.31-.68c3.12-.46,5.33-1.17,6.61-2.13,1.28-.97,1.92-2.28,1.92-3.92s-.64-2.97-1.92-3.97Z"/><path class="cls-1" d="M532.2,766.27c-1.37,2.44-3.23,4.29-5.59,5.54-2.36,1.25-5.02,1.88-7.98,1.88-3.3,0-6.43-.57-9.38-1.71-2.96-1.14-6.33-3.04-10.11-5.71-3.78-2.67-8.77-6.62-14.97-11.86v20.3l-8.36-1.11v-30.37h7.76c7.05,5.63,12.5,9.79,16.33,12.5,3.84,2.7,7.09,4.58,9.77,5.63,2.67,1.05,5.46,1.58,8.36,1.58,2.61,0,4.59-.57,5.93-1.71,1.34-1.14,2-2.7,2-4.69,0-1.65-.44-3.11-1.32-4.39-.88-1.28-2.35-2.69-4.39-4.22l4.69-6.23c6.2,4.04,9.3,9.33,9.3,15.87,0,3.35-.68,6.25-2.05,8.7Z"/><path class="cls-1" d="M525.38,808.57v-17.4h-14.67c.74,1.25,1.28,2.44,1.62,3.58.34,1.14.51,2.36.51,3.67,0,3.98-1.61,7.22-4.82,9.72-3.21,2.5-7.72,3.75-13.52,3.75-3.92,0-7.39-.75-10.41-2.26-3.01-1.51-5.36-3.64-7.04-6.4-1.68-2.76-2.52-5.96-2.52-9.6,0-3.36.68-6.27,2.05-8.74,1.37-2.47,3.36-4.73,5.97-6.78l5.29,5.88c-1.76,1.48-3.06,2.91-3.88,4.31-.83,1.39-1.24,3.03-1.24,4.9,0,2.56.98,4.53,2.94,5.93,1.96,1.39,4.9,2.09,8.83,2.09s6.87-.6,8.49-1.79c1.62-1.19,2.43-2.87,2.43-5.03,0-1.02-.17-1.99-.51-2.9-.34-.91-.85-1.93-1.54-3.07v-7.17h29.85v28.57l-7.85-1.28Z"/><rect class="cls-3" x="29.12" y="710.54" width="438.05" height="101.38"/><path class="cls-1" d="M89.12,811.87l-5.77-21.47h-30.74l-5.77,21.47h-18.39l28.86-92.75h21.88l28.72,92.75h-18.79ZM56.1,776.97h23.62l-11.81-44.29-11.81,44.29Z"/><path class="cls-1" d="M217.56,719.12l-17.05,92.75h-23.08l-14.09-73.96-14.5,73.96h-22.41l-16.78-92.75h17.58l11.81,78.65,15.17-78.65h18.79l14.9,78.65,12.88-78.65h16.78Z"/><path class="cls-1" d="M279.7,811.87l-5.77-21.47h-30.74l-5.77,21.47h-18.39l28.86-92.75h21.88l28.72,92.75h-18.79ZM246.69,776.97h23.62l-11.81-44.29-11.81,44.29Z"/><path class="cls-1" d="M337.82,774.69h-11.28v37.18h-17.71v-92.75h27.65c24.52,0,36.78,9.08,36.78,27.25,0,6.17-1.52,11.27-4.56,15.3-3.04,4.03-7.78,7.29-14.23,9.8l24.29,40.4h-20.4l-20.54-37.18ZM326.54,761.94h11.01c5.64,0,9.91-1.23,12.82-3.69,2.91-2.46,4.36-6.42,4.36-11.88,0-5.01-1.5-8.66-4.5-10.94-3-2.28-7.72-3.42-14.16-3.42h-9.53v29.93Z"/><path class="cls-1" d="M448.21,728.92c8.63,6.53,12.95,18.57,12.95,36.1s-4.25,29.28-12.75,36.31c-8.5,7.03-19.28,10.54-32.35,10.54h-25.23v-92.75h22.82c14.4,0,25.92,3.27,34.56,9.8ZM408.55,732.41v66.17h8.72c7.87,0,14.05-2.44,18.52-7.31,4.47-4.88,6.71-13.62,6.71-26.24,0-8.77-1.14-15.55-3.42-20.33-2.28-4.79-5.28-8.03-8.99-9.73-3.71-1.7-8.17-2.55-13.36-2.55h-8.19Z"/><rect class="cls-3" x="31.84" y="375.8" width="500.34" height="131.02"/><path class="cls-2" d="M62.41,416.72h3v9.84h-30.3v-2.58l5.94-1.26-.78,1.08v-36.24l.78,1.08-5.94-1.08v-2.58l10.02-.3h19.56v9.48h-3l-1.08-6.6,1.02.78h-17.34l.9-.9v16.8l-.9-.9h16.02v3.6h-16.02l.9-1.02v17.88l-.9-.9h18.12l-1.08.9,1.08-7.08Z"/><path class="cls-2" d="M85.99,427.1c-2.68,0-5.05-.61-7.11-1.83-2.06-1.22-3.67-3.01-4.83-5.37-1.16-2.36-1.74-5.24-1.74-8.64s.6-6.48,1.8-9,2.9-4.47,5.1-5.85,4.78-2.07,7.74-2.07c2.8,0,5.11.59,6.93,1.77,1.82,1.18,3.18,2.81,4.08,4.89.9,2.08,1.35,4.46,1.35,7.14,0,.44-.02.88-.06,1.32-.04.44-.1.98-.18,1.62h-23.1v-3.42h18.9l-.54.36c.04-1.8-.18-3.46-.66-4.98-.48-1.52-1.3-2.74-2.46-3.66-1.16-.92-2.7-1.38-4.62-1.38-2.04,0-3.76.54-5.16,1.62-1.4,1.08-2.44,2.56-3.12,4.44-.68,1.88-1.02,4.06-1.02,6.54,0,2.64.38,4.91,1.14,6.81.76,1.9,1.87,3.37,3.33,4.41,1.46,1.04,3.25,1.56,5.37,1.56,1.48,0,3.1-.29,4.86-.87,1.76-.58,3.58-1.47,5.46-2.67l1.74,2.7c-2.24,1.52-4.48,2.66-6.72,3.42s-4.4,1.14-6.48,1.14Z"/><path class="cls-2" d="M104.53,426.56v-2.58l5.4-1.2-.72.9v-25.8l.72.9-5.4-1.14v-2.58l8.4-.42.66,5.88-.66-.24c2-2.04,4.09-3.54,6.27-4.5,2.18-.96,4.25-1.44,6.21-1.44,2.64,0,4.83.81,6.57,2.43s2.59,4.13,2.55,7.53v19.38l-.6-.84,5.28,1.14v2.58h-13.98v-2.58l5.22-1.14-.72.9v-18.42c0-2.48-.56-4.3-1.68-5.46-1.12-1.16-2.62-1.74-4.5-1.74-1.48,0-3.09.4-4.83,1.2-1.74.8-3.45,2.04-5.13,3.72l.42-.96v21.66l-.6-.84,5.1,1.08v2.58h-13.98Z"/><path class="cls-2" d="M163.21,423.5l-.54-.66,5.22,1.14v2.58h-14.22v-2.58l5.22-1.14-.48.66v-39.72l.48.54-5.22-1.08v-2.58l9.54-.42v43.26Z"/><path class="cls-2" d="M196.27,423.86l-.78-1.08,5.52,1.08v2.64l-8.4.36-.72-5.76.42.18c-1.76,1.92-3.66,3.37-5.7,4.35-2.04.98-4.02,1.47-5.94,1.47-2.32,0-4.28-.74-5.88-2.22-1.6-1.48-2.4-3.72-2.4-6.72,0-2.36.5-4.17,1.5-5.43,1-1.26,2.38-2.15,4.14-2.67,1.76-.52,3.8-.78,6.12-.78h7.86l-.54.6v-5.76c0-2.2-.58-3.77-1.74-4.71-1.16-.94-2.76-1.41-4.8-1.41-1.08,0-2.23.11-3.45.33-1.22.22-2.51.57-3.87,1.05l.72-.78-.6,5.46h-3.18l-.48-7.44c2.28-.76,4.42-1.33,6.42-1.71,2-.38,3.84-.57,5.52-.57,3.2,0,5.71.71,7.53,2.13,1.82,1.42,2.73,3.69,2.73,6.81v20.58ZM177.25,417.74c0,1.96.47,3.4,1.41,4.32.94.92,2.13,1.38,3.57,1.38s2.95-.43,4.65-1.29c1.7-.86,3.35-2.03,4.95-3.51l-.36,1.26v-8.04l.54.54h-7.14c-2.84,0-4.82.43-5.94,1.29-1.12.86-1.68,2.21-1.68,4.05Z"/><path class="cls-2" d="M204.43,426.56v-2.58l5.4-1.2-.72.9v-25.8l.72.9-5.4-1.14v-2.58l8.4-.42.66,5.88-.66-.24c2-2.04,4.09-3.54,6.27-4.5,2.18-.96,4.25-1.44,6.21-1.44,2.64,0,4.83.81,6.57,2.43s2.59,4.13,2.55,7.53v19.38l-.6-.84,5.28,1.14v2.58h-13.98v-2.58l5.22-1.14-.72.9v-18.42c0-2.48-.56-4.3-1.68-5.46-1.12-1.16-2.62-1.74-4.5-1.74-1.48,0-3.09.4-4.83,1.2-1.74.8-3.45,2.04-5.13,3.72l.42-.96v21.66l-.6-.84,5.1,1.08v2.58h-13.98Z"/><path class="cls-2" d="M255.96,440.9c-4.68,0-8.18-.68-10.5-2.04-2.32-1.36-3.48-3.32-3.48-5.88,0-1.8.6-3.4,1.8-4.8,1.2-1.4,2.96-2.62,5.28-3.66l.06.96c-1.28-.08-2.26-.35-2.94-.81-.68-.46-1.02-1.11-1.02-1.95,0-.32.04-.64.12-.96.08-.32.23-.77.45-1.35.22-.58.56-1.36,1.02-2.34.46-.98,1.05-2.27,1.77-3.87l.12.84c-1.72-.92-3.04-2.17-3.96-3.75-.92-1.58-1.38-3.45-1.38-5.61,0-3.48,1.15-6.24,3.45-8.28s5.47-3.06,9.51-3.06c2.72,0,5.06.48,7.02,1.44l-1.32-.3,9.42-.42.06,2.88-5.58,1.08.42-.72c.84.8,1.48,1.78,1.92,2.94.44,1.16.66,2.48.66,3.96,0,3.52-1.18,6.3-3.54,8.34s-5.5,3.06-9.42,3.06c-2.24,0-4.3-.38-6.18-1.14l1.08-.54-1.56,7.86-1.02-.6h11.76c3.84,0,6.76.75,8.76,2.25s3,3.65,3,6.45c0,3.24-1.33,5.72-3.99,7.44-2.66,1.72-6.59,2.58-11.79,2.58ZM256.38,437.24c3.64,0,6.34-.5,8.1-1.5,1.76-1,2.64-2.5,2.64-4.5,0-1.76-.66-3.09-1.98-3.99s-3.3-1.35-5.94-1.35h-9.54l1.38-.3c-3.2,2-4.8,4.16-4.8,6.48,0,1.72.83,3.01,2.49,3.87,1.66.86,4.21,1.29,7.65,1.29ZM255.9,413.24c2.56,0,4.56-.69,6-2.07,1.44-1.38,2.16-3.33,2.16-5.85s-.68-4.42-2.04-5.7c-1.36-1.28-3.3-1.92-5.82-1.92s-4.54.67-5.94,2.01c-1.4,1.34-2.1,3.29-2.1,5.85s.67,4.38,2.01,5.7c1.34,1.32,3.25,1.98,5.73,1.98Z"/><path class="cls-2" d="M290.22,427.1c-2.68,0-5.05-.61-7.11-1.83-2.06-1.22-3.67-3.01-4.83-5.37-1.16-2.36-1.74-5.24-1.74-8.64s.6-6.48,1.8-9,2.9-4.47,5.1-5.85,4.78-2.07,7.74-2.07c2.8,0,5.11.59,6.93,1.77,1.82,1.18,3.18,2.81,4.08,4.89.9,2.08,1.35,4.46,1.35,7.14,0,.44-.02.88-.06,1.32-.04.44-.1.98-.18,1.62h-23.1v-3.42h18.9l-.54.36c.04-1.8-.18-3.46-.66-4.98-.48-1.52-1.3-2.74-2.46-3.66-1.16-.92-2.7-1.38-4.62-1.38-2.04,0-3.76.54-5.16,1.62-1.4,1.08-2.44,2.56-3.12,4.44-.68,1.88-1.02,4.06-1.02,6.54,0,2.64.38,4.91,1.14,6.81.76,1.9,1.87,3.37,3.33,4.41,1.46,1.04,3.25,1.56,5.37,1.56,1.48,0,3.1-.29,4.86-.87,1.76-.58,3.58-1.47,5.46-2.67l1.74,2.7c-2.24,1.52-4.48,2.66-6.72,3.42s-4.4,1.14-6.48,1.14Z"/><path class="cls-2" d="M333.48,427.1c-1.44,0-2.97-.1-4.59-.3-1.62-.2-3.33-.5-5.13-.9v-42.84l.96,1.38-5.64-1.2v-2.58l9.48-.42v19.74l-.66-.72c1.68-1.6,3.42-2.82,5.22-3.66s3.6-1.26,5.4-1.26c2.24,0,4.25.62,6.03,1.86,1.78,1.24,3.19,3.04,4.23,5.4,1.04,2.36,1.56,5.26,1.56,8.7,0,2.6-.33,4.94-.99,7.02-.66,2.08-1.67,3.84-3.03,5.28s-3.1,2.55-5.22,3.33c-2.12.78-4.66,1.17-7.62,1.17ZM334.38,423.56c3.56,0,6.28-1.1,8.16-3.3,1.88-2.2,2.82-5.4,2.82-9.6,0-2.64-.37-4.9-1.11-6.78-.74-1.88-1.75-3.33-3.03-4.35-1.28-1.02-2.74-1.53-4.38-1.53-1.4,0-2.85.37-4.35,1.11-1.5.74-3.01,1.87-4.53,3.39l.6-1.74v23.16l-.66-1.32c2.44.64,4.6.96,6.48.96Z"/><path class="cls-2" d="M369.78,427.1c-2.68,0-5.05-.61-7.11-1.83-2.06-1.22-3.67-3.01-4.83-5.37-1.16-2.36-1.74-5.24-1.74-8.64s.6-6.48,1.8-9,2.9-4.47,5.1-5.85,4.78-2.07,7.74-2.07c2.8,0,5.11.59,6.93,1.77,1.82,1.18,3.18,2.81,4.08,4.89.9,2.08,1.35,4.46,1.35,7.14,0,.44-.02.88-.06,1.32-.04.44-.1.98-.18,1.62h-23.1v-3.42h18.9l-.54.36c.04-1.8-.18-3.46-.66-4.98-.48-1.52-1.3-2.74-2.46-3.66-1.16-.92-2.7-1.38-4.62-1.38-2.04,0-3.76.54-5.16,1.62-1.4,1.08-2.44,2.56-3.12,4.44-.68,1.88-1.02,4.06-1.02,6.54,0,2.64.38,4.91,1.14,6.81.76,1.9,1.87,3.37,3.33,4.41,1.46,1.04,3.25,1.56,5.37,1.56,1.48,0,3.1-.29,4.86-.87,1.76-.58,3.58-1.47,5.46-2.67l1.74,2.7c-2.24,1.52-4.48,2.66-6.72,3.42s-4.4,1.14-6.48,1.14Z"/><path class="cls-2" d="M400.74,427.1c-2.2,0-4.2-.61-6-1.83-1.8-1.22-3.22-3.02-4.26-5.4-1.04-2.38-1.56-5.27-1.56-8.67,0-5.56,1.42-9.76,4.26-12.6,2.84-2.84,6.74-4.26,11.7-4.26,1.04,0,2.13.08,3.27.24,1.14.16,2.31.4,3.51.72l-.96.54v-12.06l.54.66-5.52-1.2v-2.58l9.78-.42v43.38l-.72-.84,5.4,1.08v2.64l-8.4.36-.72-5.16.6.24c-1.8,1.72-3.61,3.01-5.43,3.87-1.82.86-3.65,1.29-5.49,1.29ZM402.42,423.44c1.4,0,2.85-.37,4.35-1.11,1.5-.74,3.01-1.85,4.53-3.33l-.6,1.62v-22.74l.66,1.2c-2.44-.8-4.66-1.2-6.66-1.2-3.52,0-6.2,1.14-8.04,3.42-1.84,2.28-2.76,5.44-2.76,9.48,0,2.64.37,4.91,1.11,6.81.74,1.9,1.76,3.35,3.06,4.35,1.3,1,2.75,1.5,4.35,1.5Z"/><path class="cls-2" d="M423.9,426.56v-2.58l5.28-1.14-.6.9v-25.86l.66.9-5.34-1.14v-2.58l8.4-.42.66,5.88-.66-.24c1.8-1.88,3.56-3.34,5.28-4.38,1.72-1.04,3.6-1.56,5.64-1.56,1.28,0,2.62.2,4.02.6l-.36,8.76h-3l-.72-6.3.54,1.08c-.28-.08-.58-.14-.9-.18-.32-.04-.64-.06-.96-.06-1.6,0-3.15.48-4.65,1.44s-2.93,2.2-4.29,3.72l.48-1.44v21.78l-.72-.9,6.54,1.14v2.58h-15.3Z"/><path class="cls-2" d="M459.9,423.5l-.54-.66,5.22,1.14v2.58h-14.16v-2.58l5.22-1.14-.54.66v-25.32l.48.54-5.16-1.08v-2.58l9.48-.36v28.8ZM457.14,388.22c-.92,0-1.68-.3-2.28-.9-.6-.6-.9-1.42-.9-2.46s.31-1.91.93-2.49c.62-.58,1.39-.87,2.31-.87s1.74.28,2.34.84c.6.56.9,1.4.9,2.52s-.32,1.91-.96,2.49c-.64.58-1.42.87-2.34.87Z"/><path class="cls-2" d="M466.56,440.9c-.48,0-.96-.02-1.44-.06-.48-.04-1-.1-1.56-.18l.42-3.54c.4.04.78.07,1.14.09.36.02.68.03.96.03,2.2,0,3.76-.54,4.68-1.62.92-1.08,1.38-2.92,1.38-5.52v-32.1l.66.78-5.34-1.14v-2.58l9.48-.36v33.84c0,2.04-.19,3.83-.57,5.37-.38,1.54-.99,2.82-1.83,3.84s-1.92,1.8-3.24,2.34c-1.32.54-2.9.81-4.74.81ZM474.06,388.22c-.92,0-1.68-.3-2.28-.9-.6-.6-.9-1.42-.9-2.46s.31-1.91.93-2.49c.62-.58,1.39-.87,2.31-.87s1.74.28,2.34.84c.6.56.9,1.4.9,2.52s-.32,1.91-.96,2.49c-.64.58-1.42.87-2.34.87Z"/><path class="cls-2" d="M484.62,426.56v-2.58l5.28-1.14-.6.72v-25.74l.6.66h-5.4v-2.64l5.52-.78-.72.9v-5.04c0-3.76.97-6.53,2.91-8.31,1.94-1.78,4.49-2.67,7.65-2.67,1.04,0,2.1.09,3.18.27,1.08.18,2.22.47,3.42.87l-.78,3.3c-.92-.28-1.8-.5-2.64-.66-.84-.16-1.66-.24-2.46-.24-1.96,0-3.53.56-4.71,1.68-1.18,1.12-1.77,2.9-1.77,5.34v5.46l-.78-.84h9.18l-.12,3.36h-8.88l.6-.66v25.68l-.6-.66,6.3,1.14v2.58h-15.18Z"/><path class="cls-2" d="M511.5,402.56c0,1.28.42,2.28,1.26,3,.84.72,1.92,1.31,3.24,1.77,1.32.46,2.72.91,4.2,1.35,1.48.44,2.88.98,4.2,1.62,1.32.64,2.4,1.52,3.24,2.64.84,1.12,1.26,2.6,1.26,4.44,0,2.12-.58,3.9-1.74,5.34s-2.73,2.53-4.71,3.27c-1.98.74-4.19,1.11-6.63,1.11-1.48,0-3-.12-4.56-.36-1.56-.24-3.16-.58-4.8-1.02l.42-8.04h3.06l.6,5.88-.54-.66c.92.24,1.92.44,3,.6,1.08.16,2.08.24,3,.24,1.44,0,2.77-.21,3.99-.63,1.22-.42,2.21-1.04,2.97-1.86.76-.82,1.14-1.85,1.14-3.09,0-1.32-.41-2.36-1.23-3.12-.82-.76-1.89-1.38-3.21-1.86s-2.71-.93-4.17-1.35-2.85-.96-4.17-1.62c-1.32-.66-2.4-1.53-3.24-2.61s-1.26-2.56-1.26-4.44c0-2.04.53-3.71,1.59-5.01,1.06-1.3,2.46-2.26,4.2-2.88,1.74-.62,3.61-.93,5.61-.93,1.36,0,2.86.14,4.5.42,1.64.28,3.32.7,5.04,1.26l-.3,6.78h-3.06l-.9-4.98.72.84c-2.08-.6-4.04-.9-5.88-.9-1.96,0-3.59.41-4.89,1.23-1.3.82-1.95,2.01-1.95,3.57Z"/><path class="cls-2" d="M54.4,492.48v-2.58l5.4-1.2-.72.9v-25.8l.72.9-5.4-1.14v-2.58l8.4-.42.66,5.88-.66-.24c2-2.04,4.09-3.54,6.27-4.5,2.18-.96,4.25-1.44,6.21-1.44,2.64,0,4.83.81,6.57,2.43s2.59,4.13,2.55,7.53v19.38l-.6-.84,5.28,1.14v2.58h-13.98v-2.58l5.22-1.14-.72.9v-18.42c0-2.48-.56-4.3-1.68-5.46-1.12-1.16-2.62-1.74-4.5-1.74-1.48,0-3.09.4-4.83,1.2-1.74.8-3.45,2.04-5.13,3.72l.42-.96v21.66l-.6-.84,5.1,1.08v2.58h-13.98Z"/><path class="cls-2" d="M117.04,489.78l-.78-1.08,5.52,1.08v2.64l-8.4.36-.72-5.76.42.18c-1.76,1.92-3.66,3.37-5.7,4.35-2.04.98-4.02,1.47-5.94,1.47-2.32,0-4.28-.74-5.88-2.22-1.6-1.48-2.4-3.72-2.4-6.72,0-2.36.5-4.17,1.5-5.43,1-1.26,2.38-2.15,4.14-2.67,1.76-.52,3.8-.78,6.12-.78h7.86l-.54.6v-5.76c0-2.2-.58-3.77-1.74-4.71-1.16-.94-2.76-1.41-4.8-1.41-1.08,0-2.23.11-3.45.33-1.22.22-2.51.57-3.87,1.05l.72-.78-.6,5.46h-3.18l-.48-7.44c2.28-.76,4.42-1.33,6.42-1.71,2-.38,3.84-.57,5.52-.57,3.2,0,5.71.71,7.53,2.13,1.82,1.42,2.73,3.69,2.73,6.81v20.58ZM98.02,483.66c0,1.96.47,3.4,1.41,4.32.94.92,2.13,1.38,3.57,1.38s2.95-.43,4.65-1.29c1.7-.86,3.35-2.03,4.95-3.51l-.36,1.26v-8.04l.54.54h-7.14c-2.84,0-4.82.43-5.94,1.29-1.12.86-1.68,2.21-1.68,4.05Z"/><path class="cls-2" d="M149.86,489.78l-.78-1.08,5.52,1.08v2.64l-8.4.36-.72-5.76.42.18c-1.76,1.92-3.66,3.37-5.7,4.35-2.04.98-4.02,1.47-5.94,1.47-2.32,0-4.28-.74-5.88-2.22-1.6-1.48-2.4-3.72-2.4-6.72,0-2.36.5-4.17,1.5-5.43,1-1.26,2.38-2.15,4.14-2.67,1.76-.52,3.8-.78,6.12-.78h7.86l-.54.6v-5.76c0-2.2-.58-3.77-1.74-4.71-1.16-.94-2.76-1.41-4.8-1.41-1.08,0-2.23.11-3.45.33-1.22.22-2.51.57-3.87,1.05l.72-.78-.6,5.46h-3.18l-.48-7.44c2.28-.76,4.42-1.33,6.42-1.71,2-.38,3.84-.57,5.52-.57,3.2,0,5.71.71,7.53,2.13,1.82,1.42,2.73,3.69,2.73,6.81v20.58ZM130.84,483.66c0,1.96.47,3.4,1.41,4.32.94.92,2.13,1.38,3.57,1.38s2.95-.43,4.65-1.29c1.7-.86,3.35-2.03,4.95-3.51l-.36,1.26v-8.04l.54.54h-7.14c-2.84,0-4.82.43-5.94,1.29-1.12.86-1.68,2.21-1.68,4.05Z"/><path class="cls-2" d="M186.88,466.26l-.66.12c1.96-2.04,4.04-3.57,6.24-4.59,2.2-1.02,4.26-1.53,6.18-1.53,2.44,0,4.49.81,6.15,2.43,1.66,1.62,2.49,4.11,2.49,7.47v19.44l-.6-.84,5.28,1.14v2.58h-13.92v-2.58l5.1-1.14-.66.9v-18.42c0-2.48-.53-4.3-1.59-5.46-1.06-1.16-2.43-1.74-4.11-1.74-1.44,0-3.03.42-4.77,1.26-1.74.84-3.45,2.12-5.13,3.84l.42-1.14c.04.36.07.7.09,1.02.02.32.03.64.03.96v19.62l-.6-.84,4.98,1.14v2.58h-13.56v-2.58l5.1-1.14-.72.9v-18.42c0-2.48-.53-4.3-1.59-5.46-1.06-1.16-2.43-1.74-4.11-1.74-1.44,0-3.02.4-4.74,1.2-1.72.8-3.42,2.04-5.1,3.72l.42-.9v21.6l-.6-.84,4.98,1.08v2.58h-13.86v-2.58l5.4-1.2-.72.9v-25.8l.72.9-5.4-1.14v-2.58l8.4-.42.66,5.88-.66-.24c1.96-2.04,4.03-3.54,6.21-4.5,2.18-.96,4.25-1.44,6.21-1.44,1.84,0,3.48.49,4.92,1.47,1.44.98,2.48,2.49,3.12,4.53Z"/><path class="cls-2" d="M242.61,460.26c4.4,0,7.85,1.38,10.35,4.14,2.5,2.76,3.75,6.66,3.75,11.7,0,3.4-.61,6.37-1.83,8.91-1.22,2.54-2.95,4.51-5.19,5.91-2.24,1.4-4.94,2.1-8.1,2.1-4.32,0-7.7-1.35-10.14-4.05-2.44-2.7-3.66-6.59-3.66-11.67,0-3.52.59-6.55,1.77-9.09,1.18-2.54,2.88-4.5,5.1-5.88s4.87-2.07,7.95-2.07ZM242.38,463.8c-3.08,0-5.44,1.16-7.08,3.48-1.64,2.32-2.46,5.58-2.46,9.78s.78,7.22,2.34,9.3c1.56,2.08,3.8,3.12,6.72,3.12,2.12,0,3.91-.53,5.37-1.59,1.46-1.06,2.56-2.57,3.3-4.53.74-1.96,1.11-4.3,1.11-7.02,0-4.08-.81-7.19-2.43-9.33-1.62-2.14-3.91-3.21-6.87-3.21Z"/><path class="cls-2" d="M261.1,506.28v-2.58l5.46-1.26-.78.9v-39.42l.72.78-5.4-1.14v-2.58l8.4-.42.6,5.22-.54-.36c1.84-1.72,3.68-3.01,5.52-3.87,1.84-.86,3.66-1.29,5.46-1.29,2.24,0,4.25.62,6.03,1.86,1.78,1.24,3.19,3.03,4.23,5.37,1.04,2.34,1.56,5.21,1.56,8.61,0,3.68-.63,6.78-1.89,9.3s-3.03,4.43-5.31,5.73c-2.28,1.3-4.96,1.95-8.04,1.95-1.12,0-2.28-.1-3.48-.3-1.2-.2-2.46-.46-3.78-.78l.72-.66v12l-.66-.84,6.18,1.2v2.58h-15ZM276.58,489.48c3.52,0,6.2-1.14,8.04-3.42,1.84-2.28,2.76-5.44,2.76-9.48,0-2.64-.37-4.9-1.11-6.78-.74-1.88-1.75-3.33-3.03-4.35-1.28-1.02-2.74-1.53-4.38-1.53-1.4,0-2.85.37-4.35,1.11-1.5.74-3.01,1.87-4.53,3.39l.6-1.5v22.5l-.66-1.08c2.44.76,4.66,1.14,6.66,1.14Z"/><path class="cls-2" d="M309.82,492.48v-4.26c4.72-4.28,8.65-8.02,11.79-11.22,3.14-3.2,5.48-6.06,7.02-8.58,1.54-2.52,2.31-4.92,2.31-7.2,0-2.52-.84-4.38-2.52-5.58-1.68-1.2-3.8-1.8-6.36-1.8-1.16,0-2.45.14-3.87.42-1.42.28-2.87.66-4.35,1.14l.66-.96-.84,7.26h-3.06l-.54-9.36c2.28-.72,4.51-1.28,6.69-1.68,2.18-.4,4.19-.6,6.03-.6,2.6,0,4.9.37,6.9,1.11,2,.74,3.58,1.88,4.74,3.42,1.16,1.54,1.74,3.53,1.74,5.97,0,2.76-.78,5.53-2.34,8.31-1.56,2.78-3.87,5.79-6.93,9.03-3.06,3.24-6.85,6.98-11.37,11.22l-.06-.66h21.72v4.02h-27.36Z"/><path class="cls-2" d="M362.86,489.42l-.54-.66,5.22,1.14v2.58h-14.22v-2.58l5.22-1.14-.48.66v-39.72l.48.54-5.22-1.08v-2.58l9.54-.42v43.26Z"/><path class="cls-2" d="M380.73,489.42l-.54-.66,5.22,1.14v2.58h-14.16v-2.58l5.22-1.14-.54.66v-25.32l.48.54-5.16-1.08v-2.58l9.48-.36v28.8ZM377.97,454.14c-.92,0-1.68-.3-2.28-.9-.6-.6-.9-1.42-.9-2.46s.31-1.91.93-2.49c.62-.58,1.39-.87,2.31-.87s1.74.28,2.34.84c.6.56.9,1.4.9,2.52s-.32,1.91-.96,2.49c-.64.58-1.42.87-2.34.87Z"/><path class="cls-2" d="M387.39,506.82c-.48,0-.96-.02-1.44-.06-.48-.04-1-.1-1.56-.18l.42-3.54c.4.04.78.07,1.14.09.36.02.68.03.96.03,2.2,0,3.76-.54,4.68-1.62s1.38-2.92,1.38-5.52v-32.1l.66.78-5.34-1.14v-2.58l9.48-.36v33.84c0,2.04-.19,3.83-.57,5.37-.38,1.54-.99,2.82-1.83,3.84-.84,1.02-1.92,1.8-3.24,2.34-1.32.54-2.9.81-4.74.81ZM394.89,454.14c-.92,0-1.68-.3-2.28-.9-.6-.6-.9-1.42-.9-2.46s.31-1.91.93-2.49c.62-.58,1.39-.87,2.31-.87s1.74.28,2.34.84c.6.56.9,1.4.9,2.52s-.32,1.91-.96,2.49c-.64.58-1.42.87-2.34.87Z"/><path class="cls-2" d="M405.39,492.48v-2.58l5.4-1.2-.72.9v-25.8l.72.9-5.4-1.14v-2.58l8.4-.42.66,5.88-.66-.24c2-2.04,4.09-3.54,6.27-4.5,2.18-.96,4.25-1.44,6.21-1.44,2.64,0,4.83.81,6.57,2.43s2.59,4.13,2.55,7.53v19.38l-.6-.84,5.28,1.14v2.58h-13.98v-2.58l5.22-1.14-.72.9v-18.42c0-2.48-.56-4.3-1.68-5.46-1.12-1.16-2.62-1.74-4.5-1.74-1.48,0-3.09.4-4.83,1.2-1.74.8-3.45,2.04-5.13,3.72l.42-.96v21.66l-.6-.84,5.1,1.08v2.58h-13.98Z"/><path class="cls-2" d="M457.65,493.02c-2.68,0-5.05-.61-7.11-1.83-2.06-1.22-3.67-3.01-4.83-5.37-1.16-2.36-1.74-5.24-1.74-8.64s.6-6.48,1.8-9,2.9-4.47,5.1-5.85,4.78-2.07,7.74-2.07c2.8,0,5.11.59,6.93,1.77,1.82,1.18,3.18,2.81,4.08,4.89.9,2.08,1.35,4.46,1.35,7.14,0,.44-.02.88-.06,1.32-.04.44-.1.98-.18,1.62h-23.1v-3.42h18.9l-.54.36c.04-1.8-.18-3.46-.66-4.98-.48-1.52-1.3-2.74-2.46-3.66-1.16-.92-2.7-1.38-4.62-1.38-2.04,0-3.76.54-5.16,1.62-1.4,1.08-2.44,2.56-3.12,4.44-.68,1.88-1.02,4.06-1.02,6.54,0,2.64.38,4.91,1.14,6.81.76,1.9,1.87,3.37,3.33,4.41,1.46,1.04,3.25,1.56,5.37,1.56,1.48,0,3.1-.29,4.86-.87,1.76-.58,3.58-1.47,5.46-2.67l1.74,2.7c-2.24,1.52-4.48,2.66-6.72,3.42s-4.4,1.14-6.48,1.14Z"/><path class="cls-2" d="M476.19,492.48v-2.58l5.4-1.2-.72.9v-25.8l.72.9-5.4-1.14v-2.58l8.4-.42.66,5.88-.66-.24c2-2.04,4.09-3.54,6.27-4.5,2.18-.96,4.25-1.44,6.21-1.44,2.64,0,4.83.81,6.57,2.43s2.59,4.13,2.55,7.53v19.38l-.6-.84,5.28,1.14v2.58h-13.98v-2.58l5.22-1.14-.72.9v-18.42c0-2.48-.56-4.3-1.68-5.46-1.12-1.16-2.62-1.74-4.5-1.74-1.48,0-3.09.4-4.83,1.2-1.74.8-3.45,2.04-5.13,3.72l.42-.96v21.66l-.6-.84,5.1,1.08v2.58h-13.98Z"/><path class="cls-5" d="M239.76,345.76S110.05,408.65,0,193.45C0,193.45,28.5,163.97,95.32,176.74c0,0,28.5,147.4,144.44,169.01Z"/><path class="cls-5" d="M274.15,333.96s-190.63-11.79-160.17-267.27c0,0,180.8,18.68,160.17,267.27Z"/><path class="cls-5" d="M324.26,345.76s129.71,62.89,239.77-152.31c0,0-28.5-29.48-95.32-16.71,0,0-28.49,147.4-144.45,169.01Z"/><path class="cls-1" d="M289.88,333.96s190.62-11.79,160.16-267.27c0,0-180.8,18.68-160.16,267.27Z"/><path class="cls-5" d="M282.01.85c-35.37,22.6-72.72,81.56-72.72,81.56,53.06,32.43,72.72,97.28,72.72,97.28,0,0,19.65-64.85,72.72-97.28,0,0-37.34-58.96-72.72-81.56Z"/><rect class="cls-3" x="26.88" y="841.49" width="500.34" height="49.7"/><path class="cls-2" d="M56.34,846.02l-2.37.55.31-.52v14.43l-.31-.43,2.37.5v1.02h-5.91v-1.02l2.42-.5-.38.43v-13.31l.31.02-5.39,10.06-1.3.09-5.22-10.2.28-.02v13.36l-.28-.4,2.35.47v1.02h-5.72v-1.02l2.37-.5-.33.43v-14.43l.33.52-2.37-.43v-1.02l4.44-.12,5.15,10.42h-.29l5.32-10.3,4.22-.12v1.02Z"/><path class="cls-2" d="M68.73,857.67h1.19v3.89h-11.98v-1.02l2.35-.5-.31.43v-14.33l.31.43-2.35-.43v-1.02l3.96-.12h7.74v3.75h-1.19l-.43-2.61.4.31h-6.86l.36-.36v6.64l-.36-.36h6.34v1.42h-6.34l.36-.4v7.07l-.36-.36h7.17l-.43.36.43-2.8Z"/><path class="cls-2" d="M82.75,857.67h1.19v3.89h-11.98v-1.02l2.35-.5-.31.43v-14.33l.31.43-2.35-.43v-1.02l3.96-.12h7.74v3.75h-1.19l-.43-2.61.4.31h-6.86l.36-.36v6.64l-.36-.36h6.34v1.42h-6.34l.36-.4v7.07l-.36-.36h7.17l-.43.36.43-2.8Z"/><path class="cls-2" d="M88.59,849.03c0,.6.16,1.09.47,1.47.32.38.74.69,1.27.94.53.25,1.11.46,1.74.65.63.19,1.27.4,1.9.63s1.21.51,1.73.85c.52.34.95.78,1.27,1.33.32.54.49,1.23.49,2.05,0,1.11-.28,2.02-.84,2.73-.56.71-1.31,1.24-2.24,1.58s-1.96.51-3.06.51c-.79,0-1.6-.08-2.42-.25-.82-.17-1.63-.42-2.42-.75l.14-3.89h1.16l.4,3.04-.24-.4c.55.25,1.13.44,1.73.57.6.13,1.19.19,1.76.19.74,0,1.42-.12,2.04-.34.62-.23,1.12-.57,1.5-1.02.38-.45.57-1.02.57-1.7,0-.63-.16-1.14-.49-1.53-.32-.39-.75-.71-1.27-.96-.52-.25-1.1-.47-1.73-.66-.63-.19-1.27-.39-1.9-.61s-1.21-.49-1.73-.82-.95-.76-1.27-1.29c-.32-.53-.49-1.21-.49-2.03,0-1.01.25-1.86.75-2.53.5-.67,1.18-1.17,2.04-1.51.86-.33,1.82-.5,2.88-.5.74,0,1.52.08,2.33.24s1.6.4,2.37.74l-.19,3.73h-1.19l-.36-2.85.29.28c-.47-.21-.99-.36-1.54-.47-.55-.11-1.11-.17-1.66-.17-.65,0-1.27.09-1.85.27-.59.18-1.06.47-1.41.88-.36.4-.54.94-.54,1.6Z"/><path class="cls-2" d="M101.19,861.56v-1.02l2.75-.5-.38.52v-14.48l.43.36h-4.58l.47-.4-.47,3.01h-1.19v-4.06h12.6v4.06h-1.19l-.47-2.97.47.36h-4.58l.43-.36v14.48l-.36-.52,2.73.5v1.02h-6.67Z"/><path class="cls-2" d="M121.86,861.59l-5.17-15.4.52.38-2.3-.43v-1.02l6.27-.12v1.02l-2.59.5.24-.5,4.37,13.83h-.31l4.67-13.72.19.4-2.54-.4v-1.02l5.93-.12v1.02l-2.3.5.5-.38-5.44,15.45h-2.04Z"/><path class="cls-2" d="M141.89,857.67h1.19v3.89h-11.98v-1.02l2.35-.5-.31.43v-14.33l.31.43-2.35-.43v-1.02l3.96-.12h7.74v3.75h-1.19l-.43-2.61.4.31h-6.86l.36-.36v6.64l-.36-.36h6.34v1.42h-6.34l.36-.4v7.07l-.36-.36h7.17l-.43.36.43-2.8Z"/><path class="cls-2" d="M145.12,861.56v-1.02l2.35-.5-.31.43v-14.33l.4.45-2.45-.45v-1.02l4.06-.12h2.78c1.79,0,3.14.37,4.06,1.12.92.74,1.38,1.82,1.38,3.23,0,1.3-.41,2.36-1.22,3.18-.81.82-2.05,1.32-3.71,1.5l-.02-.24c.62.06,1.12.2,1.51.42.39.21.72.5.98.85.27.36.53.79.78,1.32l1.99,4.03-.59-.4,1.99.55v1.02h-2.92l-2.18-4.67c-.3-.68-.59-1.21-.87-1.58-.28-.37-.62-.64-1.02-.79-.4-.16-.98-.24-1.72-.24l-1.64.02.36-.33v6.5l-.31-.43,2.75.5v1.02h-6.43ZM149.11,853.4l-.36-.52h2.25c1.41,0,2.49-.29,3.25-.87s1.14-1.43,1.14-2.55c0-.98-.31-1.73-.93-2.24-.62-.51-1.53-.77-2.75-.77h-2.97l.36-.36v7.31Z"/><path class="cls-2" d="M171.03,845.12l5.77-.12v1.02l-2.37.55.31-.45v15.45h-2.18l-9.11-14.5.29-.02v13.43l-.36-.43,2.4.5v1.02h-5.74v-1.02l2.4-.5-.36.43v-14.36l.26.43-2.3-.4v-1.02l4.37-.12,8.99,14.26-.28.02v-13.17l.33.43-2.4-.4v-1.02Z"/><path class="cls-2" d="M184.16,846.02l-2.33.52.26-.33v14.19l-.26-.33,2.33.47v1.02h-6.05v-1.02l2.3-.47-.26.33v-14.19l.31.36-2.35-.43v-1.02l6.05-.12v1.02Z"/><path class="cls-2" d="M196.54,857.67h1.19v3.89h-11.98v-1.02l2.35-.5-.31.43v-14.33l.31.43-2.35-.43v-1.02l3.96-.12h7.74v3.75h-1.19l-.43-2.61.4.31h-6.86l.36-.36v6.64l-.36-.36h6.34v1.42h-6.34l.36-.4v7.07l-.36-.36h7.17l-.43.36.43-2.8Z"/><path class="cls-2" d="M209.67,845.12l6.05-.12v1.02l-2.35.52.29-.5v9.25c0,.59-.05,1.19-.14,1.8-.1.62-.27,1.2-.52,1.76-.25.55-.61,1.05-1.07,1.5-.46.44-1.06.79-1.79,1.04-.73.25-1.64.38-2.72.38-1.2,0-2.19-.15-2.97-.45s-1.38-.7-1.8-1.2c-.43-.5-.73-1.03-.9-1.59s-.29-1.1-.33-1.63-.07-.97-.07-1.35v-9.52l.28.5-2.32-.4v-1.02l6.05-.12v1.02l-2.33.52.26-.5v9.52c0,.4.02.81.05,1.25.03.43.12.86.25,1.27s.35.78.65,1.1.71.58,1.22.78c.51.2,1.17.3,1.98.3s1.5-.1,2.03-.31c.53-.21.95-.48,1.26-.83.31-.35.54-.74.68-1.17.14-.43.23-.88.26-1.33s.05-.89.05-1.32v-9.25l.24.47-2.28-.38v-1.02Z"/><path class="cls-2" d="M233.61,845.12l5.84-.12v1.02l-2.28.5.5-.52-4.41,15.59h-1.88l-4.15-14.19.36.02-4.39,14.17h-1.88l-4.08-15.47.26.38-2.11-.36v-1.02l6.05-.12v1.02l-2.49.5.29-.4,3.39,13.67h-.4l4.41-14.69,1.78-.09,4.22,14.74h-.4l3.7-13.6.21.38-2.54-.38v-1.02Z"/><path class="cls-2" d="M250.22,857.67h1.19v3.89h-11.98v-1.02l2.35-.5-.31.43v-14.33l.31.43-2.35-.43v-1.02l3.96-.12h7.74v3.75h-1.19l-.43-2.61.4.31h-6.86l.36-.36v6.64l-.36-.36h6.34v1.42h-6.34l.36-.4v7.07l-.36-.36h7.17l-.43.36.43-2.8Z"/><path class="cls-2" d="M264.46,845.12l5.77-.12v1.02l-2.37.55.31-.45v15.45h-2.18l-9.11-14.5.29-.02v13.43l-.36-.43,2.4.5v1.02h-5.74v-1.02l2.4-.5-.36.43v-14.36l.26.43-2.3-.4v-1.02l4.37-.12,8.99,14.26-.28.02v-13.17l.33.43-2.4-.4v-1.02Z"/><path class="cls-2" d="M278.61,845c1.06,0,2.04.16,2.93.49.89.32,1.67.82,2.34,1.47.67.66,1.19,1.49,1.57,2.49.38,1,.57,2.2.57,3.57,0,1.87-.34,3.43-1.01,4.7-.67,1.27-1.6,2.22-2.77,2.87s-2.51.97-4.01.97h-6.69v-1.02l2.37-.5-.33.43v-14.33l.33.45-2.37-.45v-1.02l4.46-.12h2.61ZM278.3,860.12c.73,0,1.42-.12,2.09-.36.67-.24,1.27-.62,1.8-1.15.54-.53.96-1.24,1.27-2.14.31-.89.46-1.99.46-3.29s-.15-2.35-.45-3.22-.71-1.55-1.21-2.06c-.51-.51-1.08-.89-1.71-1.12-.63-.23-1.3-.34-1.99-.34h-3.39l.36-.36v14.38l-.36-.36h3.13Z"/><path class="cls-2" d="M298.66,857.67h1.19v3.89h-11.98v-1.02l2.35-.5-.31.43v-14.33l.31.43-2.35-.43v-1.02l3.96-.12h7.74v3.75h-1.19l-.43-2.61.4.31h-6.86l.36-.36v6.64l-.36-.36h6.34v1.42h-6.34l.36-.4v7.07l-.36-.36h7.17l-.43.36.43-2.8Z"/><path class="cls-2" d="M312.99,845c1.06,0,2.04.16,2.93.49.89.32,1.67.82,2.34,1.47.67.66,1.19,1.49,1.57,2.49.38,1,.57,2.2.57,3.57,0,1.87-.34,3.43-1.01,4.7-.67,1.27-1.6,2.22-2.77,2.87s-2.51.97-4.01.97h-6.69v-1.02l2.37-.5-.33.43v-14.33l.33.45-2.37-.45v-1.02l4.46-.12h2.61ZM312.69,860.12c.73,0,1.42-.12,2.09-.36.67-.24,1.27-.62,1.8-1.15.54-.53.96-1.24,1.27-2.14.31-.89.46-1.99.46-3.29s-.15-2.35-.45-3.22-.71-1.55-1.21-2.06c-.51-.51-1.08-.89-1.71-1.12-.63-.23-1.3-.34-1.99-.34h-3.39l.36-.36v14.38l-.36-.36h3.13Z"/><path class="cls-2" d="M328.3,846.02l-2.33.52.26-.33v14.19l-.26-.33,2.33.47v1.02h-6.05v-1.02l2.3-.47-.26.33v-14.19l.31.36-2.35-.43v-1.02l6.05-.12v1.02Z"/><path class="cls-2" d="M340.69,857.67h1.19v3.89h-11.98v-1.02l2.35-.5-.31.43v-14.33l.31.43-2.35-.43v-1.02l3.96-.12h7.74v3.75h-1.19l-.43-2.61.4.31h-6.86l.36-.36v6.64l-.36-.36h6.34v1.42h-6.34l.36-.4v7.07l-.36-.36h7.17l-.43.36.43-2.8Z"/><path class="cls-2" d="M354.93,845.12l5.77-.12v1.02l-2.37.55.31-.45v15.45h-2.18l-9.11-14.5.29-.02v13.43l-.36-.43,2.4.5v1.02h-5.74v-1.02l2.4-.5-.36.43v-14.36l.26.43-2.3-.4v-1.02l4.37-.12,8.99,14.26-.29.02v-13.17l.33.43-2.4-.4v-1.02Z"/><path class="cls-2" d="M364.18,849.03c0,.6.16,1.09.47,1.47.32.38.74.69,1.27.94.53.25,1.11.46,1.74.65.63.19,1.27.4,1.9.63s1.21.51,1.73.85c.52.34.95.78,1.27,1.33.32.54.49,1.23.49,2.05,0,1.11-.28,2.02-.84,2.73-.56.71-1.31,1.24-2.24,1.58s-1.96.51-3.06.51c-.79,0-1.6-.08-2.42-.25-.82-.17-1.63-.42-2.42-.75l.14-3.89h1.16l.4,3.04-.24-.4c.55.25,1.13.44,1.73.57.6.13,1.19.19,1.76.19.74,0,1.42-.12,2.04-.34.62-.23,1.12-.57,1.5-1.02.38-.45.57-1.02.57-1.7,0-.63-.16-1.14-.49-1.53-.32-.39-.75-.71-1.27-.96-.52-.25-1.1-.47-1.73-.66-.63-.19-1.27-.39-1.9-.61s-1.21-.49-1.73-.82-.95-.76-1.27-1.29c-.32-.53-.49-1.21-.49-2.03,0-1.01.25-1.86.75-2.53.5-.67,1.18-1.17,2.04-1.51.86-.33,1.82-.5,2.88-.5.74,0,1.52.08,2.33.24s1.6.4,2.37.74l-.19,3.73h-1.19l-.36-2.85.29.28c-.47-.21-.99-.36-1.54-.47-.55-.11-1.11-.17-1.66-.17-.65,0-1.27.09-1.85.27-.59.18-1.06.47-1.41.88-.36.4-.54.94-.54,1.6Z"/><path class="cls-2" d="M376.78,861.56v-1.02l2.75-.5-.38.52v-14.48l.43.36h-4.58l.47-.4-.47,3.01h-1.19v-4.06h12.6v4.06h-1.19l-.47-2.97.47.36h-4.58l.43-.36v14.48l-.36-.52,2.73.5v1.02h-6.67Z"/><path class="cls-2" d="M393.02,861.59l-5.17-15.4.52.38-2.3-.43v-1.02l6.26-.12v1.02l-2.59.5.24-.5,4.37,13.83h-.31l4.68-13.72.19.4-2.54-.4v-1.02l5.93-.12v1.02l-2.3.5.5-.38-5.43,15.45h-2.04Z"/><path class="cls-2" d="M413.05,857.67h1.19v3.89h-11.98v-1.02l2.35-.5-.31.43v-14.33l.31.43-2.35-.43v-1.02l3.96-.12h7.74v3.75h-1.19l-.43-2.61.4.31h-6.86l.36-.36v6.64l-.36-.36h6.34v1.42h-6.34l.36-.4v7.07l-.36-.36h7.17l-.43.36.43-2.8Z"/><path class="cls-2" d="M416.27,861.56v-1.02l2.35-.5-.31.43v-14.33l.4.45-2.45-.45v-1.02l4.06-.12h2.78c1.79,0,3.14.37,4.06,1.12.92.74,1.38,1.82,1.38,3.23,0,1.3-.41,2.36-1.22,3.18-.81.82-2.05,1.32-3.71,1.5l-.02-.24c.62.06,1.12.2,1.51.42.39.21.72.5.98.85.27.36.53.79.78,1.32l1.99,4.03-.59-.4,1.99.55v1.02h-2.92l-2.18-4.67c-.3-.68-.59-1.21-.87-1.58-.28-.37-.62-.64-1.02-.79-.4-.16-.98-.24-1.72-.24l-1.64.02.36-.33v6.5l-.31-.43,2.75.5v1.02h-6.43ZM420.26,853.4l-.36-.52h2.25c1.41,0,2.49-.29,3.25-.87s1.14-1.43,1.14-2.55c0-.98-.31-1.73-.93-2.24-.62-.51-1.53-.77-2.75-.77h-2.97l.36-.36v7.31Z"/><path class="cls-2" d="M441.31,857.34h1.19v4.22h-11.32v-1.02l2.32-.47-.28.4v-14.33l.28.43-2.32-.43v-1.02l6.31-.12v1.02l-2.59.55.26-.43v14.33l-.36-.36h6.38l-.33.36.45-3.13Z"/><path class="cls-2" d="M454.39,857.67h1.19v3.89h-11.98v-1.02l2.35-.5-.31.43v-14.33l.31.43-2.35-.43v-1.02l3.96-.12h7.74v3.75h-1.19l-.43-2.61.4.31h-6.86l.36-.36v6.64l-.36-.36h6.34v1.42h-6.34l.36-.4v7.07l-.36-.36h7.17l-.43.36.43-2.8Z"/><path class="cls-2" d="M468.62,845.12l5.77-.12v1.02l-2.37.55.31-.45v15.45h-2.18l-9.11-14.5.29-.02v13.43l-.36-.43,2.4.5v1.02h-5.74v-1.02l2.4-.5-.36.43v-14.36l.26.43-2.3-.4v-1.02l4.37-.12,8.99,14.26-.29.02v-13.17l.33.43-2.4-.4v-1.02Z"/><path class="cls-2" d="M481.75,846.02l-2.33.52.26-.33v14.19l-.26-.33,2.33.47v1.02h-6.05v-1.02l2.3-.47-.26.33v-14.19l.31.36-2.35-.43v-1.02l6.05-.12v1.02Z"/><path class="cls-2" d="M494.35,845.12l5.77-.12v1.02l-2.37.55.31-.45v15.45h-2.18l-9.11-14.5.29-.02v13.43l-.36-.43,2.4.5v1.02h-5.74v-1.02l2.4-.5-.36.43v-14.36l.26.43-2.3-.4v-1.02l4.37-.12,8.99,14.26-.29.02v-13.17l.33.43-2.4-.4v-1.02Z"/><path class="cls-2" d="M509.27,861.75c-1.53,0-2.87-.31-4.01-.94s-2.02-1.56-2.65-2.8-.94-2.76-.94-4.57.32-3.4.95-4.69c.63-1.29,1.54-2.27,2.72-2.95,1.18-.68,2.57-1.02,4.19-1.02.86,0,1.75.1,2.69.3s1.89.5,2.86.91l-.17,3.7h-1.19l-.4-2.92.31.33c-.66-.24-1.35-.43-2.06-.57-.71-.14-1.38-.21-2.02-.21-1.19,0-2.21.28-3.08.83-.87.55-1.54,1.36-2.01,2.41-.47,1.05-.7,2.33-.7,3.83,0,2.18.51,3.87,1.52,5.04,1.01,1.18,2.42,1.77,4.22,1.77.6,0,1.23-.07,1.89-.2.66-.13,1.34-.34,2.05-.6l-.26.45v-5.13l.36.36-2.42-.31v-1.07l5.86-.12v1.07l-2.23.45.26-.38v5.77c-1.03.43-2.03.74-2.99.95-.96.21-1.88.31-2.75.31Z"/><path class="cls-2" d="M192.76,884.52l-.54-.47,2.23.5v1.02h-6.17v-1.02l2.47-.47-.19.33-1.26-3.8.36.29h-7.26l.33-.29-1.35,3.75-.12-.26,2.42.45v1.02h-5.84v-1.02l2.18-.5-.5.43,5.79-15.45,1.97-.07,5.48,15.57ZM182.98,879.77l-.19-.31h6.48l-.21.33-3.11-9.66.45.02-3.42,9.61Z"/><path class="cls-2" d="M208.94,884.52l-.54-.47,2.23.5v1.02h-6.17v-1.02l2.47-.47-.19.33-1.26-3.8.36.29h-7.26l.33-.29-1.35,3.75-.12-.26,2.42.45v1.02h-5.84v-1.02l2.18-.5-.5.43,5.79-15.45,1.97-.07,5.48,15.57ZM199.17,879.77l-.19-.31h6.48l-.21.33-3.11-9.66.45.02-3.42,9.61Z"/><path class="cls-2" d="M221.5,869.12l5.77-.12v1.02l-2.37.55.31-.45v15.45h-2.18l-9.11-14.5.29-.02v13.43l-.36-.43,2.4.5v1.02h-5.74v-1.02l2.4-.5-.36.43v-14.36l.26.43-2.3-.4v-1.02l4.37-.12,8.99,14.26-.29.02v-13.17l.33.43-2.4-.4v-1.02Z"/><path class="cls-2" d="M239.75,885.78c-1.27,0-2.42-.32-3.46-.97-1.04-.65-1.87-1.6-2.48-2.85-.61-1.25-.91-2.78-.91-4.6s.31-3.32.93-4.6c.62-1.28,1.48-2.26,2.59-2.94,1.11-.68,2.4-1.02,3.87-1.02.79,0,1.61.09,2.47.29.86.19,1.74.49,2.66.9l-.17,3.73h-1.16l-.43-2.94.36.38c-.63-.27-1.27-.47-1.91-.61-.64-.13-1.24-.2-1.79-.2-1.09,0-2.03.27-2.82.82s-1.4,1.33-1.84,2.34-.65,2.22-.65,3.63c0,1.52.23,2.8.69,3.84.46,1.04,1.09,1.84,1.89,2.38.8.55,1.7.82,2.69.82.73,0,1.49-.16,2.29-.47s1.57-.8,2.31-1.45l.78,1.16c-.93.81-1.91,1.4-2.92,1.79-1.01.39-2,.58-2.97.58Z"/><path class="cls-2" d="M254.01,885.78c-1.36,0-2.58-.31-3.67-.93s-1.94-1.55-2.56-2.79-.94-2.78-.94-4.62c0-1.44.19-2.7.58-3.79.39-1.08.93-1.99,1.63-2.72.7-.73,1.5-1.27,2.41-1.62.91-.36,1.89-.53,2.93-.53s1.96.17,2.85.51c.88.34,1.66.85,2.33,1.54.66.69,1.18,1.55,1.55,2.58.37,1.03.56,2.22.56,3.58,0,1.87-.34,3.45-1.01,4.76-.67,1.3-1.59,2.3-2.74,2.99-1.15.69-2.46,1.03-3.92,1.03ZM254.13,884.23c.98,0,1.89-.25,2.72-.75.83-.5,1.5-1.27,1.99-2.31.5-1.04.75-2.4.75-4.06s-.23-2.87-.7-3.87c-.47-1-1.1-1.73-1.9-2.21s-1.7-.71-2.69-.71-1.86.24-2.67.72-1.47,1.24-1.96,2.28-.74,2.38-.74,4.05.23,2.88.7,3.89c.47,1.01,1.09,1.76,1.88,2.24s1.66.72,2.62.72Z"/><path class="cls-2" d="M274.56,869.12l5.77-.12v1.02l-2.37.55.31-.45v15.45h-2.18l-9.11-14.5.29-.02v13.43l-.36-.43,2.4.5v1.02h-5.74v-1.02l2.4-.5-.36.43v-14.36l.26.43-2.3-.4v-1.02l4.37-.12,8.99,14.26-.28.02v-13.17l.33.43-2.4-.4v-1.02Z"/><path class="cls-2" d="M283.82,873.03c0,.6.16,1.09.47,1.47.32.38.74.69,1.27.94.53.25,1.11.46,1.74.65.63.19,1.27.4,1.9.63s1.21.51,1.73.85c.52.34.95.78,1.27,1.33.32.54.49,1.23.49,2.05,0,1.11-.28,2.02-.84,2.73-.56.71-1.31,1.24-2.24,1.58s-1.96.51-3.06.51c-.79,0-1.6-.08-2.42-.25-.82-.17-1.63-.42-2.42-.75l.14-3.89h1.16l.4,3.04-.24-.4c.55.25,1.13.44,1.73.57.6.13,1.19.19,1.76.19.74,0,1.42-.12,2.04-.34.62-.23,1.12-.57,1.5-1.02.38-.45.57-1.02.57-1.7,0-.63-.16-1.14-.49-1.53-.32-.39-.75-.71-1.27-.96-.52-.25-1.1-.47-1.73-.66-.63-.19-1.27-.39-1.9-.61s-1.21-.49-1.73-.82-.95-.76-1.27-1.29c-.32-.53-.49-1.21-.49-2.03,0-1.01.25-1.86.75-2.53.5-.67,1.18-1.17,2.04-1.51.86-.33,1.82-.5,2.88-.5.74,0,1.52.08,2.33.24s1.6.4,2.37.74l-.19,3.73h-1.19l-.36-2.85.29.28c-.47-.21-.99-.36-1.54-.47-.55-.11-1.11-.17-1.66-.17-.65,0-1.27.09-1.85.27-.59.18-1.06.47-1.41.88-.36.4-.54.94-.54,1.6Z"/><path class="cls-2" d="M304.63,869.12l6.05-.12v1.02l-2.35.52.29-.5v9.25c0,.59-.05,1.19-.14,1.8-.1.62-.27,1.2-.52,1.76-.25.55-.61,1.05-1.07,1.5-.46.44-1.06.79-1.79,1.04-.73.25-1.64.38-2.72.38-1.2,0-2.19-.15-2.97-.45s-1.38-.7-1.8-1.2c-.43-.5-.73-1.03-.9-1.59s-.29-1.1-.33-1.63-.07-.97-.07-1.35v-9.52l.28.5-2.32-.4v-1.02l6.05-.12v1.02l-2.33.52.26-.5v9.52c0,.4.02.81.05,1.25.03.43.12.86.25,1.27s.35.78.65,1.1.71.58,1.22.78c.51.2,1.17.3,1.98.3s1.5-.1,2.03-.31c.53-.21.95-.48,1.26-.83.31-.35.54-.74.68-1.17.14-.43.23-.88.26-1.33s.05-.89.05-1.32v-9.25l.24.47-2.28-.38v-1.02Z"/><path class="cls-2" d="M330.47,870.02l-2.37.55.31-.52v14.43l-.31-.43,2.37.5v1.02h-5.91v-1.02l2.42-.5-.38.43v-13.31l.31.02-5.39,10.06-1.3.09-5.22-10.2.29-.02v13.36l-.29-.4,2.35.47v1.02h-5.72v-1.02l2.37-.5-.33.43v-14.43l.33.52-2.37-.43v-1.02l4.44-.12,5.15,10.42h-.28l5.31-10.3,4.22-.12v1.02Z"/><path class="cls-2" d="M342.86,881.67h1.19v3.89h-11.98v-1.02l2.35-.5-.31.43v-14.33l.31.43-2.35-.43v-1.02l3.96-.12h7.74v3.75h-1.19l-.43-2.61.4.31h-6.86l.36-.36v6.64l-.36-.36h6.34v1.42h-6.34l.36-.4v7.07l-.36-.36h7.17l-.43.36.43-2.8Z"/><path class="cls-2" d="M357.1,869.12l5.77-.12v1.02l-2.37.55.31-.45v15.45h-2.18l-9.11-14.5.29-.02v13.43l-.36-.43,2.4.5v1.02h-5.74v-1.02l2.4-.5-.36.43v-14.36l.26.43-2.3-.4v-1.02l4.37-.12,8.99,14.26-.29.02v-13.17l.33.43-2.4-.4v-1.02Z"/><path class="cls-2" d="M366.09,885.56v-1.02l2.75-.5-.38.52v-14.48l.43.36h-4.58l.47-.4-.47,3.01h-1.19v-4.06h12.6v4.06h-1.19l-.47-2.97.47.36h-4.58l.43-.36v14.48l-.36-.52,2.73.5v1.02h-6.67Z"/><rect class="cls-3" x="31.69" y="529.4" width="509.27" height="114.91"/><path class="cls-2" d="M130.9,538.42l-11.24,96.43h-31.91l-6.38-72.84-7.21,72.84h-31.36l-10.54-96.43h23.45l5.41,78.25,8.05-78.25h25.11l7.21,78.25,6.8-78.25h22.62Z"/><path class="cls-2" d="M161.14,538.42v96.43h-24.56v-96.43h24.56Z"/><path class="cls-2" d="M236.76,634.85h-29.97l-17.48-74.51.42,3.33c.83,6.38,1.5,12.47,2.01,18.25.51,5.78.76,12.14.76,19.08v33.85h-20.95v-96.43h29.83l17.62,74.78c-1.02-6.66-1.8-12.88-2.36-18.66-.55-5.78-.83-12.28-.83-19.49v-36.63h20.95v96.43Z"/><path class="cls-2" d="M312.23,634.85h-29.97l-17.48-74.51.42,3.33c.83,6.38,1.5,12.47,2.01,18.25.51,5.78.76,12.14.76,19.08v33.85h-20.95v-96.43h29.83l17.62,74.78c-1.02-6.66-1.8-12.88-2.36-18.66-.55-5.78-.83-12.28-.83-19.49v-36.63h20.95v96.43Z"/><path class="cls-2" d="M365.51,634.85l-3.33-20.12h-19.15l-3.19,20.12h-24.56l23.03-96.43h29.14l22.89,96.43h-24.83ZM345.95,597.25h13.46l-6.8-41.21-6.66,41.21Z"/><path class="cls-2" d="M436.41,634.85l-3.33-20.12h-19.15l-3.19,20.12h-24.56l23.03-96.43h29.14l22.89,96.43h-24.83ZM416.84,597.25h13.46l-6.8-41.21-6.66,41.21Z"/><path class="cls-2" d="M493.15,598.91h-4.3v35.94h-24.56v-96.43h27.61c24.42,0,36.63,9.94,36.63,29.83,0,5.55-1.11,10.61-3.33,15.19-2.22,4.58-5.74,8.21-10.54,10.89l19.29,40.51h-25.95l-14.85-35.94ZM488.85,582.12h3.47c4.07,0,6.96-1.09,8.67-3.26,1.71-2.17,2.57-5.71,2.57-10.61,0-4.35-.95-7.56-2.85-9.64-1.9-2.08-4.83-3.12-8.81-3.12h-3.05v26.64Z"/></g></svg>