<?xml version="1.0" encoding="UTF-8"?><svg id="Laag_1" xmlns="http://www.w3.org/2000/svg" xmlns:xlink="http://www.w3.org/1999/xlink" viewBox="0 0 683.47 902.99"><defs><style>.cls-1{fill:#fff;}.cls-2{fill:none;}.cls-3{fill:#da2128;}.cls-4{fill:#d5af34;}.cls-5{fill:#d5af30;}.cls-6{fill:url(#linear-gradient);}</style><linearGradient id="linear-gradient" x1="421.89" y1="221.66" x2="333.42" y2="464.08" gradientUnits="userSpaceOnUse"><stop offset="0" stop-color="#99dbf9"/><stop offset="1" stop-color="#2e94d1"/></linearGradient></defs><g id="v_blauw_1"><path class="cls-6" d="M341.73,898c-30.1,0-59.44-8.55-84.84-24.72-44.11-28.09-107.48-72.03-158.85-121.83-56.95-55.2-87.94-106.22-92.13-151.63-5.05-54.85,11.96-112.3,28.42-167.86,23.39-78.99,47.58-160.67,9.89-237.76-4.09-8.36-4.39-18.13-.83-26.8,3.59-8.74,10.75-15.53,19.63-18.64,42.93-15.01,91.65-26.16,140.89-32.24,41.2-5.09,83.86-7.68,126.79-7.68,3.65,0,7.32.02,10.97.06h.1c3.66-.04,7.32-.06,10.97-.06,42.93,0,85.59,2.58,126.79,7.68,49.24,6.09,97.96,17.24,140.89,32.24,8.88,3.11,16.04,9.9,19.63,18.64,3.56,8.67,3.26,18.44-.83,26.8-37.69,77.08-13.5,158.76,9.89,237.76,16.45,55.56,33.46,113.01,28.42,167.86-4.18,45.41-35.18,96.43-92.13,151.63-51.37,49.79-114.74,93.73-158.85,121.83-25.4,16.17-54.74,24.72-84.84,24.72Z"/><path class="cls-5" d="M352.76,113.84c42.73,0,85.18,2.57,126.18,7.64,48.89,6.05,97.25,17.11,139.85,32,7.54,2.63,13.61,8.4,16.66,15.82,3.02,7.35,2.77,15.62-.69,22.7-38.54,78.83-14.08,161.46,9.59,241.37,16.32,55.11,33.19,112.09,28.23,165.98-4.07,44.19-34.56,94.15-90.63,148.5-51.07,49.5-114.14,93.23-158.06,121.2-24.6,15.66-53,23.94-82.16,23.94s-57.56-8.28-82.16-23.94c-43.92-27.97-106.99-71.7-158.06-121.2-56.07-54.35-86.56-104.31-90.63-148.5-4.96-53.89,11.91-110.87,28.23-165.98,23.66-79.91,48.13-162.54,9.59-241.37-3.46-7.08-3.71-15.35-.69-22.7,3.05-7.42,9.12-13.18,16.66-15.82,42.6-14.89,90.96-25.96,139.85-32,41-5.07,83.46-7.64,126.18-7.64,3.62,0,7.3.02,10.92.06h.1s.1,0,.1,0c3.63-.04,7.3-.06,10.92-.06M352.76,103.84c-3.67,0-7.34.02-11.02.06-3.67-.04-7.35-.06-11.02-.06-42.98,0-85.68,2.56-127.41,7.72-47.06,5.82-96.21,16.51-141.93,32.49-21.36,7.47-31.59,32.02-21.65,52.35C102.92,325.63-11.38,466.47.94,600.27c9.7,105.32,155.54,214.99,253.27,277.22,26.7,17,57.11,25.51,87.53,25.51s60.82-8.5,87.53-25.51c97.73-62.23,243.57-171.9,253.27-277.22,12.32-133.8-101.98-274.64-38.79-403.88,9.94-20.33-.28-44.88-21.65-52.35-45.72-15.98-94.87-26.67-141.93-32.49-41.73-5.16-84.43-7.72-127.41-7.72h0Z"/><rect class="cls-2" x="110.33" y="591.31" width="457.34" height="43.54"/><path class="cls-4" d="M137.5,595.24c1.98.77,3.85,1.91,5.63,3.42l-4.01,4.18c-1.39-1.09-2.71-1.88-3.93-2.38-1.23-.49-2.65-.74-4.27-.74-3.02,0-5.48,1.21-7.41,3.62-1.92,2.41-2.88,6.11-2.88,11.08s.76,8.95,2.29,11.25c1.53,2.3,3.85,3.45,6.98,3.45,2.37,0,4.45-.51,6.22-1.53v-10.18h-5.88l-.79-5.54h14.02v19.11c-4.22,2.56-8.71,3.84-13.46,3.84-5.58,0-9.85-1.73-12.81-5.2-2.96-3.47-4.44-8.54-4.44-15.21,0-4.26.8-7.92,2.4-11,1.6-3.07,3.76-5.4,6.47-6.98,2.71-1.58,5.73-2.37,9.05-2.37,2.56,0,4.83.39,6.81,1.16Z"/><path class="cls-4" d="M175.07,596.46c2.56,1.58,4.53,3.9,5.91,6.96,1.38,3.05,2.06,6.73,2.06,11.03s-.7,7.92-2.09,10.97c-1.4,3.05-3.37,5.39-5.94,7.01s-5.58,2.43-9.05,2.43-6.54-.79-9.1-2.37-4.54-3.9-5.94-6.96c-1.4-3.05-2.09-6.73-2.09-11.03s.7-7.87,2.09-10.94c1.39-3.07,3.38-5.42,5.96-7.04,2.58-1.62,5.61-2.43,9.08-2.43s6.54.79,9.1,2.37ZM159.07,603.33c-1.58,2.36-2.38,6.08-2.38,11.17,0,9.76,3.09,14.64,9.27,14.64,3.01,0,5.3-1.17,6.87-3.51,1.56-2.34,2.35-6.07,2.35-11.2s-.78-8.8-2.35-11.14c-1.56-2.34-3.85-3.51-6.87-3.51s-5.32,1.18-6.9,3.53Z"/><path class="cls-4" d="M218.55,621.22c0,2.64-.56,4.99-1.67,7.04-1.11,2.06-2.77,3.67-4.98,4.83s-4.85,1.75-7.94,1.75c-4.67,0-8.25-1.23-10.74-3.7-2.49-2.47-3.73-5.78-3.73-9.92v-26.29h7.46v25.9c0,2.75.57,4.81,1.72,6.16,1.15,1.36,2.91,2.04,5.29,2.04s4.19-.68,5.34-2.04c1.15-1.36,1.72-3.41,1.72-6.16v-25.9h7.52v26.29Z"/><path class="cls-4" d="M251.31,599.06c3.64,2.75,5.46,7.82,5.46,15.21s-1.79,12.34-5.37,15.29c-3.58,2.96-8.12,4.44-13.63,4.44h-10.63v-39.07h9.61c6.07,0,10.92,1.38,14.56,4.13ZM234.61,600.53v27.88h3.68c3.32,0,5.92-1.03,7.8-3.08,1.88-2.05,2.83-5.74,2.83-11.05,0-3.69-.48-6.55-1.44-8.57s-2.22-3.38-3.79-4.1c-1.56-.72-3.44-1.07-5.63-1.07h-3.45Z"/><path class="cls-4" d="M286.45,594.93l-.79,5.54h-14.42v10.91h12.55v5.54h-12.55v11.48h15.44v5.6h-22.9v-39.07h22.67Z"/><path class="cls-4" d="M322.58,634h-9.67l-13.4-31.61c.34,2.79.59,5.31.76,7.58s.25,4.96.25,8.09v15.94h-6.79v-39.07h9.44l13.63,31.66c-.23-1.51-.45-3.5-.68-5.96-.23-2.47-.34-4.93-.34-7.38v-18.32h6.79v39.07Z"/><path class="cls-4" d="M353.34,594.93v32.96h15.66l-.85,6.11h-22.28v-39.07h7.46Z"/><path class="cls-4" d="M396.14,596.46c2.56,1.58,4.53,3.9,5.91,6.96,1.38,3.05,2.06,6.73,2.06,11.03s-.7,7.92-2.09,10.97c-1.4,3.05-3.37,5.39-5.94,7.01s-5.58,2.43-9.05,2.43-6.54-.79-9.1-2.37-4.54-3.9-5.94-6.96c-1.4-3.05-2.09-6.73-2.09-11.03s.7-7.87,2.09-10.94c1.39-3.07,3.38-5.42,5.96-7.04,2.58-1.62,5.61-2.43,9.08-2.43s6.54.79,9.1,2.37ZM380.14,603.33c-1.58,2.36-2.38,6.08-2.38,11.17,0,9.76,3.09,14.64,9.27,14.64,3.01,0,5.3-1.17,6.87-3.51,1.56-2.34,2.35-6.07,2.35-11.2s-.78-8.8-2.35-11.14c-1.56-2.34-3.85-3.51-6.87-3.51s-5.32,1.18-6.9,3.53Z"/><path class="cls-4" d="M434.25,594.93l-.79,5.94h-10.18v33.13h-7.52v-33.13h-10.52v-5.94h29Z"/><path class="cls-4" d="M467.61,621.22c0,2.64-.56,4.99-1.67,7.04-1.11,2.06-2.77,3.67-4.98,4.83s-4.85,1.75-7.94,1.75c-4.67,0-8.25-1.23-10.74-3.7-2.49-2.47-3.73-5.78-3.73-9.92v-26.29h7.46v25.9c0,2.75.57,4.81,1.72,6.16,1.15,1.36,2.91,2.04,5.29,2.04s4.19-.68,5.34-2.04c1.15-1.36,1.72-3.41,1.72-6.16v-25.9h7.52v26.29Z"/><path class="cls-4" d="M494.3,595.27c2.04.79,3.94,2,5.71,3.62l-3.67,4.24c-1.4-1.17-2.8-2.02-4.21-2.54-1.41-.53-2.93-.79-4.55-.79-1.81,0-3.27.41-4.38,1.22-1.11.81-1.67,1.95-1.67,3.42,0,.98.22,1.79.65,2.43s1.22,1.24,2.35,1.81,2.81,1.19,5.03,1.87c3.84,1.21,6.74,2.71,8.68,4.5,1.94,1.79,2.91,4.4,2.91,7.83,0,2.34-.59,4.41-1.78,6.22-1.19,1.81-2.89,3.22-5.12,4.24-2.22,1.02-4.86,1.53-7.92,1.53s-5.65-.48-8-1.44-4.38-2.27-6.08-3.93l3.84-4.3c1.51,1.28,3.07,2.25,4.69,2.91,1.62.66,3.41.99,5.37.99,2.15,0,3.88-.51,5.2-1.53,1.32-1.02,1.98-2.45,1.98-4.3,0-1.13-.23-2.06-.68-2.8-.45-.73-1.22-1.39-2.32-1.98-1.09-.58-2.68-1.2-4.75-1.84-4.15-1.28-7.14-2.83-8.99-4.64-1.85-1.81-2.77-4.18-2.77-7.12,0-2.15.57-4.03,1.7-5.65,1.13-1.62,2.71-2.88,4.72-3.79,2.02-.9,4.31-1.36,6.87-1.36,2.75,0,5.15.4,7.18,1.19Z"/><rect class="cls-2" x="490.27" y="594.08" width="82.87" height="137.12"/><path class="cls-4" d="M565.95,616.33c-1.24,2.21-2.92,3.89-5.06,5.02-2.14,1.13-4.55,1.7-7.22,1.7-2.99,0-5.82-.52-8.5-1.54-2.68-1.03-5.73-2.76-9.15-5.18-3.43-2.42-7.95-6-13.56-10.74v18.39l-7.57-1v-27.5h7.03c6.39,5.1,11.32,8.87,14.79,11.32,3.48,2.45,6.42,4.15,8.85,5.1,2.42.95,4.94,1.43,7.57,1.43,2.37,0,4.16-.52,5.37-1.54,1.21-1.03,1.82-2.45,1.82-4.25,0-1.5-.4-2.82-1.2-3.98-.8-1.16-2.12-2.43-3.98-3.82l4.25-5.64c5.61,3.66,8.42,8.45,8.42,14.37,0,3.04-.62,5.67-1.85,7.88Z"/><path class="cls-4" d="M561.09,657.28c-4.48,2.68-11.23,4.02-20.24,4.02-18.08,0-27.12-5.28-27.12-15.84s9.04-15.99,27.12-15.99,26.96,5.33,26.96,15.99c0,5.2-2.24,9.14-6.72,11.82ZM558.88,641.87c-1.16-.9-3.17-1.57-6.03-2.01-2.86-.44-6.86-.66-12.01-.66s-9.23.22-12.09.66c-2.86.44-4.87,1.11-6.03,2.01-1.16.9-1.74,2.1-1.74,3.59s.58,2.68,1.74,3.55c1.16.88,3.17,1.52,6.03,1.93,2.86.41,6.89.62,12.09.62s9.22-.21,12.05-.62c2.83-.41,4.83-1.06,5.99-1.93,1.16-.88,1.74-2.06,1.74-3.55s-.58-2.69-1.74-3.59Z"/><path class="cls-4" d="M565.95,686.4c-1.24,2.21-2.92,3.89-5.06,5.02-2.14,1.13-4.55,1.7-7.22,1.7-2.99,0-5.82-.52-8.5-1.54-2.68-1.03-5.73-2.76-9.15-5.18-3.43-2.42-7.95-6-13.56-10.74v18.39l-7.57-1v-27.5h7.03c6.39,5.1,11.32,8.87,14.79,11.32,3.48,2.45,6.42,4.15,8.85,5.1,2.42.95,4.94,1.43,7.57,1.43,2.37,0,4.16-.52,5.37-1.54,1.21-1.03,1.82-2.45,1.82-4.25,0-1.5-.4-2.82-1.2-3.98-.8-1.16-2.12-2.43-3.98-3.82l4.25-5.64c5.61,3.66,8.42,8.45,8.42,14.37,0,3.04-.62,5.67-1.85,7.88Z"/><path class="cls-4" d="M559.77,724.72v-15.76h-13.29c.67,1.13,1.16,2.21,1.47,3.24.31,1.03.46,2.14.46,3.32,0,3.6-1.46,6.54-4.37,8.81-2.91,2.27-6.99,3.4-12.24,3.4-3.55,0-6.7-.68-9.43-2.05-2.73-1.37-4.85-3.3-6.37-5.79-1.52-2.5-2.28-5.4-2.28-8.69,0-3.04.62-5.68,1.85-7.92,1.24-2.24,3.04-4.29,5.41-6.14l4.79,5.33c-1.6,1.34-2.77,2.64-3.51,3.9-.75,1.26-1.12,2.74-1.12,4.44,0,2.32.89,4.11,2.67,5.37s4.44,1.89,8,1.89,6.22-.54,7.69-1.62c1.47-1.08,2.2-2.6,2.2-4.56,0-.93-.16-1.8-.46-2.63-.31-.82-.77-1.75-1.39-2.78v-6.49h27.04v25.88l-7.11-1.16Z"/><rect class="cls-2" x="110.33" y="635.91" width="396.75" height="91.82"/><path class="cls-4" d="M164.67,727.69l-5.23-19.45h-27.84l-5.23,19.45h-16.65l26.14-84h19.81l26.01,84h-17.02ZM134.77,696.08h21.39l-10.7-40.12-10.7,40.12Z"/><path class="cls-4" d="M281,643.69l-15.44,84h-20.91l-12.76-66.98-13.13,66.98h-20.3l-15.2-84h15.92l10.7,71.24,13.74-71.24h17.02l13.49,71.24,11.67-71.24h15.2Z"/><path class="cls-4" d="M337.29,727.69l-5.23-19.45h-27.84l-5.23,19.45h-16.65l26.14-84h19.81l26.01,84h-17.02ZM307.38,696.08h21.39l-10.7-40.12-10.7,40.12Z"/><path class="cls-4" d="M389.92,694.02h-10.21v33.67h-16.05v-84h25.04c22.2,0,33.31,8.23,33.31,24.68,0,5.59-1.38,10.21-4.13,13.86-2.76,3.65-7.05,6.61-12.89,8.87l22,36.59h-18.48l-18.6-33.67ZM379.71,682.47h9.97c5.11,0,8.97-1.11,11.61-3.34,2.63-2.23,3.95-5.81,3.95-10.76,0-4.54-1.36-7.84-4.07-9.91-2.72-2.07-6.99-3.1-12.82-3.1h-8.63v27.11Z"/><path class="cls-4" d="M489.91,652.56c7.82,5.92,11.73,16.82,11.73,32.7s-3.85,26.52-11.55,32.88c-7.7,6.36-17.46,9.54-29.3,9.54h-22.85v-84h20.67c13.05,0,23.48,2.96,31.3,8.87ZM453.99,655.72v59.93h7.9c7.13,0,12.72-2.21,16.78-6.62,4.05-4.42,6.08-12.34,6.08-23.77,0-7.94-1.03-14.08-3.1-18.42-2.07-4.33-4.78-7.27-8.14-8.81-3.36-1.54-7.4-2.31-12.1-2.31h-7.42Z"/><rect class="cls-2" x="91.57" y="310.29" width="500.34" height="131.02"/><path class="cls-1" d="M271.21,364.47h-13.38l-12.8-34.37c.43,3.37.76,6.35.99,8.93.23,2.58.35,5.64.35,9.18v16.26h-9.34v-44.35h13.06l13.12,34.43c-.94-5.85-1.41-11.35-1.41-16.51v-17.92h9.41v44.35Z"/><path class="cls-1" d="M303.27,364.47v-19.01h-13.31v19.01h-10.5v-44.35h10.5v17.15h13.31v-17.15h10.5v44.35h-10.5Z"/><path class="cls-1" d="M342.37,321.2v43.26h-9.92v-33.41l-9.28,5.7-4.42-6.72,14.59-8.83h9.02Z"/><path class="cls-1" d="M380.77,346.2c1.41,1.9,2.11,4.09,2.11,6.56s-.67,4.49-2.02,6.43c-1.34,1.94-3.3,3.49-5.86,4.64-2.56,1.15-5.57,1.73-9.02,1.73s-6.3-.57-8.8-1.7-4.41-2.65-5.73-4.54c-1.32-1.9-1.98-4.02-1.98-6.37,0-4.82,2.69-8.41,8.06-10.75-4.22-2.47-6.34-5.89-6.34-10.24,0-2.3.64-4.33,1.92-6.08s3.06-3.12,5.34-4.1,4.87-1.47,7.78-1.47c4.39,0,7.99.99,10.78,2.98,2.79,1.98,4.19,4.7,4.19,8.16,0,1.92-.57,3.72-1.7,5.41-1.13,1.69-2.87,3.15-5.22,4.38,2.9,1.41,5.06,3.06,6.46,4.96ZM371.08,356.76c1.13-1.04,1.7-2.4,1.7-4.06,0-1.75-.49-3.12-1.47-4.13-.98-1-2.71-1.95-5.18-2.85l-2.11-.77c-2.9,1.62-4.35,4.12-4.35,7.49,0,1.79.6,3.22,1.79,4.29,1.19,1.07,2.82,1.6,4.86,1.6s3.64-.52,4.77-1.57ZM362.44,328.44c-.96.85-1.44,2.07-1.44,3.65,0,1.45.42,2.63,1.25,3.55s2.17,1.76,4,2.53l1.34.51c1.45-.94,2.45-1.93,3.01-2.98.55-1.04.83-2.29.83-3.74s-.44-2.61-1.31-3.49c-.88-.88-2.14-1.31-3.81-1.31s-2.91.43-3.87,1.28Z"/><path class="cls-1" d="M409.25,321.2v43.26h-9.92v-33.41l-9.28,5.7-4.42-6.72,14.59-8.83h9.02Z"/><path class="cls-1" d="M442.98,337.05c1.88,1.13,3.35,2.77,4.42,4.93,1.07,2.15,1.6,4.73,1.6,7.71s-.64,5.62-1.92,8.03-3.1,4.32-5.47,5.73c-2.37,1.41-5.13,2.11-8.29,2.11-5.55,0-9.66-1.86-12.35-5.57-2.69-3.71-4.03-8.81-4.03-15.3,0-4.86.76-9.13,2.27-12.8,1.51-3.67,3.69-6.52,6.53-8.54,2.84-2.03,6.18-3.04,10.02-3.04s7,.96,9.86,2.88l-3.71,6.02c-1.92-1.11-3.88-1.66-5.89-1.66-2.43,0-4.39,1.02-5.89,3.07-1.49,2.05-2.39,4.95-2.69,8.7,2.6-2.64,5.65-3.97,9.15-3.97,2.39,0,4.52.57,6.4,1.7ZM437.51,356.05c.92-1.51,1.38-3.59,1.38-6.24s-.43-4.61-1.28-5.76c-.85-1.15-2.13-1.73-3.84-1.73-2.3,0-4.42,1.13-6.34,3.39.08,4.57.58,7.81,1.47,9.73.9,1.92,2.41,2.88,4.54,2.88,1.79,0,3.15-.76,4.06-2.27Z"/><path class="cls-1" d="M143.95,376.12l-12.35,44.35h-13.06l-12.8-44.35h11.07l8.45,36.16,7.94-36.16h10.75Z"/><path class="cls-1" d="M174.41,376.12l-1.09,7.49h-15.62v10.62h13.63v7.36h-13.63v11.33h16.7v7.55h-27.2v-44.35h27.2Z"/><path class="cls-1" d="M195.46,403.51h-4.1v16.96h-10.5v-44.35h14.53c6.06,0,10.61,1.11,13.66,3.33,3.05,2.22,4.58,5.61,4.58,10.18,0,2.86-.68,5.24-2.05,7.14-1.37,1.9-3.52,3.51-6.46,4.83l11.26,18.88h-11.84l-9.09-16.96ZM191.37,396.28h4.42c2.35,0,4.11-.53,5.28-1.6,1.17-1.07,1.76-2.75,1.76-5.06,0-2.13-.63-3.69-1.89-4.67s-3.19-1.47-5.79-1.47h-3.78v12.8Z"/><path class="cls-1" d="M248.97,376.12v7.94l-19.26,28.03h19.58l-1.02,8.38h-30.91v-7.87l19.65-28.35h-17.66v-8.13h29.63Z"/><path class="cls-1" d="M282.38,376.12l-1.09,7.49h-15.62v10.62h13.63v7.36h-13.63v11.33h16.7v7.55h-27.2v-44.35h27.2Z"/><path class="cls-1" d="M299.33,376.12v44.35h-10.5v-44.35h10.5ZM324.81,376.12l-14.14,19.9,15.3,24.45h-12.16l-14.14-23.68,14.08-20.67h11.07Z"/><path class="cls-1" d="M356.55,376.12l-1.09,7.49h-15.62v10.62h13.63v7.36h-13.63v11.33h16.7v7.55h-27.2v-44.35h27.2Z"/><path class="cls-1" d="M377.61,403.51h-4.1v16.96h-10.5v-44.35h14.53c6.06,0,10.61,1.11,13.66,3.33,3.05,2.22,4.58,5.61,4.58,10.18,0,2.86-.68,5.24-2.05,7.14-1.37,1.9-3.52,3.51-6.46,4.83l11.26,18.88h-11.84l-9.09-16.96ZM373.51,396.28h4.42c2.35,0,4.11-.53,5.28-1.6,1.17-1.07,1.76-2.75,1.76-5.06,0-2.13-.63-3.69-1.89-4.67s-3.19-1.47-5.79-1.47h-3.78v12.8Z"/><path class="cls-1" d="M413,376.12v44.35h-10.5v-44.35h10.5Z"/><path class="cls-1" d="M455.43,420.47h-13.38l-12.8-34.37c.43,3.37.76,6.35.99,8.93.23,2.58.35,5.64.35,9.18v16.26h-9.34v-44.35h13.06l13.12,34.43c-.94-5.85-1.41-11.35-1.41-16.51v-17.92h9.41v44.35Z"/><path class="cls-1" d="M497.67,380.47l-5.31,5.57c-1.58-1.19-3.04-2.06-4.38-2.59-1.34-.53-2.89-.8-4.64-.8-3.29,0-5.91,1.29-7.87,3.87-1.96,2.58-2.94,6.5-2.94,11.74,0,5.68.75,9.7,2.24,12.06,1.49,2.37,3.82,3.55,6.98,3.55,2.22,0,4.22-.49,6.02-1.47v-10.05h-5.76l-1.02-7.42h16.96v21.95c-2.3,1.49-4.84,2.65-7.62,3.46-2.77.81-5.55,1.22-8.32,1.22-6.74,0-11.82-1.97-15.23-5.92-3.41-3.95-5.12-9.74-5.12-17.38,0-4.86.93-9.04,2.78-12.54,1.86-3.5,4.39-6.15,7.62-7.97,3.22-1.81,6.84-2.72,10.85-2.72,5.72,0,10.64,1.81,14.78,5.44Z"/><path class="cls-1" d="M532.16,376.12l-1.09,7.49h-15.62v10.62h13.63v7.36h-13.63v11.33h16.7v7.55h-27.2v-44.35h27.2Z"/><path class="cls-1" d="M572.8,420.47h-13.38l-12.8-34.37c.43,3.37.76,6.35.99,8.93.23,2.58.35,5.64.35,9.18v16.26h-9.34v-44.35h13.06l13.12,34.43c-.94-5.85-1.41-11.35-1.41-16.51v-17.92h9.41v44.35Z"/><path class="cls-3" d="M306.82,284.97s-107.17,51.96-198.1-125.84c0,0,23.55-24.36,78.75-13.8,0,0,23.55,121.79,119.35,139.65Z"/><path class="cls-3" d="M335.24,275.23s-157.5-9.74-132.34-220.83c0,0,149.39,15.43,132.34,220.83Z"/><path class="cls-3" d="M376.64,284.97s107.18,51.96,198.11-125.84c0,0-23.55-24.36-78.76-13.8,0,0-23.54,121.79-119.35,139.65Z"/><path class="cls-4" d="M348.23,275.23s157.5-9.74,132.33-220.83c0,0-149.38,15.43-132.33,220.83Z"/><path class="cls-3" d="M341.73,0c-29.23,18.67-60.08,67.39-60.08,67.39,43.84,26.8,60.08,80.38,60.08,80.38,0,0,16.24-53.58,60.08-80.38,0,0-30.86-48.71-60.08-67.39Z"/><rect class="cls-2" x="87.1" y="451.4" width="509.27" height="114.91"/><path class="cls-1" d="M186.3,460.42l-11.24,96.43h-31.91l-6.38-72.84-7.21,72.84h-31.36l-10.54-96.43h23.45l5.41,78.25,8.05-78.25h25.11l7.21,78.25,6.8-78.25h22.62Z"/><path class="cls-1" d="M216.55,460.42v96.43h-24.56v-96.43h24.56Z"/><path class="cls-1" d="M292.16,556.84h-29.97l-17.48-74.51.42,3.33c.83,6.38,1.5,12.46,2.01,18.24.51,5.78.76,12.14.76,19.08v33.85h-20.95v-96.43h29.83l17.62,74.78c-1.02-6.66-1.8-12.88-2.36-18.66-.55-5.78-.83-12.28-.83-19.49v-36.63h20.95v96.43Z"/><path class="cls-1" d="M367.64,556.84h-29.97l-17.48-74.51.42,3.33c.83,6.38,1.5,12.46,2.01,18.24.51,5.78.76,12.14.76,19.08v33.85h-20.95v-96.43h29.83l17.62,74.78c-1.02-6.66-1.8-12.88-2.36-18.66-.55-5.78-.83-12.28-.83-19.49v-36.63h20.95v96.43Z"/><path class="cls-1" d="M420.92,556.84l-3.33-20.12h-19.15l-3.19,20.12h-24.56l23.03-96.43h29.14l22.89,96.43h-24.83ZM401.35,519.25h13.46l-6.8-41.21-6.66,41.21Z"/><path class="cls-1" d="M491.81,556.84l-3.33-20.12h-19.15l-3.19,20.12h-24.56l23.03-96.43h29.14l22.89,96.43h-24.83ZM472.25,519.25h13.46l-6.8-41.21-6.66,41.21Z"/><path class="cls-1" d="M548.56,520.91h-4.3v35.94h-24.56v-96.43h27.61c24.42,0,36.63,9.94,36.63,29.83,0,5.55-1.11,10.62-3.33,15.19s-5.74,8.21-10.54,10.89l19.29,40.51h-25.95l-14.85-35.94ZM544.26,504.12h3.47c4.07,0,6.96-1.09,8.67-3.26,1.71-2.17,2.57-5.71,2.57-10.62,0-4.35-.95-7.56-2.84-9.64-1.9-2.08-4.83-3.12-8.81-3.12h-3.05v26.64Z"/><path class="cls-2" d="M435.79,869.24l-187.5.23s-69.16-38.3-97.95-88.15h382.78c-41.09,60.84-97.34,87.93-97.34,87.93Z"/><path class="cls-1" d="M236.8,799.11h-2.18l-.57-7.38c-.24-2.89-.37-5.12-.4-6.67l-3.54,12.2h-2.11l-3.73-12.22c0,1.98-.1,4.26-.31,6.86l-.55,7.21h-2.14l1.35-16.35h3.04l3.44,11.89,3.28-11.89h3.06l1.35,16.35Z"/><path class="cls-1" d="M249.49,782.76l-.26,1.8h-6.34v5.34h5.51v1.8h-5.51v5.6h6.79v1.8h-9.04v-16.35h8.85Z"/><path class="cls-1" d="M262.19,782.76l-.26,1.8h-6.34v5.34h5.51v1.8h-5.51v5.6h6.79v1.8h-9.04v-16.35h8.85Z"/><path class="cls-1" d="M272.63,782.94c.77.31,1.53.79,2.25,1.44l-1.23,1.38c-.62-.49-1.22-.85-1.82-1.08-.59-.23-1.23-.34-1.91-.34-.85,0-1.56.2-2.11.59-.55.4-.83.97-.83,1.73,0,.47.09.87.29,1.2.19.32.54.62,1.06.89.51.27,1.26.55,2.24.85,1.03.32,1.88.66,2.56,1.02.68.36,1.23.87,1.65,1.51s.63,1.45.63,2.43-.23,1.79-.7,2.52-1.14,1.3-2.02,1.71c-.88.41-1.92.62-3.12.62-2.26,0-4.11-.7-5.55-2.11l1.23-1.38c.67.54,1.34.95,2.02,1.22.68.28,1.44.42,2.28.42,1.01,0,1.85-.25,2.52-.75.66-.5,1-1.22,1-2.17,0-.54-.1-.98-.31-1.34-.21-.36-.56-.68-1.06-.96-.5-.29-1.22-.57-2.17-.85-1.68-.51-2.9-1.12-3.68-1.83-.78-.71-1.16-1.68-1.16-2.9,0-.82.22-1.56.65-2.21.44-.65,1.04-1.15,1.83-1.52.78-.36,1.67-.55,2.67-.55,1.09,0,2.03.15,2.8.46Z"/><path class="cls-1" d="M287.87,782.76l-.24,1.92h-4.53v14.43h-2.25v-14.43h-4.65v-1.92h11.68Z"/><path class="cls-1" d="M307.45,782.76l-5.22,16.35h-2.42l-5.27-16.35h2.42l4.11,13.91,4.11-13.91h2.28Z"/><path class="cls-1" d="M318.81,782.76l-.26,1.8h-6.34v5.34h5.51v1.8h-5.51v5.6h6.79v1.8h-9.04v-16.35h8.85Z"/><path class="cls-1" d="M327.45,792.18h-2.54v6.93h-2.25v-16.35h4.3c2.04,0,3.59.39,4.64,1.16,1.05.78,1.58,1.93,1.58,3.46,0,1.14-.29,2.06-.88,2.78-.58.71-1.47,1.25-2.66,1.61l4.41,7.33h-2.68l-3.92-6.93ZM327.19,790.45c1.19,0,2.08-.24,2.68-.72.6-.48.9-1.26.9-2.34,0-1.01-.3-1.74-.91-2.2-.61-.45-1.59-.68-2.93-.68h-2.02v5.93h2.28Z"/><path class="cls-1" d="M348.48,799.11h-3.01l-6.64-13.88c.09,1.09.17,2.1.23,3.03.05.93.08,2.04.08,3.36v7.5h-2.11v-16.35h2.94l6.72,13.91c-.05-.41-.11-1.13-.19-2.16s-.12-1.97-.12-2.82v-8.92h2.11v16.35Z"/><path class="cls-1" d="M355.48,782.76v16.35h-2.25v-16.35h2.25Z"/><path class="cls-1" d="M369.08,782.76l-.26,1.8h-6.34v5.34h5.51v1.8h-5.51v5.6h6.79v1.8h-9.04v-16.35h8.85Z"/><path class="cls-1" d="M384.12,793.87c0,1.09-.23,2.05-.68,2.88-.45.83-1.11,1.48-1.97,1.95-.86.47-1.9.7-3.1.7-1.82,0-3.22-.5-4.21-1.51-.99-1-1.48-2.34-1.48-4.02v-11.11h2.25v10.94c0,1.27.28,2.22.85,2.85.57.63,1.43.95,2.59.95s2.04-.31,2.61-.94c.57-.62.85-1.58.85-2.86v-10.94h2.28v11.11Z"/><path class="cls-1" d="M405.27,782.76l-3.32,16.35h-2.9l-3.01-13.69-3.04,13.69h-2.82l-3.32-16.35h2.21l2.63,14.38,3.16-14.38h2.4l3.23,14.38,2.73-14.38h2.06Z"/><path class="cls-1" d="M417.08,782.76l-.26,1.8h-6.34v5.34h5.51v1.8h-5.51v5.6h6.79v1.8h-9.04v-16.35h8.85Z"/><path class="cls-1" d="M432.39,799.11h-3.01l-6.64-13.88c.09,1.09.17,2.1.23,3.03.05.93.08,2.04.08,3.36v7.5h-2.11v-16.35h2.94l6.72,13.91c-.05-.41-.11-1.13-.19-2.16s-.12-1.97-.12-2.82v-8.92h2.11v16.35Z"/><path class="cls-1" d="M446.5,784.48c1.5,1.15,2.24,3.27,2.24,6.37s-.75,5.15-2.24,6.4c-1.5,1.24-3.31,1.86-5.45,1.86h-3.92v-16.35h3.42c2.47,0,4.45.57,5.94,1.72ZM439.39,784.56v12.77h1.83c1.52,0,2.75-.47,3.7-1.4s1.42-2.63,1.42-5.08c0-1.72-.25-3.05-.74-3.97-.49-.93-1.12-1.54-1.88-1.85s-1.65-.46-2.68-.46h-1.66Z"/><path class="cls-1" d="M461.27,782.76l-.26,1.8h-6.34v5.34h5.51v1.8h-5.51v5.6h6.79v1.8h-9.04v-16.35h8.85Z"/><path class="cls-1" d="M230.97,808.48c1.5,1.15,2.24,3.27,2.24,6.37s-.75,5.15-2.24,6.4c-1.5,1.24-3.31,1.86-5.45,1.86h-3.92v-16.35h3.42c2.47,0,4.45.57,5.94,1.72ZM223.86,808.56v12.77h1.83c1.52,0,2.75-.47,3.7-1.4s1.42-2.63,1.42-5.08c0-1.72-.25-3.05-.74-3.97-.49-.93-1.12-1.54-1.88-1.85s-1.65-.46-2.68-.46h-1.66Z"/><path class="cls-1" d="M239.15,806.76v16.35h-2.25v-16.35h2.25Z"/><path class="cls-1" d="M252.74,806.76l-.26,1.8h-6.34v5.34h5.51v1.8h-5.51v5.6h6.79v1.8h-9.04v-16.35h8.85Z"/><path class="cls-1" d="M268.05,823.11h-3.01l-6.64-13.88c.09,1.09.17,2.1.23,3.03.05.93.08,2.04.08,3.36v7.5h-2.11v-16.35h2.94l6.72,13.91c-.05-.41-.11-1.13-.19-2.16s-.12-1.97-.12-2.82v-8.92h2.11v16.35Z"/><path class="cls-1" d="M279.63,806.94c.77.31,1.53.79,2.25,1.44l-1.23,1.38c-.62-.49-1.22-.85-1.82-1.08-.59-.23-1.23-.34-1.91-.34-.85,0-1.56.2-2.11.59-.55.4-.83.97-.83,1.73,0,.47.09.87.29,1.2.19.32.54.62,1.06.89.51.27,1.26.55,2.24.85,1.03.32,1.88.66,2.56,1.02.68.36,1.23.87,1.65,1.51s.63,1.45.63,2.43-.23,1.79-.7,2.52-1.14,1.3-2.02,1.71c-.88.41-1.92.62-3.12.62-2.26,0-4.11-.7-5.55-2.11l1.23-1.38c.67.54,1.34.95,2.02,1.22.68.28,1.44.42,2.28.42,1.01,0,1.85-.25,2.52-.75.66-.5,1-1.22,1-2.17,0-.54-.1-.98-.31-1.34-.21-.36-.56-.68-1.06-.96-.5-.29-1.22-.57-2.17-.85-1.68-.51-2.9-1.12-3.68-1.83-.78-.71-1.16-1.68-1.16-2.9,0-.82.22-1.56.65-2.21.44-.65,1.04-1.15,1.83-1.52.78-.36,1.67-.55,2.67-.55,1.09,0,2.03.15,2.8.46Z"/><path class="cls-1" d="M294.87,806.76l-.24,1.92h-4.53v14.43h-2.25v-14.43h-4.65v-1.92h11.68Z"/><path class="cls-1" d="M308.16,806.76l-5.22,16.35h-2.42l-5.27-16.35h2.42l4.11,13.91,4.11-13.91h2.28Z"/><path class="cls-1" d="M319.53,806.76l-.26,1.8h-6.34v5.34h5.51v1.8h-5.51v5.6h6.79v1.8h-9.04v-16.35h8.85Z"/><path class="cls-1" d="M328.16,816.18h-2.54v6.93h-2.25v-16.35h4.3c2.04,0,3.59.39,4.64,1.16,1.05.78,1.58,1.93,1.58,3.46,0,1.14-.29,2.06-.88,2.78-.58.71-1.47,1.25-2.66,1.61l4.41,7.33h-2.68l-3.92-6.93ZM327.9,814.45c1.19,0,2.08-.24,2.68-.72.6-.48.9-1.26.9-2.34,0-1.01-.3-1.74-.91-2.2-.61-.45-1.59-.68-2.93-.68h-2.02v5.93h2.28Z"/><path class="cls-1" d="M339.98,806.76v14.38h6.72l-.26,1.97h-8.71v-16.35h2.25Z"/><path class="cls-1" d="M358.4,806.76l-.26,1.8h-6.34v5.34h5.51v1.8h-5.51v5.6h6.79v1.8h-9.04v-16.35h8.85Z"/><path class="cls-1" d="M373.71,823.11h-3.01l-6.64-13.88c.09,1.09.17,2.1.23,3.03.05.93.08,2.04.08,3.36v7.5h-2.11v-16.35h2.94l6.72,13.91c-.05-.41-.11-1.13-.19-2.16s-.12-1.97-.12-2.82v-8.92h2.11v16.35Z"/><path class="cls-1" d="M380.71,806.76v16.35h-2.25v-16.35h2.25Z"/><path class="cls-1" d="M396.92,823.11h-3.01l-6.64-13.88c.09,1.09.17,2.1.23,3.03.05.93.08,2.04.08,3.36v7.5h-2.11v-16.35h2.94l6.72,13.91c-.05-.41-.11-1.13-.19-2.16s-.12-1.97-.12-2.82v-8.92h2.11v16.35Z"/><path class="cls-1" d="M410.36,806.91c.75.29,1.5.75,2.24,1.37l-1.33,1.38c-.58-.47-1.15-.81-1.68-1.02-.54-.21-1.17-.31-1.9-.31-.84,0-1.61.23-2.31.68s-1.28,1.17-1.72,2.16c-.44.99-.66,2.24-.66,3.76,0,2.29.38,3.97,1.13,5.03.75,1.06,1.86,1.59,3.33,1.59,1.2,0,2.24-.25,3.11-.74v-4.94h-2.9l-.26-1.83h5.39v7.9c-1.69.97-3.47,1.45-5.34,1.45-2.15,0-3.83-.72-5.04-2.16-1.21-1.44-1.82-3.54-1.82-6.31,0-1.77.32-3.29.96-4.57s1.5-2.24,2.59-2.9c1.08-.66,2.27-.98,3.55-.98,1.03,0,1.92.15,2.67.44Z"/><path class="cls-1" d="M431.64,823.11l-1.23-4.11h-6.19l-1.23,4.11h-2.28l5.24-16.35h2.85l5.22,16.35h-2.37ZM424.75,817.18h5.1l-2.54-8.54-2.56,8.54Z"/><path class="cls-1" d="M445.23,823.11l-1.23-4.11h-6.19l-1.23,4.11h-2.28l5.24-16.35h2.85l5.22,16.35h-2.37ZM438.35,817.18h5.1l-2.54-8.54-2.56,8.54Z"/><path class="cls-1" d="M461.59,823.11h-3.01l-6.64-13.88c.09,1.09.17,2.1.23,3.03.05.93.08,2.04.08,3.36v7.5h-2.11v-16.35h2.94l6.72,13.91c-.05-.41-.11-1.13-.19-2.16s-.12-1.97-.12-2.82v-8.92h2.11v16.35Z"/><path class="cls-1" d="M285.97,830.86c.67.25,1.36.66,2.05,1.23l-1.23,1.45c-1-.81-2.05-1.21-3.16-1.21-1.36,0-2.46.52-3.29,1.57-.83,1.04-1.25,2.72-1.25,5.03s.41,3.9,1.23,4.97c.82,1.07,1.91,1.6,3.27,1.6.7,0,1.31-.12,1.83-.36.52-.24,1.08-.57,1.66-1l1.12,1.42c-.51.52-1.16.96-1.95,1.31s-1.7.52-2.73.52c-1.33,0-2.51-.33-3.55-.99-1.04-.66-1.84-1.62-2.42-2.9-.58-1.27-.87-2.8-.87-4.59s.3-3.32.9-4.59,1.42-2.23,2.44-2.88c1.03-.65,2.17-.97,3.44-.97.98,0,1.81.13,2.48.38Z"/><path class="cls-1" d="M300.04,831.46c1.04.66,1.84,1.62,2.42,2.88.58,1.27.87,2.8.87,4.6s-.29,3.29-.87,4.56c-.58,1.27-1.38,2.23-2.42,2.9s-2.24,1-3.62,1-2.58-.32-3.62-.97c-1.04-.65-1.84-1.61-2.42-2.87-.58-1.27-.87-2.79-.87-4.58s.29-3.28.87-4.56c.58-1.28,1.39-2.26,2.43-2.93,1.04-.67,2.25-1.01,3.61-1.01s2.58.33,3.62.98ZM293.1,833.94c-.79,1.08-1.19,2.75-1.19,5.03s.4,3.92,1.2,4.98c.8,1.06,1.9,1.59,3.31,1.59,3.01,0,4.51-2.2,4.51-6.6s-1.5-6.62-4.51-6.62c-1.42,0-2.53.54-3.32,1.61Z"/><path class="cls-1" d="M318.47,847.11h-3.01l-6.64-13.88c.09,1.09.17,2.1.23,3.03.05.93.08,2.04.08,3.36v7.5h-2.11v-16.35h2.94l6.72,13.91c-.05-.41-.11-1.13-.19-2.16s-.12-1.97-.12-2.82v-8.92h2.11v16.35Z"/><path class="cls-1" d="M330.05,830.94c.77.31,1.53.79,2.25,1.44l-1.23,1.38c-.62-.49-1.22-.85-1.82-1.08-.59-.23-1.23-.34-1.91-.34-.85,0-1.56.2-2.11.59-.55.4-.83.97-.83,1.73,0,.47.09.87.29,1.2.19.32.54.62,1.06.89.51.27,1.26.55,2.24.85,1.03.32,1.88.66,2.56,1.02.68.36,1.23.87,1.65,1.51s.63,1.45.63,2.43-.23,1.79-.7,2.52-1.14,1.3-2.02,1.71c-.88.41-1.92.62-3.12.62-2.26,0-4.11-.7-5.55-2.11l1.23-1.38c.67.54,1.34.95,2.02,1.22.68.28,1.44.42,2.28.42,1.01,0,1.85-.25,2.52-.75.66-.5,1-1.22,1-2.17,0-.54-.1-.98-.31-1.34-.21-.36-.56-.68-1.06-.96-.5-.29-1.22-.57-2.17-.85-1.68-.51-2.9-1.12-3.68-1.83-.78-.71-1.16-1.68-1.16-2.9,0-.82.22-1.56.65-2.21.44-.65,1.04-1.15,1.83-1.52.78-.36,1.67-.55,2.67-.55,1.09,0,2.03.15,2.8.46Z"/><path class="cls-1" d="M347.35,841.87c0,1.09-.23,2.05-.68,2.88-.45.83-1.11,1.48-1.97,1.95-.86.47-1.9.7-3.1.7-1.82,0-3.22-.5-4.21-1.51-.99-1-1.48-2.34-1.48-4.02v-11.11h2.25v10.94c0,1.27.28,2.22.85,2.85.57.63,1.43.95,2.59.95s2.04-.31,2.61-.94c.57-.62.85-1.58.85-2.86v-10.94h2.28v11.11Z"/><path class="cls-1" d="M366.48,847.11h-2.18l-.57-7.38c-.24-2.89-.37-5.12-.4-6.67l-3.54,12.2h-2.11l-3.73-12.22c0,1.98-.1,4.26-.31,6.86l-.55,7.21h-2.14l1.35-16.35h3.04l3.44,11.89,3.28-11.89h3.06l1.35,16.35Z"/><path class="cls-1" d="M379.17,830.76l-.26,1.8h-6.34v5.34h5.51v1.8h-5.51v5.6h6.79v1.8h-9.04v-16.35h8.85Z"/><path class="cls-1" d="M394.48,847.11h-3.01l-6.64-13.88c.09,1.09.17,2.1.23,3.03.05.93.08,2.04.08,3.36v7.5h-2.11v-16.35h2.94l6.72,13.91c-.05-.41-.11-1.13-.19-2.16s-.12-1.97-.12-2.82v-8.92h2.11v16.35Z"/><path class="cls-1" d="M408.88,830.76l-.24,1.92h-4.53v14.43h-2.25v-14.43h-4.65v-1.92h11.68Z"/></g></svg>