<?xml version="1.0" encoding="UTF-8"?><svg id="Laag_1" xmlns="http://www.w3.org/2000/svg" xmlns:xlink="http://www.w3.org/1999/xlink" viewBox="0 0 563.73 916.22"><defs><style>.cls-1{fill:#fff;}.cls-2{fill:none;}.cls-3{fill:#da2128;}.cls-4{fill:#d5af34;}.cls-5{fill:#d5af30;}.cls-6{fill:url(#linear-gradient);}</style><linearGradient id="linear-gradient" x1="75.64" y1="874.57" x2="515.89" y2="281.24" gradientUnits="userSpaceOnUse"><stop offset="0" stop-color="#5bb5e2"/><stop offset="1" stop-color="#2e94d1"/></linearGradient></defs><g id="v_blauw_1"><g id="bg"><path class="cls-6" d="M29.27,279.17h505.48c14.62,0,26.48,11.87,26.48,26.48v581.59c0,14.62-11.87,26.48-26.48,26.48H29.27c-14.62,0-26.48-11.87-26.48-26.48V305.65c0-14.62,11.87-26.48,26.48-26.48Z"/><path class="cls-5" d="M534.75,281.67c13.22,0,23.98,10.76,23.98,23.98v581.59c0,13.22-10.76,23.98-23.98,23.98H29.27c-13.22,0-23.98-10.76-23.98-23.98V305.65c0-13.22,10.76-23.98,23.98-23.98h505.48M534.75,276.67H29.27c-16.01,0-28.98,12.98-28.98,28.98v581.59c0,16.01,12.98,28.98,28.98,28.98h505.48c16.01,0,28.98-12.98,28.98-28.98V305.65c0-16.01-12.98-28.98-28.98-28.98h0Z"/></g><rect class="cls-2" x="29.12" y="661.3" width="504.95" height="48.07"/><path class="cls-4" d="M59.12,665.63c2.18.85,4.25,2.11,6.21,3.78l-4.43,4.62c-1.54-1.21-2.99-2.08-4.34-2.62-1.35-.54-2.92-.81-4.71-.81-3.33,0-6.05,1.33-8.18,4-2.12,2.66-3.18,6.74-3.18,12.24s.84,9.88,2.53,12.42c1.69,2.54,4.25,3.81,7.71,3.81,2.62,0,4.91-.56,6.87-1.69v-11.24h-6.49l-.87-6.12h15.48v21.1c-4.66,2.83-9.61,4.25-14.86,4.25-6.16,0-10.87-1.91-14.14-5.74-3.27-3.83-4.9-9.43-4.9-16.79,0-4.7.88-8.75,2.65-12.14,1.77-3.39,4.15-5.96,7.15-7.71,3-1.75,6.33-2.62,9.99-2.62,2.83,0,5.34.43,7.52,1.28Z"/><path class="cls-4" d="M100.6,666.98c2.83,1.75,5,4.31,6.52,7.68s2.28,7.43,2.28,12.17-.77,8.74-2.31,12.11-3.72,5.95-6.55,7.74-6.16,2.68-9.99,2.68-7.22-.87-10.05-2.62-5.02-4.31-6.55-7.68c-1.54-3.37-2.31-7.43-2.31-12.17s.77-8.69,2.31-12.08c1.54-3.39,3.74-5.98,6.59-7.77,2.85-1.79,6.19-2.68,10.02-2.68s7.22.87,10.05,2.62ZM82.93,674.56c-1.75,2.6-2.62,6.71-2.62,12.33,0,10.78,3.41,16.17,10.24,16.17,3.33,0,5.86-1.29,7.58-3.87,1.73-2.58,2.59-6.7,2.59-12.36s-.86-9.72-2.59-12.3c-1.73-2.58-4.26-3.87-7.58-3.87s-5.87,1.3-7.62,3.9Z"/><path class="cls-4" d="M148.6,694.32c0,2.91-.61,5.5-1.84,7.77-1.23,2.27-3.06,4.05-5.49,5.34-2.43,1.29-5.36,1.94-8.77,1.94-5.16,0-9.11-1.36-11.86-4.09-2.75-2.73-4.12-6.38-4.12-10.96v-29.03h8.24v28.59c0,3.04.63,5.31,1.9,6.8,1.27,1.5,3.21,2.25,5.84,2.25s4.63-.75,5.9-2.25c1.27-1.5,1.9-3.77,1.9-6.8v-28.59h8.3v29.03Z"/><path class="cls-4" d="M184.78,669.85c4.02,3.04,6.02,8.64,6.02,16.79s-1.98,13.62-5.93,16.89c-3.95,3.27-8.97,4.9-15.04,4.9h-11.74v-43.14h10.61c6.7,0,12.06,1.52,16.08,4.56ZM166.33,671.47v30.78h4.06c3.66,0,6.53-1.13,8.62-3.4,2.08-2.27,3.12-6.34,3.12-12.2,0-4.08-.53-7.23-1.59-9.46-1.06-2.23-2.46-3.73-4.18-4.53-1.73-.79-3.8-1.19-6.21-1.19h-3.81Z"/><path class="cls-4" d="M223.58,665.29l-.87,6.12h-15.92v12.05h13.86v6.12h-13.86v12.67h17.04v6.18h-25.28v-43.14h25.03Z"/><path class="cls-4" d="M263.47,708.43h-10.67l-14.79-34.9c.37,3.08.66,5.87.84,8.37.19,2.5.28,5.47.28,8.93v17.6h-7.49v-43.14h10.43l15.04,34.96c-.25-1.66-.5-3.86-.75-6.59-.25-2.73-.38-5.44-.38-8.15v-20.23h7.49v43.14Z"/><path class="cls-4" d="M297.43,665.29v36.4h17.29l-.94,6.74h-24.6v-43.14h8.24Z"/><path class="cls-4" d="M344.69,666.98c2.83,1.75,5,4.31,6.52,7.68,1.52,3.37,2.28,7.43,2.28,12.17s-.77,8.74-2.31,12.11c-1.54,3.37-3.72,5.95-6.55,7.74-2.83,1.79-6.16,2.68-9.99,2.68s-7.22-.87-10.05-2.62-5.02-4.31-6.55-7.68c-1.54-3.37-2.31-7.43-2.31-12.17s.77-8.69,2.31-12.08c1.54-3.39,3.74-5.98,6.59-7.77,2.85-1.79,6.19-2.68,10.02-2.68s7.22.87,10.05,2.62ZM327.02,674.56c-1.75,2.6-2.62,6.71-2.62,12.33,0,10.78,3.41,16.17,10.24,16.17,3.33,0,5.86-1.29,7.58-3.87,1.73-2.58,2.59-6.7,2.59-12.36s-.86-9.72-2.59-12.3c-1.73-2.58-4.26-3.87-7.58-3.87s-5.87,1.3-7.62,3.9Z"/><path class="cls-4" d="M386.76,665.29l-.87,6.56h-11.24v36.58h-8.3v-36.58h-11.61v-6.56h32.03Z"/><path class="cls-4" d="M423.59,694.32c0,2.91-.61,5.5-1.84,7.77s-3.06,4.05-5.49,5.34c-2.43,1.29-5.36,1.94-8.77,1.94-5.16,0-9.12-1.36-11.86-4.09-2.75-2.73-4.12-6.38-4.12-10.96v-29.03h8.24v28.59c0,3.04.63,5.31,1.9,6.8,1.27,1.5,3.21,2.25,5.84,2.25s4.63-.75,5.9-2.25,1.9-3.77,1.9-6.8v-28.59h8.3v29.03Z"/><path class="cls-4" d="M453.06,665.67c2.25.87,4.35,2.21,6.3,4l-4.06,4.68c-1.54-1.29-3.09-2.23-4.65-2.81-1.56-.58-3.24-.87-5.03-.87-2,0-3.61.45-4.84,1.34-1.23.9-1.84,2.15-1.84,3.78,0,1.08.24,1.98.72,2.68.48.71,1.34,1.37,2.59,2,1.25.62,3.1,1.31,5.56,2.06,4.25,1.33,7.44,2.99,9.58,4.96,2.14,1.98,3.21,4.86,3.21,8.65,0,2.58-.66,4.87-1.97,6.87-1.31,2-3.19,3.56-5.65,4.68-2.46,1.12-5.37,1.69-8.74,1.69s-6.23-.53-8.83-1.59c-2.6-1.06-4.84-2.51-6.71-4.34l4.25-4.74c1.66,1.42,3.39,2.49,5.18,3.21,1.79.73,3.77,1.09,5.93,1.09,2.37,0,4.29-.56,5.74-1.69,1.46-1.12,2.19-2.7,2.19-4.74,0-1.25-.25-2.28-.75-3.09-.5-.81-1.35-1.54-2.56-2.19-1.21-.64-2.96-1.32-5.24-2.03-4.58-1.42-7.89-3.12-9.93-5.12-2.04-2-3.06-4.62-3.06-7.87,0-2.37.62-4.45,1.87-6.24,1.25-1.79,2.99-3.18,5.21-4.18,2.23-1,4.75-1.5,7.58-1.5,3.04,0,5.68.44,7.93,1.31Z"/><rect class="cls-2" x="448.61" y="664.36" width="91.5" height="151.4"/><path class="cls-4" d="M532.17,688.92c-1.37,2.44-3.23,4.29-5.59,5.54-2.36,1.25-5.02,1.88-7.98,1.88-3.3,0-6.43-.57-9.38-1.71-2.96-1.14-6.33-3.04-10.11-5.71-3.78-2.67-8.77-6.62-14.97-11.86v20.3l-8.36-1.11v-30.37h7.76c7.05,5.63,12.5,9.79,16.33,12.5,3.84,2.7,7.09,4.58,9.77,5.63,2.67,1.05,5.46,1.58,8.36,1.58,2.61,0,4.59-.57,5.93-1.71,1.34-1.14,2-2.7,2-4.69,0-1.65-.44-3.11-1.32-4.39-.88-1.28-2.35-2.69-4.39-4.22l4.69-6.23c6.2,4.04,9.3,9.33,9.3,15.87,0,3.35-.68,6.25-2.05,8.7Z"/><path class="cls-4" d="M526.8,734.13c-4.95,2.96-12.4,4.43-22.35,4.43-19.96,0-29.94-5.83-29.94-17.49s9.98-17.66,29.94-17.66,29.77,5.89,29.77,17.66c0,5.74-2.47,10.09-7.42,13.05ZM524.37,717.11c-1.28-1-3.5-1.74-6.65-2.22-3.16-.48-7.58-.72-13.26-.72s-10.19.24-13.35.72c-3.16.48-5.37,1.22-6.65,2.22-1.28.99-1.92,2.32-1.92,3.97s.64,2.96,1.92,3.92c1.28.97,3.5,1.68,6.65,2.13,3.16.45,7.6.68,13.35.68s10.18-.23,13.31-.68c3.13-.46,5.33-1.17,6.61-2.13,1.28-.97,1.92-2.28,1.92-3.92s-.64-2.97-1.92-3.97Z"/><path class="cls-4" d="M532.17,766.29c-1.37,2.44-3.23,4.29-5.59,5.54-2.36,1.25-5.02,1.88-7.98,1.88-3.3,0-6.43-.57-9.38-1.71-2.96-1.14-6.33-3.04-10.11-5.71-3.78-2.67-8.77-6.62-14.97-11.86v20.3l-8.36-1.11v-30.37h7.76c7.05,5.63,12.5,9.79,16.33,12.5,3.84,2.7,7.09,4.58,9.77,5.63,2.67,1.05,5.46,1.58,8.36,1.58,2.61,0,4.59-.57,5.93-1.71,1.34-1.14,2-2.7,2-4.69,0-1.65-.44-3.11-1.32-4.39-.88-1.28-2.35-2.69-4.39-4.22l4.69-6.23c6.2,4.04,9.3,9.33,9.3,15.87,0,3.35-.68,6.25-2.05,8.7Z"/><path class="cls-4" d="M525.35,808.59v-17.4h-14.67c.74,1.25,1.28,2.44,1.62,3.58.34,1.14.51,2.36.51,3.67,0,3.98-1.61,7.22-4.82,9.72-3.21,2.5-7.72,3.75-13.52,3.75-3.92,0-7.39-.75-10.41-2.26-3.01-1.51-5.36-3.64-7.04-6.4-1.68-2.76-2.52-5.96-2.52-9.6,0-3.36.68-6.27,2.05-8.74,1.37-2.47,3.35-4.73,5.97-6.78l5.29,5.88c-1.76,1.48-3.06,2.91-3.88,4.31-.83,1.39-1.24,3.03-1.24,4.9,0,2.56.98,4.53,2.94,5.93,1.96,1.39,4.9,2.09,8.83,2.09s6.87-.6,8.49-1.79c1.62-1.19,2.43-2.87,2.43-5.03,0-1.02-.17-1.99-.51-2.9-.34-.91-.85-1.93-1.54-3.07v-7.17h29.85v28.57l-7.85-1.28Z"/><rect class="cls-2" x="29.12" y="710.54" width="438.05" height="101.38"/><path class="cls-4" d="M89.12,811.87l-5.77-21.47h-30.74l-5.77,21.47h-18.39l28.86-92.75h21.88l28.72,92.75h-18.79ZM56.1,776.97h23.62l-11.81-44.29-11.81,44.29Z"/><path class="cls-4" d="M217.56,719.12l-17.05,92.75h-23.08l-14.09-73.96-14.5,73.96h-22.41l-16.78-92.75h17.58l11.81,78.65,15.17-78.65h18.79l14.9,78.65,12.88-78.65h16.78Z"/><path class="cls-4" d="M279.7,811.87l-5.77-21.47h-30.74l-5.77,21.47h-18.39l28.86-92.75h21.88l28.72,92.75h-18.79ZM246.69,776.97h23.62l-11.81-44.29-11.81,44.29Z"/><path class="cls-4" d="M337.82,774.69h-11.27v37.18h-17.72v-92.75h27.65c24.52,0,36.78,9.08,36.78,27.25,0,6.17-1.52,11.27-4.56,15.3-3.04,4.03-7.78,7.29-14.23,9.8l24.29,40.4h-20.4l-20.54-37.18ZM326.54,761.94h11.01c5.64,0,9.91-1.23,12.82-3.69,2.91-2.46,4.36-6.42,4.36-11.88,0-5.01-1.5-8.66-4.5-10.94-3-2.28-7.72-3.42-14.16-3.42h-9.53v29.93Z"/><path class="cls-4" d="M448.21,728.92c8.63,6.53,12.95,18.57,12.95,36.1s-4.25,29.28-12.75,36.31c-8.5,7.03-19.28,10.54-32.35,10.54h-25.23v-92.75h22.82c14.41,0,25.92,3.27,34.56,9.8ZM408.55,732.41v66.17h8.72c7.87,0,14.05-2.44,18.52-7.31,4.47-4.88,6.71-13.62,6.71-26.24,0-8.77-1.14-15.55-3.42-20.33-2.28-4.79-5.28-8.03-8.99-9.73-3.71-1.7-8.17-2.55-13.35-2.55h-8.19Z"/><rect class="cls-2" x="31.84" y="375.8" width="500.34" height="131.02"/><path class="cls-1" d="M211.48,429.97h-13.38l-12.8-34.37c.43,3.37.76,6.35.99,8.93.23,2.58.35,5.64.35,9.18v16.26h-9.34v-44.35h13.06l13.12,34.43c-.94-5.85-1.41-11.35-1.41-16.51v-17.92h9.41v44.35Z"/><path class="cls-1" d="M243.54,429.97v-19.01h-13.31v19.01h-10.5v-44.35h10.5v17.15h13.31v-17.15h10.5v44.35h-10.5Z"/><path class="cls-1" d="M282.65,386.71v43.26h-9.92v-33.41l-9.28,5.7-4.42-6.72,14.59-8.83h9.02Z"/><path class="cls-1" d="M321.04,411.7c1.41,1.9,2.11,4.09,2.11,6.56,0,2.35-.67,4.49-2.02,6.43-1.34,1.94-3.3,3.49-5.86,4.64-2.56,1.15-5.57,1.73-9.02,1.73s-6.3-.57-8.8-1.7-4.41-2.64-5.73-4.54c-1.32-1.9-1.98-4.02-1.98-6.37,0-4.82,2.69-8.4,8.06-10.75-4.22-2.47-6.34-5.89-6.34-10.24,0-2.3.64-4.33,1.92-6.08,1.28-1.75,3.06-3.11,5.34-4.1,2.28-.98,4.87-1.47,7.78-1.47,4.39,0,7.99.99,10.78,2.98,2.79,1.98,4.19,4.7,4.19,8.16,0,1.92-.57,3.72-1.7,5.41-1.13,1.69-2.87,3.15-5.22,4.38,2.9,1.41,5.06,3.06,6.46,4.96ZM311.35,422.26c1.13-1.04,1.7-2.4,1.7-4.06,0-1.75-.49-3.12-1.47-4.13-.98-1-2.71-1.95-5.18-2.85l-2.11-.77c-2.9,1.62-4.35,4.12-4.35,7.49,0,1.79.6,3.22,1.79,4.29,1.19,1.07,2.82,1.6,4.86,1.6s3.64-.52,4.77-1.57ZM302.71,393.94c-.96.85-1.44,2.07-1.44,3.65,0,1.45.42,2.63,1.25,3.55.83.92,2.17,1.76,4,2.53l1.34.51c1.45-.94,2.45-1.93,3.01-2.98.55-1.04.83-2.29.83-3.74s-.44-2.61-1.31-3.49c-.88-.87-2.14-1.31-3.81-1.31s-2.91.43-3.87,1.28Z"/><path class="cls-1" d="M349.52,386.71v43.26h-9.92v-33.41l-9.28,5.7-4.42-6.72,14.59-8.83h9.02Z"/><path class="cls-1" d="M383.25,402.55c1.88,1.13,3.35,2.77,4.42,4.93,1.07,2.16,1.6,4.73,1.6,7.71s-.64,5.62-1.92,8.03c-1.28,2.41-3.1,4.32-5.47,5.73-2.37,1.41-5.13,2.11-8.29,2.11-5.55,0-9.66-1.86-12.35-5.57-2.69-3.71-4.03-8.81-4.03-15.3,0-4.86.76-9.13,2.27-12.8,1.51-3.67,3.69-6.52,6.53-8.54,2.84-2.03,6.18-3.04,10.02-3.04s7,.96,9.86,2.88l-3.71,6.02c-1.92-1.11-3.88-1.66-5.89-1.66-2.43,0-4.39,1.02-5.89,3.07-1.49,2.05-2.39,4.95-2.69,8.7,2.6-2.64,5.65-3.97,9.15-3.97,2.39,0,4.52.57,6.4,1.7ZM377.78,421.56c.92-1.51,1.38-3.59,1.38-6.24s-.43-4.61-1.28-5.76c-.85-1.15-2.13-1.73-3.84-1.73-2.3,0-4.42,1.13-6.34,3.39.08,4.57.58,7.81,1.47,9.73.9,1.92,2.41,2.88,4.54,2.88,1.79,0,3.15-.76,4.06-2.27Z"/><path class="cls-1" d="M84.22,462.42l-12.35,44.35h-13.06l-12.8-44.35h11.07l8.45,36.16,7.94-36.16h10.75Z"/><path class="cls-1" d="M114.68,462.42l-1.09,7.49h-15.62v10.62h13.63v7.36h-13.63v11.33h16.7v7.55h-27.2v-44.35h27.2Z"/><path class="cls-1" d="M135.74,489.81h-4.1v16.96h-10.5v-44.35h14.53c6.06,0,10.61,1.11,13.66,3.33,3.05,2.22,4.58,5.61,4.58,10.18,0,2.86-.68,5.24-2.05,7.14-1.37,1.9-3.52,3.51-6.46,4.83l11.26,18.88h-11.84l-9.09-16.96ZM131.64,482.58h4.42c2.35,0,4.11-.53,5.28-1.6s1.76-2.75,1.76-5.06c0-2.13-.63-3.69-1.89-4.67-1.26-.98-3.19-1.47-5.79-1.47h-3.78v12.8Z"/><path class="cls-1" d="M189.24,462.42v7.94l-19.26,28.03h19.58l-1.02,8.38h-30.91v-7.87l19.65-28.35h-17.66v-8.13h29.63Z"/><path class="cls-1" d="M222.65,462.42l-1.09,7.49h-15.62v10.62h13.63v7.36h-13.63v11.33h16.7v7.55h-27.2v-44.35h27.2Z"/><path class="cls-1" d="M239.61,462.42v44.35h-10.5v-44.35h10.5ZM265.08,462.42l-14.14,19.9,15.3,24.45h-12.16l-14.14-23.68,14.08-20.67h11.07Z"/><path class="cls-1" d="M296.82,462.42l-1.09,7.49h-15.62v10.62h13.63v7.36h-13.63v11.33h16.7v7.55h-27.2v-44.35h27.2Z"/><path class="cls-1" d="M317.88,489.81h-4.1v16.96h-10.5v-44.35h14.53c6.06,0,10.61,1.11,13.66,3.33,3.05,2.22,4.58,5.61,4.58,10.18,0,2.86-.68,5.24-2.05,7.14-1.37,1.9-3.52,3.51-6.46,4.83l11.26,18.88h-11.84l-9.09-16.96ZM313.78,482.58h4.42c2.35,0,4.11-.53,5.28-1.6s1.76-2.75,1.76-5.06c0-2.13-.63-3.69-1.89-4.67-1.26-.98-3.19-1.47-5.79-1.47h-3.78v12.8Z"/><path class="cls-1" d="M353.27,462.42v44.35h-10.5v-44.35h10.5Z"/><path class="cls-1" d="M395.7,506.77h-13.38l-12.8-34.37c.43,3.37.76,6.35.99,8.93.23,2.58.35,5.64.35,9.18v16.26h-9.34v-44.35h13.06l13.12,34.43c-.94-5.85-1.41-11.35-1.41-16.51v-17.92h9.41v44.35Z"/><path class="cls-1" d="M437.94,466.77l-5.31,5.57c-1.58-1.19-3.04-2.06-4.38-2.59-1.34-.53-2.89-.8-4.64-.8-3.29,0-5.91,1.29-7.87,3.87-1.96,2.58-2.94,6.5-2.94,11.74,0,5.67.75,9.7,2.24,12.06,1.49,2.37,3.82,3.55,6.98,3.55,2.22,0,4.22-.49,6.02-1.47v-10.05h-5.76l-1.02-7.42h16.96v21.95c-2.3,1.49-4.84,2.65-7.62,3.46-2.77.81-5.55,1.22-8.32,1.22-6.74,0-11.82-1.97-15.23-5.92-3.41-3.95-5.12-9.74-5.12-17.38,0-4.86.93-9.04,2.78-12.54,1.86-3.5,4.39-6.15,7.62-7.97,3.22-1.81,6.84-2.72,10.85-2.72,5.72,0,10.64,1.81,14.78,5.44Z"/><path class="cls-1" d="M472.43,462.42l-1.09,7.49h-15.62v10.62h13.63v7.36h-13.63v11.33h16.7v7.55h-27.2v-44.35h27.2Z"/><path class="cls-1" d="M513.07,506.77h-13.38l-12.8-34.37c.43,3.37.76,6.35.99,8.93.23,2.58.35,5.64.35,9.18v16.26h-9.34v-44.35h13.06l13.12,34.43c-.94-5.85-1.41-11.35-1.41-16.51v-17.92h9.41v44.35Z"/><path class="cls-3" d="M240.29,343.63S112.23,405.72,3.57,193.25c0,0,28.14-29.11,94.11-16.5,0,0,28.14,145.54,142.62,166.88Z"/><path class="cls-3" d="M274.25,331.99s-188.22-11.64-158.14-263.89c0,0,178.51,18.44,158.14,263.89Z"/><path class="cls-3" d="M323.73,343.63s128.07,62.1,236.73-150.38c0,0-28.14-29.11-94.11-16.5,0,0-28.13,145.54-142.62,166.88Z"/><path class="cls-4" d="M289.78,331.99s188.21-11.64,158.13-263.89c0,0-178.51,18.44-158.13,263.89Z"/><path class="cls-3" d="M282.01,3.09c-34.93,22.32-71.8,80.53-71.8,80.53,52.39,32.02,71.8,96.05,71.8,96.05,0,0,19.4-64.03,71.8-96.05,0,0-36.87-58.21-71.8-80.53Z"/><rect class="cls-2" x="26.88" y="841.49" width="500.34" height="49.7"/><path class="cls-1" d="M60.24,861.53h-2.18l-.57-7.38c-.24-2.89-.37-5.12-.4-6.67l-3.54,12.2h-2.11l-3.73-12.22c0,1.98-.1,4.26-.31,6.86l-.55,7.21h-2.14l1.35-16.35h3.04l3.44,11.89,3.28-11.89h3.06l1.35,16.35Z"/><path class="cls-1" d="M72.23,845.17l-.26,1.8h-6.34v5.34h5.51v1.8h-5.51v5.6h6.79v1.8h-9.04v-16.35h8.85Z"/><path class="cls-1" d="M84.21,845.17l-.26,1.8h-6.34v5.34h5.51v1.8h-5.51v5.6h6.79v1.8h-9.04v-16.35h8.85Z"/><path class="cls-1" d="M93.94,845.35c.77.31,1.53.79,2.25,1.44l-1.23,1.38c-.62-.49-1.22-.85-1.82-1.08-.59-.23-1.23-.34-1.91-.34-.85,0-1.56.2-2.11.59-.55.4-.83.97-.83,1.73,0,.47.09.87.29,1.2.19.32.54.62,1.06.89.51.27,1.26.55,2.24.85,1.03.32,1.88.66,2.56,1.02.68.36,1.23.87,1.65,1.51s.63,1.45.63,2.43-.23,1.79-.7,2.52-1.14,1.3-2.02,1.71c-.88.41-1.92.62-3.12.62-2.26,0-4.11-.7-5.55-2.11l1.23-1.38c.67.54,1.34.95,2.02,1.22.68.28,1.44.42,2.28.42,1.01,0,1.85-.25,2.52-.75.66-.5,1-1.22,1-2.17,0-.54-.1-.98-.31-1.34-.21-.36-.56-.68-1.06-.96-.5-.29-1.22-.57-2.17-.85-1.68-.51-2.9-1.12-3.68-1.83-.78-.71-1.16-1.68-1.16-2.9,0-.82.22-1.56.65-2.21.44-.65,1.04-1.15,1.83-1.52.78-.36,1.67-.55,2.67-.55,1.09,0,2.03.15,2.8.46Z"/><path class="cls-1" d="M108.46,845.17l-.24,1.92h-4.53v14.43h-2.25v-14.43h-4.65v-1.92h11.68Z"/><path class="cls-1" d="M126.62,845.17l-5.22,16.35h-2.42l-5.27-16.35h2.42l4.11,13.91,4.11-13.91h2.28Z"/><path class="cls-1" d="M137.27,845.17l-.26,1.8h-6.34v5.34h5.51v1.8h-5.51v5.6h6.79v1.8h-9.04v-16.35h8.85Z"/><path class="cls-1" d="M145.2,854.6h-2.54v6.93h-2.25v-16.35h4.3c2.04,0,3.59.39,4.64,1.16,1.05.78,1.58,1.93,1.58,3.46,0,1.14-.29,2.06-.88,2.78-.58.71-1.47,1.25-2.66,1.61l4.41,7.33h-2.68l-3.92-6.93ZM144.94,852.86c1.19,0,2.08-.24,2.68-.72.6-.48.9-1.26.9-2.34,0-1.01-.3-1.74-.91-2.2-.61-.45-1.59-.68-2.93-.68h-2.02v5.93h2.28Z"/><path class="cls-1" d="M165.52,861.53h-3.01l-6.64-13.88c.09,1.09.17,2.1.23,3.03.05.93.08,2.04.08,3.36v7.5h-2.11v-16.35h2.94l6.72,13.91c-.05-.41-.11-1.13-.19-2.16s-.12-1.97-.12-2.82v-8.92h2.11v16.35Z"/><path class="cls-1" d="M171.8,845.17v16.35h-2.25v-16.35h2.25Z"/><path class="cls-1" d="M184.69,845.17l-.26,1.8h-6.34v5.34h5.51v1.8h-5.51v5.6h6.79v1.8h-9.04v-16.35h8.85Z"/><path class="cls-1" d="M199.02,856.28c0,1.09-.23,2.05-.68,2.88-.45.83-1.11,1.48-1.97,1.95-.86.47-1.9.7-3.1.7-1.82,0-3.22-.5-4.21-1.51-.99-1-1.48-2.34-1.48-4.02v-11.11h2.25v10.94c0,1.27.28,2.22.85,2.85.57.63,1.43.95,2.59.95s2.04-.31,2.61-.94c.57-.62.85-1.58.85-2.86v-10.94h2.28v11.11Z"/><path class="cls-1" d="M219.46,845.17l-3.32,16.35h-2.9l-3.01-13.69-3.04,13.69h-2.82l-3.32-16.35h2.21l2.63,14.38,3.16-14.38h2.4l3.23,14.38,2.73-14.38h2.06Z"/><path class="cls-1" d="M230.56,845.17l-.26,1.8h-6.34v5.34h5.51v1.8h-5.51v5.6h6.79v1.8h-9.04v-16.35h8.85Z"/><path class="cls-1" d="M245.16,861.53h-3.01l-6.64-13.88c.09,1.09.17,2.1.23,3.03.05.93.08,2.04.08,3.36v7.5h-2.11v-16.35h2.94l6.72,13.91c-.05-.41-.11-1.13-.19-2.16s-.12-1.97-.12-2.82v-8.92h2.11v16.35Z"/><path class="cls-1" d="M258.55,846.9c1.5,1.15,2.24,3.27,2.24,6.37s-.75,5.15-2.24,6.4c-1.5,1.24-3.31,1.86-5.45,1.86h-3.92v-16.35h3.42c2.47,0,4.45.57,5.94,1.72ZM251.45,846.98v12.77h1.83c1.52,0,2.75-.47,3.7-1.4s1.42-2.63,1.42-5.08c0-1.72-.25-3.05-.74-3.97-.49-.93-1.12-1.54-1.88-1.85s-1.65-.46-2.68-.46h-1.66Z"/><path class="cls-1" d="M272.62,845.17l-.26,1.8h-6.34v5.34h5.51v1.8h-5.51v5.6h6.79v1.8h-9.04v-16.35h8.85Z"/><path class="cls-1" d="M290.69,846.9c1.5,1.15,2.24,3.27,2.24,6.37s-.75,5.15-2.24,6.4c-1.5,1.24-3.31,1.86-5.45,1.86h-3.92v-16.35h3.42c2.47,0,4.45.57,5.94,1.72ZM283.58,846.98v12.77h1.83c1.52,0,2.75-.47,3.7-1.4s1.42-2.63,1.42-5.08c0-1.72-.25-3.05-.74-3.97-.49-.93-1.12-1.54-1.88-1.85s-1.65-.46-2.68-.46h-1.66Z"/><path class="cls-1" d="M298.15,845.17v16.35h-2.25v-16.35h2.25Z"/><path class="cls-1" d="M311.04,845.17l-.26,1.8h-6.34v5.34h5.51v1.8h-5.51v5.6h6.79v1.8h-9.04v-16.35h8.85Z"/><path class="cls-1" d="M325.63,861.53h-3.01l-6.64-13.88c.09,1.09.17,2.1.23,3.03.05.93.08,2.04.08,3.36v7.5h-2.11v-16.35h2.94l6.72,13.91c-.05-.41-.11-1.13-.19-2.16s-.12-1.97-.12-2.82v-8.92h2.11v16.35Z"/><path class="cls-1" d="M336.5,845.35c.77.31,1.53.79,2.25,1.44l-1.23,1.38c-.62-.49-1.22-.85-1.82-1.08-.59-.23-1.23-.34-1.91-.34-.85,0-1.56.2-2.11.59-.55.4-.83.97-.83,1.73,0,.47.09.87.29,1.2.19.32.54.62,1.06.89.51.27,1.26.55,2.24.85,1.03.32,1.88.66,2.56,1.02.68.36,1.23.87,1.65,1.51s.63,1.45.63,2.43-.23,1.79-.7,2.52-1.14,1.3-2.02,1.71c-.88.41-1.92.62-3.12.62-2.26,0-4.11-.7-5.55-2.11l1.23-1.38c.67.54,1.34.95,2.02,1.22.68.28,1.44.42,2.28.42,1.01,0,1.85-.25,2.52-.75.66-.5,1-1.22,1-2.17,0-.54-.1-.98-.31-1.34-.21-.36-.56-.68-1.06-.96-.5-.29-1.22-.57-2.17-.85-1.68-.51-2.9-1.12-3.68-1.83-.78-.71-1.16-1.68-1.16-2.9,0-.82.22-1.56.65-2.21.44-.65,1.04-1.15,1.83-1.52.78-.36,1.67-.55,2.67-.55,1.09,0,2.03.15,2.8.46Z"/><path class="cls-1" d="M351.03,845.17l-.24,1.92h-4.53v14.43h-2.25v-14.43h-4.65v-1.92h11.68Z"/><path class="cls-1" d="M363.6,845.17l-5.22,16.35h-2.42l-5.27-16.35h2.42l4.11,13.91,4.11-13.91h2.28Z"/><path class="cls-1" d="M374.26,845.17l-.26,1.8h-6.34v5.34h5.51v1.8h-5.51v5.6h6.79v1.8h-9.04v-16.35h8.85Z"/><path class="cls-1" d="M382.18,854.6h-2.54v6.93h-2.25v-16.35h4.3c2.04,0,3.59.39,4.64,1.16,1.05.78,1.58,1.93,1.58,3.46,0,1.14-.29,2.06-.88,2.78-.58.71-1.47,1.25-2.66,1.61l4.41,7.33h-2.68l-3.92-6.93ZM381.92,852.86c1.19,0,2.08-.24,2.68-.72.6-.48.9-1.26.9-2.34,0-1.01-.3-1.74-.91-2.2-.61-.45-1.59-.68-2.93-.68h-2.02v5.93h2.28Z"/><path class="cls-1" d="M393.29,845.17v14.38h6.72l-.26,1.97h-8.71v-16.35h2.25Z"/><path class="cls-1" d="M410.99,845.17l-.26,1.8h-6.34v5.34h5.51v1.8h-5.51v5.6h6.79v1.8h-9.04v-16.35h8.85Z"/><path class="cls-1" d="M425.59,861.53h-3.01l-6.64-13.88c.09,1.09.17,2.1.23,3.03.05.93.08,2.04.08,3.36v7.5h-2.11v-16.35h2.94l6.72,13.91c-.05-.41-.11-1.13-.19-2.16s-.12-1.97-.12-2.82v-8.92h2.11v16.35Z"/><path class="cls-1" d="M431.88,845.17v16.35h-2.25v-16.35h2.25Z"/><path class="cls-1" d="M447.38,861.53h-3.01l-6.64-13.88c.09,1.09.17,2.1.23,3.03.05.93.08,2.04.08,3.36v7.5h-2.11v-16.35h2.94l6.72,13.91c-.05-.41-.11-1.13-.19-2.16s-.12-1.97-.12-2.82v-8.92h2.11v16.35Z"/><path class="cls-1" d="M460.11,845.33c.75.29,1.5.75,2.24,1.37l-1.33,1.38c-.58-.47-1.15-.81-1.68-1.02-.54-.21-1.17-.31-1.9-.31-.84,0-1.61.23-2.31.68s-1.28,1.17-1.72,2.16c-.44.99-.66,2.24-.66,3.76,0,2.29.38,3.97,1.13,5.03.75,1.06,1.86,1.59,3.33,1.59,1.2,0,2.24-.25,3.11-.74v-4.94h-2.9l-.26-1.83h5.39v7.9c-1.69.97-3.47,1.45-5.34,1.45-2.15,0-3.83-.72-5.04-2.16-1.21-1.44-1.82-3.54-1.82-6.31,0-1.77.32-3.29.96-4.57s1.5-2.24,2.59-2.9c1.08-.66,2.27-.98,3.55-.98,1.03,0,1.92.15,2.67.44Z"/><path class="cls-1" d="M479.96,861.53l-1.23-4.11h-6.19l-1.23,4.11h-2.28l5.24-16.35h2.85l5.22,16.35h-2.37ZM473.08,855.59h5.1l-2.54-8.54-2.56,8.54Z"/><path class="cls-1" d="M492.85,861.53l-1.23-4.11h-6.19l-1.23,4.11h-2.28l5.24-16.35h2.85l5.22,16.35h-2.37ZM485.96,855.59h5.1l-2.54-8.54-2.56,8.54Z"/><path class="cls-1" d="M508.49,861.53h-3.01l-6.64-13.88c.09,1.09.17,2.1.23,3.03.05.93.08,2.04.08,3.36v7.5h-2.11v-16.35h2.94l6.72,13.91c-.05-.41-.11-1.13-.19-2.16s-.12-1.97-.12-2.82v-8.92h2.11v16.35Z"/><path class="cls-1" d="M223.61,869.27c.67.25,1.36.66,2.05,1.23l-1.23,1.45c-1-.81-2.05-1.21-3.16-1.21-1.36,0-2.46.52-3.29,1.57-.83,1.04-1.25,2.72-1.25,5.03s.41,3.9,1.23,4.97c.82,1.07,1.91,1.6,3.27,1.6.7,0,1.31-.12,1.83-.36.52-.24,1.08-.57,1.66-1l1.12,1.42c-.51.52-1.16.96-1.95,1.31s-1.7.52-2.73.52c-1.33,0-2.51-.33-3.55-.99-1.04-.66-1.84-1.62-2.42-2.9-.58-1.27-.87-2.8-.87-4.59s.3-3.32.9-4.59,1.42-2.23,2.44-2.88c1.03-.65,2.17-.97,3.44-.97.98,0,1.81.13,2.48.38Z"/><path class="cls-1" d="M236.97,869.87c1.04.66,1.84,1.62,2.42,2.88.58,1.27.87,2.8.87,4.6s-.29,3.29-.87,4.56c-.58,1.27-1.38,2.23-2.42,2.9s-2.24,1-3.62,1-2.58-.32-3.62-.97c-1.04-.65-1.84-1.61-2.42-2.87-.58-1.27-.87-2.79-.87-4.58s.29-3.28.87-4.56c.58-1.28,1.39-2.26,2.43-2.93,1.04-.67,2.25-1.01,3.61-1.01s2.58.33,3.62.98ZM230.03,872.36c-.79,1.08-1.19,2.75-1.19,5.03s.4,3.92,1.2,4.98c.8,1.06,1.9,1.59,3.31,1.59,3.01,0,4.51-2.2,4.51-6.6s-1.5-6.62-4.51-6.62c-1.42,0-2.53.54-3.32,1.61Z"/><path class="cls-1" d="M254.69,885.53h-3.01l-6.64-13.88c.09,1.09.17,2.1.23,3.03.05.93.08,2.04.08,3.36v7.5h-2.11v-16.35h2.94l6.72,13.91c-.05-.41-.11-1.13-.19-2.16s-.12-1.97-.12-2.82v-8.92h2.11v16.35Z"/><path class="cls-1" d="M265.55,869.35c.77.31,1.53.79,2.25,1.44l-1.23,1.38c-.62-.49-1.22-.85-1.82-1.08-.59-.23-1.23-.34-1.91-.34-.85,0-1.56.2-2.11.59-.55.4-.83.97-.83,1.73,0,.47.09.87.29,1.2.19.32.54.62,1.06.89.51.27,1.26.55,2.24.85,1.03.32,1.88.66,2.56,1.02.68.36,1.23.87,1.65,1.51s.63,1.45.63,2.43-.23,1.79-.7,2.52-1.14,1.3-2.02,1.71c-.88.41-1.92.62-3.12.62-2.26,0-4.11-.7-5.55-2.11l1.23-1.38c.67.54,1.34.95,2.02,1.22.68.28,1.44.42,2.28.42,1.01,0,1.85-.25,2.52-.75.66-.5,1-1.22,1-2.17,0-.54-.1-.98-.31-1.34-.21-.36-.56-.68-1.06-.96-.5-.29-1.22-.57-2.17-.85-1.68-.51-2.9-1.12-3.68-1.83-.78-.71-1.16-1.68-1.16-2.9,0-.82.22-1.56.65-2.21.44-.65,1.04-1.15,1.83-1.52.78-.36,1.67-.55,2.67-.55,1.09,0,2.03.15,2.8.46Z"/><path class="cls-1" d="M282.14,880.28c0,1.09-.23,2.05-.68,2.88-.45.83-1.11,1.48-1.97,1.95-.86.47-1.9.7-3.1.7-1.82,0-3.22-.5-4.21-1.51-.99-1-1.48-2.34-1.48-4.02v-11.11h2.25v10.94c0,1.27.28,2.22.85,2.85.57.63,1.43.95,2.59.95s2.04-.31,2.61-.94c.57-.62.85-1.58.85-2.86v-10.94h2.28v11.11Z"/><path class="cls-1" d="M300.56,885.53h-2.18l-.57-7.38c-.24-2.89-.37-5.12-.4-6.67l-3.54,12.2h-2.11l-3.73-12.22c0,1.98-.1,4.26-.31,6.86l-.55,7.21h-2.14l1.35-16.35h3.04l3.44,11.89,3.28-11.89h3.06l1.35,16.35Z"/><path class="cls-1" d="M312.54,869.17l-.26,1.8h-6.34v5.34h5.51v1.8h-5.51v5.6h6.79v1.8h-9.04v-16.35h8.85Z"/><path class="cls-1" d="M327.14,885.53h-3.01l-6.64-13.88c.09,1.09.17,2.1.23,3.03.05.93.08,2.04.08,3.36v7.5h-2.11v-16.35h2.94l6.72,13.91c-.05-.41-.11-1.13-.19-2.16s-.12-1.97-.12-2.82v-8.92h2.11v16.35Z"/><path class="cls-1" d="M340.83,869.17l-.24,1.92h-4.53v14.43h-2.25v-14.43h-4.65v-1.92h11.68Z"/><rect class="cls-2" x="31.69" y="529.4" width="509.27" height="114.91"/><path class="cls-1" d="M130.9,538.42l-11.24,96.43h-31.91l-6.38-72.84-7.21,72.84h-31.36l-10.54-96.43h23.45l5.41,78.25,8.05-78.25h25.11l7.21,78.25,6.8-78.25h22.62Z"/><path class="cls-1" d="M161.14,538.42v96.43h-24.56v-96.43h24.56Z"/><path class="cls-1" d="M236.76,634.85h-29.97l-17.48-74.51.42,3.33c.83,6.38,1.5,12.47,2.01,18.25.51,5.78.76,12.14.76,19.08v33.85h-20.95v-96.43h29.83l17.62,74.78c-1.02-6.66-1.8-12.88-2.36-18.66-.56-5.78-.83-12.28-.83-19.49v-36.63h20.95v96.43Z"/><path class="cls-1" d="M312.23,634.85h-29.97l-17.48-74.51.42,3.33c.83,6.38,1.5,12.47,2.01,18.25.51,5.78.76,12.14.76,19.08v33.85h-20.95v-96.43h29.83l17.62,74.78c-1.02-6.66-1.8-12.88-2.36-18.66-.55-5.78-.83-12.28-.83-19.49v-36.63h20.95v96.43Z"/><path class="cls-1" d="M365.51,634.85l-3.33-20.12h-19.15l-3.19,20.12h-24.56l23.03-96.43h29.14l22.89,96.43h-24.83ZM345.95,597.25h13.46l-6.8-41.21-6.66,41.21Z"/><path class="cls-1" d="M436.41,634.85l-3.33-20.12h-19.15l-3.19,20.12h-24.56l23.03-96.43h29.14l22.89,96.43h-24.83ZM416.84,597.25h13.46l-6.8-41.21-6.66,41.21Z"/><path class="cls-1" d="M493.15,598.91h-4.3v35.94h-24.56v-96.43h27.61c24.42,0,36.63,9.95,36.63,29.83,0,5.55-1.11,10.61-3.33,15.19-2.22,4.58-5.74,8.21-10.54,10.89l19.29,40.51h-25.95l-14.85-35.94ZM488.85,582.12h3.47c4.07,0,6.96-1.09,8.67-3.26,1.71-2.17,2.57-5.71,2.57-10.61,0-4.35-.95-7.56-2.84-9.64-1.9-2.08-4.83-3.12-8.81-3.12h-3.05v26.64Z"/></g></svg>