<?xml version="1.0" encoding="UTF-8"?><svg id="Laag_1" xmlns="http://www.w3.org/2000/svg" xmlns:xlink="http://www.w3.org/1999/xlink" viewBox="0 0 563.73 916.22"><defs><style>.cls-1{fill:url(#Naamloos_verloop_3-3);}.cls-2{fill:#887e63;}.cls-3{fill:url(#Naamloos_verloop_6);}.cls-4{fill:url(#linear-gradient-2);}.cls-5{fill:#ab2527;}.cls-6{fill:url(#Naamloos_verloop_3-2);}.cls-7{fill:#a29265;}.cls-8{fill:#fff;}.cls-9{fill:none;}.cls-10{fill:url(#Naamloos_verloop_5);}.cls-11{fill:url(#Naamloos_verloop_7);}.cls-12{fill:url(#Naamloos_verloop_4);}.cls-13{fill:url(#Naamloos_verloop_5-2);}.cls-14{fill:url(#Naamloos_verloop_6-2);}.cls-15{fill:#837a5e;}.cls-16{fill:url(#Naamloos_verloop_149);}.cls-17{fill:#67624b;}.cls-18{fill:#67614b;}.cls-19{fill:url(#Naamloos_verloop_3);}.cls-20{fill:url(#Naamloos_verloop_149-2);}.cls-21{fill:#877b57;}.cls-22{fill:url(#Naamloos_verloop_141);}.cls-23{fill:url(#linear-gradient);}</style><radialGradient id="Naamloos_verloop_4" cx="-137.81" cy="830.02" fx="-137.81" fy="830.02" r="2.64" gradientTransform="translate(19763.24 168173.12) scale(141.36 -201.9)" gradientUnits="userSpaceOnUse"><stop offset="0" stop-color="#d2232a"/><stop offset="0" stop-color="#d2232a"/><stop offset=".16" stop-color="#b71a1f"/><stop offset=".39" stop-color="#960e11"/><stop offset=".62" stop-color="#7e0607"/><stop offset=".83" stop-color="#6f0102"/><stop offset="1" stop-color="#6b0000"/></radialGradient><linearGradient id="linear-gradient" x1="406.17" y1="144.59" x2="326.21" y2="252.85" gradientUnits="userSpaceOnUse"><stop offset=".2" stop-color="#d13333"/><stop offset=".7" stop-color="#ce3232"/></linearGradient><linearGradient id="linear-gradient-2" x1="295.79" y1="187.05" x2="413.71" y2="187.05" gradientTransform="translate(20.87 -9.37) rotate(2.44)" gradientUnits="userSpaceOnUse"><stop offset=".19" stop-color="#a92626"/><stop offset=".81" stop-color="#dd2928"/></linearGradient><linearGradient id="Naamloos_verloop_7" x1="195.64" y1="145.02" x2="115.68" y2="253.28" gradientTransform="translate(347.16) rotate(-180) scale(1 -1)" gradientUnits="userSpaceOnUse"><stop offset=".37" stop-color="#ab9d78"/><stop offset=".93" stop-color="#877e64"/></linearGradient><linearGradient id="Naamloos_verloop_3" x1="152.82" y1="131.6" x2="231.55" y2="260.36" gradientUnits="userSpaceOnUse"><stop offset=".07" stop-color="#9c8d65"/><stop offset=".89" stop-color="#9e9067"/></linearGradient><linearGradient id="Naamloos_verloop_6" x1="428.99" y1="247.12" x2="476.68" y2="278.91" gradientUnits="userSpaceOnUse"><stop offset=".27" stop-color="#cfbaa2"/><stop offset=".93" stop-color="#877e64"/></linearGradient><linearGradient id="Naamloos_verloop_5" x1="329.35" y1="252.87" x2="490.55" y2="252.87" gradientUnits="userSpaceOnUse"><stop offset=".27" stop-color="#cfbaa2"/><stop offset=".83" stop-color="#c2b099"/></linearGradient><linearGradient id="Naamloos_verloop_3-2" x1="456.46" y1="221.27" x2="480.84" y2="261.13" xlink:href="#Naamloos_verloop_3"/><linearGradient id="Naamloos_verloop_6-2" x1="390.01" y1="247.12" x2="437.7" y2="278.91" gradientTransform="translate(524.69) rotate(-180) scale(1 -1)" xlink:href="#Naamloos_verloop_6"/><linearGradient id="Naamloos_verloop_5-2" x1="290.36" y1="252.87" x2="451.57" y2="252.87" gradientTransform="translate(524.69) rotate(-180) scale(1 -1)" xlink:href="#Naamloos_verloop_5"/><linearGradient id="Naamloos_verloop_3-3" x1="417.48" y1="221.27" x2="441.85" y2="261.13" gradientTransform="translate(524.69) rotate(-180) scale(1 -1)" xlink:href="#Naamloos_verloop_3"/><linearGradient id="Naamloos_verloop_141" x1="208.13" y1="85.29" x2="352.41" y2="85.29" gradientUnits="userSpaceOnUse"><stop offset=".37" stop-color="#ac9c75"/><stop offset=".93" stop-color="#887e63"/></linearGradient><linearGradient id="Naamloos_verloop_149" x1="280.27" y1="75.76" x2="320.49" y2="75.76" gradientUnits="userSpaceOnUse"><stop offset=".07" stop-color="#9a8c64"/><stop offset=".89" stop-color="#9e8f66"/></linearGradient><linearGradient id="Naamloos_verloop_149-2" x1="125.91" y1="75.76" x2="166.14" y2="75.76" gradientTransform="translate(406.18) rotate(-180) scale(1 -1)" xlink:href="#Naamloos_verloop_149"/></defs><g id="standaard_oud"><rect id="bg" class="cls-12" x=".28" y="276.67" width="563.44" height="639.55"/><rect class="cls-9" x="29.12" y="661.3" width="504.95" height="48.07"/><path class="cls-7" d="M59.12,665.63c2.19.85,4.25,2.11,6.21,3.78l-4.43,4.62c-1.54-1.21-2.99-2.08-4.34-2.62-1.35-.54-2.92-.81-4.71-.81-3.33,0-6.06,1.33-8.18,4-2.12,2.66-3.18,6.74-3.18,12.24s.84,9.88,2.53,12.42c1.69,2.54,4.25,3.81,7.71,3.81,2.62,0,4.91-.56,6.87-1.69v-11.24h-6.49l-.87-6.12h15.48v21.1c-4.66,2.83-9.61,4.25-14.86,4.25-6.16,0-10.87-1.91-14.14-5.74-3.27-3.83-4.9-9.43-4.9-16.79,0-4.7.88-8.75,2.65-12.14,1.77-3.39,4.15-5.96,7.15-7.71s6.33-2.62,9.99-2.62c2.83,0,5.34.43,7.52,1.28Z"/><path class="cls-7" d="M100.6,666.98c2.83,1.75,5,4.31,6.52,7.68,1.52,3.37,2.28,7.43,2.28,12.17s-.77,8.74-2.31,12.11c-1.54,3.37-3.73,5.95-6.55,7.74-2.83,1.79-6.16,2.68-9.99,2.68s-7.22-.87-10.05-2.62c-2.83-1.75-5.02-4.31-6.55-7.68-1.54-3.37-2.31-7.43-2.31-12.17s.77-8.69,2.31-12.08c1.54-3.39,3.73-5.98,6.59-7.77,2.85-1.79,6.19-2.68,10.02-2.68s7.22.87,10.05,2.62ZM82.93,674.56c-1.75,2.6-2.62,6.71-2.62,12.33,0,10.78,3.41,16.17,10.24,16.17,3.33,0,5.86-1.29,7.58-3.87,1.73-2.58,2.59-6.7,2.59-12.36s-.86-9.72-2.59-12.3c-1.73-2.58-4.26-3.87-7.58-3.87s-5.87,1.3-7.62,3.9Z"/><path class="cls-7" d="M148.6,694.32c0,2.91-.61,5.5-1.84,7.77-1.23,2.27-3.06,4.05-5.49,5.34-2.43,1.29-5.36,1.94-8.77,1.94-5.16,0-9.11-1.36-11.86-4.09-2.75-2.73-4.12-6.38-4.12-10.96v-29.03h8.24v28.59c0,3.04.63,5.31,1.9,6.8,1.27,1.5,3.21,2.25,5.84,2.25s4.63-.75,5.9-2.25c1.27-1.5,1.9-3.77,1.9-6.8v-28.59h8.3v29.03Z"/><path class="cls-7" d="M184.78,669.85c4.02,3.04,6.02,8.64,6.02,16.79s-1.98,13.62-5.93,16.89c-3.95,3.27-8.97,4.9-15.04,4.9h-11.74v-43.14h10.61c6.7,0,12.06,1.52,16.08,4.56ZM166.33,671.47v30.78h4.06c3.66,0,6.53-1.13,8.62-3.4,2.08-2.27,3.12-6.34,3.12-12.2,0-4.08-.53-7.23-1.59-9.46-1.06-2.23-2.46-3.73-4.18-4.53-1.73-.79-3.8-1.19-6.21-1.19h-3.81Z"/><path class="cls-7" d="M223.58,665.29l-.87,6.12h-15.92v12.05h13.86v6.12h-13.86v12.67h17.04v6.18h-25.28v-43.14h25.03Z"/><path class="cls-7" d="M263.47,708.43h-10.67l-14.79-34.9c.37,3.08.66,5.87.84,8.37.19,2.5.28,5.47.28,8.93v17.6h-7.49v-43.14h10.43l15.04,34.96c-.25-1.66-.5-3.86-.75-6.59-.25-2.73-.38-5.44-.38-8.15v-20.23h7.49v43.14Z"/><path class="cls-7" d="M297.43,665.29v36.4h17.29l-.94,6.74h-24.6v-43.14h8.24Z"/><path class="cls-7" d="M344.69,666.98c2.83,1.75,5,4.31,6.52,7.68,1.52,3.37,2.28,7.43,2.28,12.17s-.77,8.74-2.31,12.11c-1.54,3.37-3.72,5.95-6.55,7.74-2.83,1.79-6.16,2.68-9.99,2.68s-7.22-.87-10.05-2.62-5.02-4.31-6.55-7.68c-1.54-3.37-2.31-7.43-2.31-12.17s.77-8.69,2.31-12.08c1.54-3.39,3.74-5.98,6.59-7.77,2.85-1.79,6.19-2.68,10.02-2.68s7.22.87,10.05,2.62ZM327.02,674.56c-1.75,2.6-2.62,6.71-2.62,12.33,0,10.78,3.41,16.17,10.24,16.17,3.33,0,5.86-1.29,7.58-3.87,1.73-2.58,2.59-6.7,2.59-12.36s-.86-9.72-2.59-12.3c-1.73-2.58-4.26-3.87-7.58-3.87s-5.87,1.3-7.62,3.9Z"/><path class="cls-7" d="M386.76,665.29l-.87,6.56h-11.24v36.58h-8.3v-36.58h-11.61v-6.56h32.03Z"/><path class="cls-7" d="M423.6,694.32c0,2.91-.61,5.5-1.84,7.77s-3.06,4.05-5.49,5.34c-2.43,1.29-5.36,1.94-8.77,1.94-5.16,0-9.12-1.36-11.86-4.09-2.75-2.73-4.12-6.38-4.12-10.96v-29.03h8.24v28.59c0,3.04.63,5.31,1.9,6.8,1.27,1.5,3.21,2.25,5.84,2.25s4.63-.75,5.9-2.25,1.9-3.77,1.9-6.8v-28.59h8.3v29.03Z"/><path class="cls-7" d="M453.06,665.66c2.25.87,4.35,2.21,6.3,4l-4.06,4.68c-1.54-1.29-3.09-2.23-4.65-2.81-1.56-.58-3.24-.87-5.03-.87-2,0-3.61.45-4.84,1.34-1.23.9-1.84,2.15-1.84,3.78,0,1.08.24,1.98.72,2.68.48.71,1.34,1.37,2.59,2,1.25.62,3.1,1.31,5.56,2.06,4.25,1.33,7.44,2.99,9.58,4.96,2.14,1.98,3.21,4.86,3.21,8.65,0,2.58-.66,4.87-1.97,6.87-1.31,2-3.19,3.56-5.65,4.68-2.46,1.12-5.37,1.69-8.74,1.69s-6.23-.53-8.83-1.59c-2.6-1.06-4.84-2.51-6.71-4.34l4.25-4.74c1.66,1.42,3.39,2.49,5.18,3.21,1.79.73,3.77,1.09,5.93,1.09,2.37,0,4.29-.56,5.74-1.69,1.46-1.12,2.19-2.7,2.19-4.74,0-1.25-.25-2.28-.75-3.09-.5-.81-1.35-1.54-2.56-2.19-1.21-.64-2.96-1.32-5.24-2.03-4.58-1.42-7.89-3.12-9.93-5.12-2.04-2-3.06-4.62-3.06-7.87,0-2.37.62-4.45,1.87-6.24,1.25-1.79,2.99-3.18,5.21-4.18,2.23-1,4.75-1.5,7.58-1.5,3.04,0,5.68.44,7.93,1.31Z"/><rect class="cls-9" x="448.61" y="664.36" width="91.5" height="151.4"/><path class="cls-7" d="M532.2,688.9c-1.37,2.44-3.23,4.29-5.59,5.54-2.36,1.25-5.02,1.88-7.98,1.88-3.3,0-6.43-.57-9.38-1.71-2.96-1.14-6.33-3.04-10.11-5.71-3.78-2.67-8.77-6.62-14.97-11.86v20.3l-8.36-1.11v-30.37h7.76c7.05,5.63,12.5,9.79,16.33,12.5,3.84,2.7,7.09,4.58,9.77,5.63,2.67,1.05,5.46,1.58,8.36,1.58,2.61,0,4.59-.57,5.93-1.71,1.34-1.14,2-2.7,2-4.69,0-1.65-.44-3.11-1.32-4.39-.88-1.28-2.35-2.69-4.39-4.22l4.69-6.23c6.2,4.04,9.3,9.33,9.3,15.87,0,3.35-.68,6.25-2.05,8.7Z"/><path class="cls-7" d="M526.83,734.11c-4.95,2.96-12.4,4.43-22.35,4.43-19.96,0-29.94-5.83-29.94-17.49s9.98-17.66,29.94-17.66,29.77,5.89,29.77,17.66c0,5.74-2.47,10.09-7.42,13.05ZM524.4,717.09c-1.28-1-3.5-1.74-6.65-2.22-3.16-.48-7.58-.72-13.26-.72s-10.19.24-13.35.72c-3.16.48-5.37,1.22-6.65,2.22-1.28.99-1.92,2.32-1.92,3.97s.64,2.96,1.92,3.92c1.28.97,3.5,1.68,6.65,2.13,3.16.45,7.6.68,13.35.68s10.18-.23,13.31-.68c3.13-.46,5.33-1.17,6.61-2.13,1.28-.97,1.92-2.28,1.92-3.92s-.64-2.97-1.92-3.97Z"/><path class="cls-7" d="M532.2,766.27c-1.37,2.44-3.23,4.29-5.59,5.54-2.36,1.25-5.02,1.88-7.98,1.88-3.3,0-6.43-.57-9.38-1.71-2.96-1.14-6.33-3.04-10.11-5.71-3.78-2.67-8.77-6.62-14.97-11.86v20.3l-8.36-1.11v-30.37h7.76c7.05,5.63,12.5,9.79,16.33,12.5,3.84,2.7,7.09,4.58,9.77,5.63,2.67,1.05,5.46,1.58,8.36,1.58,2.61,0,4.59-.57,5.93-1.71,1.34-1.14,2-2.7,2-4.69,0-1.65-.44-3.11-1.32-4.39-.88-1.28-2.35-2.69-4.39-4.22l4.69-6.23c6.2,4.04,9.3,9.33,9.3,15.87,0,3.35-.68,6.25-2.05,8.7Z"/><path class="cls-7" d="M525.38,808.57v-17.4h-14.67c.74,1.25,1.28,2.44,1.62,3.58.34,1.14.51,2.36.51,3.67,0,3.98-1.61,7.22-4.82,9.72-3.21,2.5-7.72,3.75-13.52,3.75-3.92,0-7.39-.75-10.41-2.26-3.01-1.51-5.36-3.64-7.04-6.4-1.68-2.76-2.52-5.96-2.52-9.6,0-3.36.68-6.27,2.05-8.74,1.37-2.47,3.35-4.73,5.97-6.78l5.29,5.88c-1.76,1.48-3.06,2.91-3.88,4.31-.83,1.39-1.24,3.03-1.24,4.9,0,2.56.98,4.53,2.94,5.93,1.96,1.39,4.9,2.09,8.83,2.09s6.87-.6,8.49-1.79c1.62-1.19,2.43-2.87,2.43-5.03,0-1.02-.17-1.99-.51-2.9-.34-.91-.85-1.93-1.54-3.07v-7.17h29.85v28.57l-7.85-1.28Z"/><rect class="cls-9" x="29.12" y="710.54" width="438.05" height="101.38"/><path class="cls-7" d="M89.12,811.87l-5.77-21.47h-30.74l-5.77,21.47h-18.39l28.86-92.75h21.88l28.72,92.75h-18.79ZM56.1,776.97h23.62l-11.81-44.29-11.81,44.29Z"/><path class="cls-7" d="M217.56,719.12l-17.05,92.75h-23.09l-14.09-73.96-14.5,73.96h-22.41l-16.78-92.75h17.58l11.81,78.65,15.17-78.65h18.79l14.9,78.65,12.88-78.65h16.78Z"/><path class="cls-7" d="M279.7,811.87l-5.77-21.47h-30.74l-5.77,21.47h-18.39l28.86-92.75h21.88l28.72,92.75h-18.79ZM246.69,776.97h23.62l-11.81-44.29-11.81,44.29Z"/><path class="cls-7" d="M337.82,774.69h-11.27v37.18h-17.72v-92.75h27.65c24.52,0,36.78,9.08,36.78,27.25,0,6.17-1.52,11.27-4.56,15.3-3.04,4.03-7.78,7.29-14.23,9.8l24.29,40.4h-20.4l-20.54-37.18ZM326.55,761.94h11.01c5.64,0,9.91-1.23,12.82-3.69,2.91-2.46,4.36-6.42,4.36-11.88,0-5.01-1.5-8.66-4.5-10.94-3-2.28-7.72-3.42-14.16-3.42h-9.53v29.93Z"/><path class="cls-7" d="M448.21,728.92c8.63,6.53,12.95,18.57,12.95,36.1s-4.25,29.28-12.75,36.31c-8.5,7.03-19.28,10.54-32.35,10.54h-25.23v-92.75h22.82c14.41,0,25.92,3.27,34.56,9.8ZM408.55,732.41v66.17h8.72c7.87,0,14.05-2.44,18.52-7.31,4.47-4.88,6.71-13.62,6.71-26.24,0-8.77-1.14-15.55-3.42-20.33-2.28-4.79-5.28-8.03-8.99-9.73-3.71-1.7-8.17-2.55-13.35-2.55h-8.19Z"/><rect class="cls-9" x="31.84" y="375.8" width="500.34" height="131.02"/><path class="cls-8" d="M58.14,408.53h2.4v7.87h-24.24v-2.06l4.75-1.01-.62.86v-28.99l.62.86-4.75-.86v-2.06l8.02-.24h15.65v7.58h-2.4l-.86-5.28.82.62h-13.87l.72-.72v13.44l-.72-.72h12.82v2.88h-12.82l.72-.82v14.3l-.72-.72h14.5l-.86.72.86-5.66Z"/><path class="cls-8" d="M87.94,408.53h2.4v7.87h-24.24v-2.06l4.75-1.01-.62.86v-28.99l.62.86-4.75-.86v-2.06l8.02-.24h15.65v7.58h-2.4l-.86-5.28.82.62h-13.87l.72-.72v13.44l-.72-.72h12.82v2.88h-12.82l.72-.82v14.3l-.72-.72h14.5l-.86.72.86-5.66Z"/><path class="cls-8" d="M118.18,383.14l11.66-.24v2.06l-4.8,1.1.62-.91v31.25h-4.42l-18.43-29.33.58-.05v27.17l-.72-.86,4.85,1.01v2.06h-11.62v-2.06l4.85-1.01-.72.86v-29.04l.53.86-4.66-.82v-2.06l8.83-.24,18.19,28.85-.58.05v-26.64l.67.86-4.85-.82v-2.06Z"/><path class="cls-8" d="M164.02,407.86h2.4v8.54h-22.9v-2.06l4.7-.96-.58.82v-28.99l.58.86-4.7-.86v-2.06l12.77-.24v2.06l-5.23,1.1.53-.86v28.99l-.72-.72h12.91l-.67.72.91-6.34Z"/><path class="cls-8" d="M198.1,414.29l-1.1-.96,4.51,1.01v2.06h-12.48v-2.06l4.99-.96-.38.67-2.54-7.68.72.58h-14.69l.67-.58-2.74,7.58-.24-.53,4.9.91v2.06h-11.81v-2.06l4.42-1.01-1.01.86,11.71-31.25,3.98-.14,11.09,31.49ZM178.33,404.69l-.38-.62h13.1l-.43.67-6.29-19.54.91.05-6.91,19.44Z"/><path class="cls-8" d="M226.38,383.14l11.66-.24v2.06l-4.8,1.1.62-.91v31.25h-4.42l-18.43-29.33.58-.05v27.17l-.72-.86,4.85,1.01v2.06h-11.62v-2.06l4.85-1.01-.72.86v-29.04l.53.86-4.66-.82v-2.06l8.83-.24,18.19,28.85-.58.05v-26.64l.67.86-4.85-.82v-2.06Z"/><path class="cls-8" d="M258.01,416.79c-3.1,0-5.81-.63-8.11-1.9-2.3-1.26-4.09-3.15-5.35-5.66-1.26-2.51-1.9-5.59-1.9-9.24s.64-6.87,1.92-9.48c1.28-2.61,3.11-4.6,5.5-5.98,2.38-1.38,5.21-2.06,8.47-2.06,1.73,0,3.54.2,5.45.6,1.9.4,3.83,1.02,5.78,1.85l-.34,7.49h-2.4l-.82-5.9.62.67c-1.34-.48-2.74-.86-4.18-1.15-1.44-.29-2.8-.43-4.08-.43-2.4,0-4.48.56-6.24,1.68-1.76,1.12-3.11,2.74-4.06,4.87-.94,2.13-1.42,4.71-1.42,7.75,0,4.42,1.02,7.82,3.07,10.2,2.05,2.38,4.9,3.58,8.54,3.58,1.22,0,2.49-.14,3.82-.41,1.33-.27,2.71-.68,4.15-1.22l-.53.91v-10.37l.72.72-4.9-.62v-2.16l11.86-.24v2.16l-4.51.91.53-.77v11.66c-2.08.86-4.1,1.5-6.05,1.92-1.95.42-3.81.62-5.57.62Z"/><path class="cls-8" d="M299.38,408.53h2.4v7.87h-24.24v-2.06l4.75-1.01-.62.86v-28.99l.62.86-4.75-.86v-2.06l8.02-.24h15.65v7.58h-2.4l-.86-5.28.82.62h-13.87l.72-.72v13.44l-.72-.72h12.82v2.88h-12.82l.72-.82v14.3l-.72-.72h14.5l-.86.72.86-5.66Z"/><path class="cls-8" d="M332.17,399.51l.29-.43c2.18.03,4.01.38,5.52,1.03,1.5.66,2.63,1.59,3.38,2.81.75,1.22,1.13,2.69,1.13,4.42s-.42,3.37-1.27,4.73c-.85,1.36-2.18,2.42-3.98,3.19s-4.12,1.15-6.94,1.15h-13.34v-2.06l4.75-1.01-.62.86v-28.99l.77.91-4.9-.91v-2.06l7.92-.24h5.95c2.3,0,4.22.32,5.76.96,1.54.64,2.69,1.57,3.46,2.78.77,1.22,1.15,2.7,1.15,4.46,0,2.3-.7,4.18-2.11,5.62-1.41,1.44-3.71,2.37-6.91,2.78ZM330.01,385.78h-5.71l.72-.72v13.49l-.72-.67h4.51c1.89,0,3.46-.24,4.7-.72s2.18-1.18,2.78-2.11c.61-.93.91-2.06.91-3.41s-.27-2.4-.82-3.26c-.54-.86-1.34-1.51-2.4-1.94-1.06-.43-2.38-.65-3.98-.65ZM330.01,413.52c1.89,0,3.46-.26,4.7-.77,1.25-.51,2.18-1.24,2.81-2.18.62-.94.94-2.1.94-3.48s-.28-2.49-.84-3.43c-.56-.94-1.38-1.67-2.45-2.18-1.07-.51-2.36-.77-3.86-.77h-7.01l.72-.77v14.26l-.72-.67h5.71Z"/><path class="cls-8" d="M369.75,408.53h2.4v7.87h-24.24v-2.06l4.75-1.01-.62.86v-28.99l.62.86-4.75-.86v-2.06l8.02-.24h15.65v7.58h-2.4l-.86-5.28.82.62h-13.87l.72-.72v13.44l-.72-.72h12.82v2.88h-12.82l.72-.82v14.3l-.72-.72h14.5l-.86.72.86-5.66Z"/><path class="cls-8" d="M392.02,382.9c2.14,0,4.12.33,5.93.98,1.81.66,3.38,1.65,4.73,2.98,1.34,1.33,2.4,3.01,3.17,5.04.77,2.03,1.15,4.44,1.15,7.22,0,3.78-.68,6.94-2.04,9.5-1.36,2.56-3.22,4.5-5.59,5.81-2.37,1.31-5.07,1.97-8.11,1.97h-13.54v-2.06l4.8-1.01-.67.86v-28.99l.67.91-4.8-.91v-2.06l9.02-.24h5.28ZM391.4,413.48c1.47,0,2.88-.24,4.22-.72s2.56-1.26,3.65-2.33c1.09-1.07,1.94-2.51,2.57-4.32.62-1.81.94-4.02.94-6.65s-.3-4.76-.91-6.5c-.61-1.74-1.42-3.14-2.45-4.18-1.02-1.04-2.18-1.79-3.46-2.26-1.28-.46-2.62-.7-4.03-.7h-6.86l.72-.72v29.09l-.72-.72h6.34Z"/><path class="cls-8" d="M412.18,416.4v-2.06l4.75-1.01-.62.86v-28.99l.82.91-4.94-.91v-2.06l8.21-.24h5.62c3.62,0,6.35.75,8.21,2.26,1.86,1.5,2.78,3.68,2.78,6.53,0,2.62-.82,4.77-2.47,6.43-1.65,1.66-4.15,2.67-7.51,3.02l-.05-.48c1.25.13,2.26.41,3.05.84.78.43,1.45,1.01,1.99,1.73.54.72,1.07,1.61,1.58,2.66l4.03,8.16-1.2-.82,4.03,1.1v2.06h-5.9l-4.42-9.46c-.61-1.38-1.19-2.44-1.75-3.19-.56-.75-1.25-1.29-2.06-1.61-.82-.32-1.98-.48-3.48-.48l-3.31.05.72-.67v13.15l-.62-.86,5.57,1.01v2.06h-13.01ZM420.24,399.89l-.72-1.06h4.56c2.85,0,5.04-.58,6.58-1.75,1.54-1.17,2.3-2.89,2.3-5.16,0-1.98-.62-3.5-1.87-4.54-1.25-1.04-3.1-1.56-5.57-1.56h-6l.72-.72v14.78Z"/><path class="cls-8" d="M456,384.96l-4.7,1.06.53-.67v28.7l-.53-.67,4.7.96v2.06h-12.24v-2.06l4.66-.96-.53.67v-28.7l.62.72-4.75-.86v-2.06l12.24-.24v2.06Z"/><path class="cls-8" d="M459.75,383.14l12.67-.24v2.06l-4.7,1.1.53-.91v28.61c0,1.57-.15,2.95-.46,4.15-.3,1.2-.79,2.2-1.44,3-.66.8-1.5,1.41-2.54,1.82-1.04.42-2.3.62-3.77.62-.45,0-.9-.02-1.34-.07-.45-.05-.91-.1-1.39-.17l.34-2.88c.29.03.56.06.82.07.26.02.53.02.82.02,1.82,0,3.12-.47,3.89-1.42.77-.94,1.15-2.42,1.15-4.44v-29.33l.58.82-5.14-.77v-2.06Z"/><path class="cls-8" d="M476.55,416.4v-2.06l4.66-.96-.53.67v-28.85l.67.86-4.8-.86v-2.06l8.02-.24h15.22l.05,7.63h-2.4l-.86-5.23.82.53h-13.49l.72-.72v13.78l-.72-.67h12.34v2.93h-12.34l.72-.67v13.58l-.58-.67,5.76.96v2.06h-13.25Z"/><path class="cls-8" d="M508.9,391.06c0,1.22.32,2.21.96,2.98.64.77,1.5,1.4,2.57,1.9,1.07.5,2.25.94,3.53,1.32,1.28.38,2.56.81,3.84,1.27,1.28.46,2.45,1.04,3.5,1.73,1.06.69,1.91,1.58,2.57,2.69s.98,2.49.98,4.15c0,2.24-.57,4.08-1.7,5.52s-2.65,2.5-4.54,3.19c-1.89.69-3.95,1.03-6.19,1.03-1.6,0-3.23-.17-4.9-.5-1.66-.34-3.3-.84-4.9-1.51l.29-7.87h2.35l.82,6.14-.48-.82c1.12.51,2.29.9,3.5,1.15,1.22.26,2.4.38,3.55.38,1.5,0,2.88-.23,4.13-.7,1.25-.46,2.26-1.15,3.02-2.06s1.15-2.06,1.15-3.43c0-1.28-.33-2.31-.98-3.1-.66-.78-1.51-1.43-2.57-1.94-1.06-.51-2.22-.96-3.5-1.34s-2.56-.79-3.84-1.22c-1.28-.43-2.45-.98-3.5-1.66-1.06-.67-1.91-1.54-2.57-2.62-.66-1.07-.98-2.44-.98-4.1,0-2.05.5-3.75,1.51-5.11,1.01-1.36,2.38-2.38,4.13-3.05,1.74-.67,3.69-1.01,5.83-1.01,1.5,0,3.07.16,4.7.48,1.63.32,3.23.82,4.8,1.49l-.38,7.54h-2.4l-.72-5.76.58.58c-.96-.42-2-.74-3.12-.96-1.12-.22-2.24-.34-3.36-.34-1.31,0-2.56.18-3.74.55-1.18.37-2.14.96-2.86,1.78s-1.08,1.9-1.08,3.24Z"/><path class="cls-8" d="M89.98,449.06l11.66-.24v2.06l-4.8,1.1.62-.91v31.25h-4.42l-18.43-29.33.58-.05v27.17l-.72-.86,4.85,1.01v2.06h-11.62v-2.06l4.85-1.01-.72.86v-29.04l.53.86-4.66-.82v-2.06l8.83-.24,18.19,28.85-.58.05v-26.64l.67.86-4.85-.82v-2.06Z"/><path class="cls-8" d="M133.76,480.21l-1.1-.96,4.51,1.01v2.06h-12.48v-2.06l4.99-.96-.38.67-2.54-7.68.72.58h-14.69l.67-.58-2.74,7.58-.24-.53,4.9.91v2.06h-11.81v-2.06l4.42-1.01-1.01.86,11.71-31.25,3.98-.14,11.09,31.49ZM113.98,470.61l-.38-.62h13.1l-.43.67-6.29-19.54.91.05-6.91,19.44Z"/><path class="cls-8" d="M167.79,480.21l-1.1-.96,4.51,1.01v2.06h-12.48v-2.06l4.99-.96-.38.67-2.54-7.68.72.58h-14.69l.67-.58-2.74,7.58-.24-.53,4.9.91v2.06h-11.81v-2.06l4.42-1.01-1.01.86,11.71-31.25,3.98-.14,11.09,31.49ZM148.01,470.61l-.38-.62h13.1l-.43.67-6.29-19.54.91.05-6.91,19.44Z"/><path class="cls-8" d="M211.9,450.89l-4.8,1.1.62-1.06v29.18l-.62-.86,4.8,1.01v2.06h-11.95v-2.06l4.9-1.01-.77.86v-26.93l.62.05-10.9,20.35-2.64.19-10.56-20.64.58-.05v27.02l-.58-.82,4.75.96v2.06h-11.57v-2.06l4.8-1.01-.67.86v-29.18l.67,1.06-4.8-.86v-2.06l8.98-.24,10.42,21.07h-.58l10.75-20.83,8.54-.24v2.06Z"/><path class="cls-8" d="M241.18,482.76c-2.75,0-5.22-.62-7.42-1.87-2.19-1.25-3.92-3.13-5.18-5.64-1.26-2.51-1.9-5.62-1.9-9.34,0-2.91.39-5.46,1.18-7.66s1.88-4.02,3.29-5.5c1.41-1.47,3.03-2.57,4.87-3.29,1.84-.72,3.82-1.08,5.93-1.08s3.97.34,5.76,1.03c1.79.69,3.36,1.73,4.7,3.12,1.34,1.39,2.39,3.13,3.14,5.21.75,2.08,1.13,4.5,1.13,7.25,0,3.78-.68,6.98-2.04,9.62s-3.21,4.66-5.54,6.05c-2.34,1.39-4.98,2.09-7.92,2.09ZM241.42,479.64c1.98,0,3.82-.5,5.5-1.51,1.68-1.01,3.02-2.57,4.03-4.68,1.01-2.11,1.51-4.85,1.51-8.21s-.47-5.81-1.42-7.82c-.94-2.02-2.22-3.5-3.84-4.46-1.62-.96-3.43-1.44-5.45-1.44s-3.75.49-5.4,1.46c-1.65.98-2.97,2.51-3.96,4.61-.99,2.1-1.49,4.82-1.49,8.18s.47,5.82,1.42,7.87c.94,2.05,2.21,3.56,3.79,4.54,1.58.98,3.35,1.46,5.3,1.46Z"/><path class="cls-8" d="M273.58,469.51h-4.46l.86-.72v11.33l-.67-.82,5.95.96v2.06h-13.34v-2.06l4.85-1.01-.72.86v-29.04l.82.91-4.94-.86v-2.06l8.16-.24h5.42c2.46,0,4.5.42,6.1,1.25,1.6.83,2.8,1.98,3.6,3.46.8,1.47,1.2,3.18,1.2,5.14,0,2.14-.48,4.03-1.44,5.66s-2.39,2.9-4.3,3.82c-1.9.91-4.27,1.37-7.08,1.37ZM274.93,451.75h-5.66l.72-.72v16.27l-.86-.72h4.46c2.82,0,4.98-.7,6.5-2.11,1.52-1.41,2.28-3.31,2.28-5.71,0-2.18-.63-3.89-1.9-5.14-1.27-1.25-3.11-1.87-5.54-1.87Z"/><path class="cls-8" d="M299.84,482.33v-3.41c3.78-3.42,6.92-6.42,9.43-8.98,2.51-2.56,4.38-4.85,5.62-6.86,1.23-2.02,1.85-3.94,1.85-5.76,0-2.02-.67-3.5-2.02-4.46-1.34-.96-3.04-1.44-5.09-1.44-.93,0-1.96.11-3.1.34-1.14.22-2.3.53-3.48.91l.53-.77-.67,5.81h-2.45l-.43-7.49c1.82-.58,3.61-1.02,5.35-1.34,1.74-.32,3.35-.48,4.82-.48,2.08,0,3.92.3,5.52.89,1.6.59,2.86,1.5,3.79,2.74.93,1.23,1.39,2.82,1.39,4.78,0,2.21-.62,4.42-1.87,6.65-1.25,2.22-3.1,4.63-5.54,7.22-2.45,2.59-5.48,5.58-9.1,8.98l-.05-.53h17.38v3.22h-21.89Z"/><path class="cls-8" d="M356.33,473.78h2.4v8.54h-22.9v-2.06l4.7-.96-.58.82v-28.99l.58.86-4.7-.86v-2.06l12.77-.24v2.06l-5.23,1.1.53-.86v28.99l-.72-.72h12.91l-.67.72.91-6.34Z"/><path class="cls-8" d="M374.62,450.89l-4.7,1.06.53-.67v28.7l-.53-.67,4.7.96v2.06h-12.24v-2.06l4.66-.96-.53.67v-28.7l.62.72-4.75-.86v-2.06l12.24-.24v2.06Z"/><path class="cls-8" d="M378.36,449.06l12.67-.24v2.06l-4.7,1.1.53-.91v28.61c0,1.57-.15,2.95-.46,4.15-.3,1.2-.79,2.2-1.44,3-.66.8-1.5,1.41-2.54,1.82-1.04.42-2.3.62-3.77.62-.45,0-.9-.02-1.34-.07-.45-.05-.91-.1-1.39-.17l.34-2.88c.29.03.56.06.82.07.26.02.53.02.82.02,1.82,0,3.12-.47,3.89-1.42.77-.94,1.15-2.42,1.15-4.44v-29.33l.58.82-5.14-.77v-2.06Z"/><path class="cls-8" d="M417.44,449.06l11.66-.24v2.06l-4.8,1.1.62-.91v31.25h-4.42l-18.43-29.33.58-.05v27.17l-.72-.86,4.85,1.01v2.06h-11.62v-2.06l4.85-1.01-.72.86v-29.04l.53.86-4.66-.82v-2.06l8.83-.24,18.19,28.85-.58.05v-26.64l.67.86-4.85-.82v-2.06Z"/><path class="cls-8" d="M455.02,474.45h2.4v7.87h-24.24v-2.06l4.75-1.01-.62.86v-28.99l.62.86-4.75-.86v-2.06l8.02-.24h15.65v7.58h-2.4l-.86-5.28.82.62h-13.87l.72-.72v13.44l-.72-.72h12.82v2.88h-12.82l.72-.82v14.3l-.72-.72h14.5l-.86.72.86-5.66Z"/><path class="cls-8" d="M485.26,449.06l11.66-.24v2.06l-4.8,1.1.62-.91v31.25h-4.42l-18.43-29.33.58-.05v27.17l-.72-.86,4.85,1.01v2.06h-11.62v-2.06l4.85-1.01-.72.86v-29.04l.53.86-4.66-.82v-2.06l8.83-.24,18.19,28.85-.58.05v-26.64l.67.86-4.85-.82v-2.06Z"/><g id="lotus"><g id="blad_rood"><path class="cls-23" d="M443.6,64.1s37.53,239.75-156.84,262.19c0,0-29.55-228.24,156.84-262.19Z"/><path class="cls-5" d="M443.6,64.09s37.53,239.75-156.84,262.19"/><path class="cls-4" d="M428.24,89.69s22.42,165.99-122.79,205.74c0,0-16.4-161.18,122.79-205.74Z"/></g><path class="cls-11" d="M114.09,64.53s-37.53,239.75,156.84,262.19c0,0,29.55-228.24-156.84-262.19Z"/><path class="cls-19" d="M132.02,91.87s-22.42,165.99,122.79,205.74c0,0,16.4-161.18-122.79-205.74Z"/><path class="cls-17" d="M329.35,333.56s112.94-18.65,141.31-165.36c0,0,55.13-13.59,93.01,16.1,0,0-92.12,200.8-234.32,149.26Z"/><path class="cls-3" d="M329.35,333.56s112.94-18.65,141.31-165.36c0,0,55.13-13.59,93.01,16.1,0,0-12.75,1.17-31.01,9.19-38.52,16.92-61.34,86.05-113.71,119.74-22.52,14.49-56.35,32.38-89.61,20.32Z"/><path class="cls-10" d="M486.73,186.52c14.98,31.86-15.41,93.02-67.78,126.71-22.52,14.49-56.35,32.38-89.61,20.32,0,0,112.94-18.65,141.31-165.36"/><path class="cls-6" d="M486.73,186.52s-1.05,44.86-67.78,126.71c0,0,80.9-33.63,113.71-119.74,0,0,1.64-11.48-45.93-6.97Z"/><path class="cls-15" d="M234.32,333.56s-112.94-18.65-141.31-165.36c0,0-55.13-13.59-93.01,16.1,0,0,92.12,200.8,234.32,149.26Z"/><path class="cls-14" d="M234.32,333.56s-112.94-18.65-141.31-165.36c0,0-55.13-13.59-93.01,16.1,0,0,12.75,1.17,31.01,9.19,38.52,16.92,61.34,86.05,113.71,119.74,22.52,14.49,56.35,32.38,89.61,20.32Z"/><path class="cls-13" d="M76.94,186.52c-14.98,31.86,15.41,93.02,67.78,126.71,22.52,14.49,56.35,32.38,89.61,20.32,0,0-112.94-18.65-141.31-165.36"/><path class="cls-1" d="M76.94,186.52s1.05,44.86,67.78,126.71c0,0-80.9-33.63-113.71-119.74,0,0-1.64-11.48,45.93-6.97Z"/><path class="cls-22" d="M280.27,0c-42.28,34.73-72.14,79.33-72.14,79.33,56.28,39.15,72.61,91.26,72.61,91.26,0,0,15.37-53.38,71.66-92.54,0,0-29.86-43.31-72.14-78.05Z"/><path class="cls-2" d="M280.75,170.58s15.37-53.38,71.66-92.54c0,0-29.86-43.31-72.14-78.05"/><path class="cls-18" d="M280.75,170.58s15.37-53.38,71.66-92.54c0,0-37.05-1.41-72.14-11.21"/><path class="cls-21" d="M280.75,170.58s-16.33-52.1-72.61-91.26c0,0,38.32-3.57,72.14-15.15"/><path class="cls-16" d="M280.27,27.68s31.18,24.99,40.22,47.16c0,0-30.83,30.55-40.22,49"/><path class="cls-20" d="M280.27,27.68s-31.18,24.99-40.22,47.16c0,0,30.83,30.55,40.22,49"/></g><rect class="cls-9" x="26.88" y="841.49" width="500.34" height="49.7"/><path class="cls-8" d="M56.34,846.02l-2.37.55.31-.52v14.43l-.31-.43,2.37.5v1.02h-5.91v-1.02l2.42-.5-.38.43v-13.31l.31.02-5.39,10.06-1.3.09-5.22-10.2.28-.02v13.36l-.28-.4,2.35.47v1.02h-5.72v-1.02l2.37-.5-.33.43v-14.43l.33.52-2.37-.43v-1.02l4.44-.12,5.15,10.42h-.28l5.32-10.3,4.22-.12v1.02Z"/><path class="cls-8" d="M68.73,857.67h1.19v3.89h-11.98v-1.02l2.35-.5-.31.43v-14.33l.31.43-2.35-.43v-1.02l3.96-.12h7.74v3.75h-1.19l-.43-2.61.4.31h-6.86l.36-.36v6.64l-.36-.36h6.34v1.42h-6.34l.36-.4v7.07l-.36-.36h7.17l-.43.36.43-2.8Z"/><path class="cls-8" d="M82.75,857.67h1.19v3.89h-11.98v-1.02l2.35-.5-.31.43v-14.33l.31.43-2.35-.43v-1.02l3.96-.12h7.74v3.75h-1.19l-.43-2.61.4.31h-6.86l.36-.36v6.64l-.36-.36h6.34v1.42h-6.34l.36-.4v7.07l-.36-.36h7.17l-.43.36.43-2.8Z"/><path class="cls-8" d="M88.59,849.03c0,.6.16,1.09.47,1.47.32.38.74.69,1.27.94s1.11.46,1.74.65c.63.19,1.27.4,1.9.63s1.21.51,1.73.85c.52.34.95.78,1.27,1.33.32.54.49,1.23.49,2.05,0,1.11-.28,2.02-.84,2.73s-1.31,1.24-2.24,1.58-1.95.51-3.06.51c-.79,0-1.6-.08-2.42-.25-.82-.17-1.63-.42-2.42-.75l.14-3.89h1.16l.4,3.04-.24-.4c.55.25,1.13.44,1.73.57.6.13,1.19.19,1.76.19.74,0,1.42-.12,2.04-.34.62-.23,1.12-.57,1.5-1.02.38-.45.57-1.02.57-1.7,0-.63-.16-1.14-.49-1.53-.32-.39-.75-.71-1.27-.96-.52-.25-1.1-.47-1.73-.66-.63-.19-1.27-.39-1.9-.61s-1.21-.49-1.73-.82c-.52-.33-.95-.76-1.27-1.29-.33-.53-.49-1.21-.49-2.03,0-1.01.25-1.86.75-2.53.5-.67,1.18-1.17,2.04-1.51.86-.33,1.82-.5,2.88-.5.74,0,1.52.08,2.33.24s1.6.4,2.37.74l-.19,3.73h-1.19l-.36-2.85.29.28c-.47-.21-.99-.36-1.54-.47-.55-.11-1.11-.17-1.66-.17-.65,0-1.27.09-1.85.27-.59.18-1.06.47-1.41.88-.36.4-.53.94-.53,1.6Z"/><path class="cls-8" d="M101.19,861.56v-1.02l2.75-.5-.38.52v-14.48l.43.36h-4.58l.47-.4-.47,3.01h-1.19v-4.06h12.6v4.06h-1.19l-.47-2.97.47.36h-4.58l.43-.36v14.48l-.36-.52,2.73.5v1.02h-6.67Z"/><path class="cls-8" d="M121.86,861.59l-5.17-15.4.52.38-2.3-.43v-1.02l6.26-.12v1.02l-2.59.5.24-.5,4.37,13.83h-.31l4.67-13.72.19.4-2.54-.4v-1.02l5.93-.12v1.02l-2.3.5.5-.38-5.43,15.45h-2.04Z"/><path class="cls-8" d="M141.89,857.67h1.19v3.89h-11.98v-1.02l2.35-.5-.31.43v-14.33l.31.43-2.35-.43v-1.02l3.96-.12h7.74v3.75h-1.19l-.43-2.61.4.31h-6.86l.36-.36v6.64l-.36-.36h6.34v1.42h-6.34l.36-.4v7.07l-.36-.36h7.17l-.43.36.43-2.8Z"/><path class="cls-8" d="M145.12,861.56v-1.02l2.35-.5-.31.43v-14.33l.4.45-2.44-.45v-1.02l4.06-.12h2.78c1.79,0,3.14.37,4.06,1.12.92.74,1.38,1.82,1.38,3.23,0,1.3-.41,2.36-1.22,3.18-.82.82-2.05,1.32-3.71,1.5l-.02-.24c.62.06,1.12.2,1.51.42.39.21.72.5.98.85.27.36.53.79.78,1.32l1.99,4.03-.59-.4,1.99.55v1.02h-2.92l-2.18-4.67c-.3-.68-.59-1.21-.87-1.58-.28-.37-.62-.64-1.02-.79-.4-.16-.98-.24-1.72-.24l-1.64.02.36-.33v6.5l-.31-.43,2.75.5v1.02h-6.43ZM149.11,853.4l-.36-.52h2.25c1.41,0,2.49-.29,3.25-.87.76-.58,1.14-1.43,1.14-2.55,0-.98-.31-1.73-.93-2.24-.62-.51-1.53-.77-2.75-.77h-2.97l.36-.36v7.31Z"/><path class="cls-8" d="M171.03,845.12l5.77-.12v1.02l-2.37.55.31-.45v15.45h-2.18l-9.11-14.5.29-.02v13.43l-.36-.43,2.4.5v1.02h-5.74v-1.02l2.4-.5-.36.43v-14.36l.26.43-2.3-.4v-1.02l4.37-.12,8.99,14.26-.28.02v-13.17l.33.43-2.4-.4v-1.02Z"/><path class="cls-8" d="M184.16,846.02l-2.33.52.26-.33v14.19l-.26-.33,2.33.47v1.02h-6.05v-1.02l2.3-.47-.26.33v-14.19l.31.36-2.35-.43v-1.02l6.05-.12v1.02Z"/><path class="cls-8" d="M196.54,857.67h1.19v3.89h-11.98v-1.02l2.35-.5-.31.43v-14.33l.31.43-2.35-.43v-1.02l3.96-.12h7.74v3.75h-1.19l-.43-2.61.4.31h-6.86l.36-.36v6.64l-.36-.36h6.34v1.42h-6.34l.36-.4v7.07l-.36-.36h7.17l-.43.36.43-2.8Z"/><path class="cls-8" d="M209.67,845.12l6.05-.12v1.02l-2.35.52.29-.5v9.25c0,.59-.05,1.19-.14,1.8-.09.62-.27,1.2-.52,1.76-.25.55-.61,1.05-1.07,1.5-.46.44-1.06.79-1.79,1.04-.74.25-1.64.38-2.72.38-1.2,0-2.19-.15-2.97-.45s-1.38-.7-1.8-1.2c-.43-.5-.73-1.03-.9-1.59-.17-.56-.29-1.1-.33-1.63-.05-.52-.07-.97-.07-1.35v-9.52l.28.5-2.33-.4v-1.02l6.05-.12v1.02l-2.33.52.26-.5v9.52c0,.4.02.81.05,1.25.03.43.11.86.25,1.27s.35.78.65,1.1.71.58,1.22.78c.51.2,1.17.3,1.98.3s1.5-.1,2.03-.31c.53-.21.95-.48,1.26-.83.31-.35.53-.74.68-1.17.14-.43.23-.88.26-1.33.03-.45.05-.89.05-1.32v-9.25l.24.47-2.28-.38v-1.02Z"/><path class="cls-8" d="M233.61,845.12l5.84-.12v1.02l-2.28.5.5-.52-4.41,15.59h-1.87l-4.15-14.19.36.02-4.39,14.17h-1.88l-4.08-15.47.26.38-2.11-.36v-1.02l6.05-.12v1.02l-2.49.5.28-.4,3.39,13.67h-.4l4.41-14.69,1.78-.09,4.22,14.74h-.4l3.7-13.6.21.38-2.54-.38v-1.02Z"/><path class="cls-8" d="M250.22,857.67h1.19v3.89h-11.98v-1.02l2.35-.5-.31.43v-14.33l.31.43-2.35-.43v-1.02l3.96-.12h7.74v3.75h-1.19l-.43-2.61.4.31h-6.86l.36-.36v6.64l-.36-.36h6.34v1.42h-6.34l.36-.4v7.07l-.36-.36h7.17l-.43.36.43-2.8Z"/><path class="cls-8" d="M264.46,845.12l5.77-.12v1.02l-2.37.55.31-.45v15.45h-2.18l-9.11-14.5.29-.02v13.43l-.36-.43,2.4.5v1.02h-5.74v-1.02l2.4-.5-.36.43v-14.36l.26.43-2.3-.4v-1.02l4.37-.12,8.99,14.26-.28.02v-13.17l.33.43-2.4-.4v-1.02Z"/><path class="cls-8" d="M278.61,845c1.06,0,2.04.16,2.93.49.89.32,1.67.82,2.34,1.47.67.66,1.19,1.49,1.57,2.49.38,1,.57,2.2.57,3.57,0,1.87-.34,3.43-1.01,4.7-.67,1.27-1.59,2.22-2.76,2.87-1.17.65-2.51.97-4.01.97h-6.69v-1.02l2.37-.5-.33.43v-14.33l.33.45-2.37-.45v-1.02l4.46-.12h2.61ZM278.3,860.12c.73,0,1.42-.12,2.09-.36.67-.24,1.27-.62,1.8-1.15.54-.53.96-1.24,1.27-2.14.31-.89.46-1.99.46-3.29s-.15-2.35-.45-3.22-.7-1.55-1.21-2.06c-.51-.51-1.08-.89-1.71-1.12-.63-.23-1.3-.34-1.99-.34h-3.39l.36-.36v14.38l-.36-.36h3.13Z"/><path class="cls-8" d="M298.66,857.67h1.19v3.89h-11.98v-1.02l2.35-.5-.31.43v-14.33l.31.43-2.35-.43v-1.02l3.96-.12h7.74v3.75h-1.19l-.43-2.61.4.31h-6.86l.36-.36v6.64l-.36-.36h6.34v1.42h-6.34l.36-.4v7.07l-.36-.36h7.17l-.43.36.43-2.8Z"/><path class="cls-8" d="M312.99,845c1.06,0,2.04.16,2.93.49.89.32,1.67.82,2.34,1.47.67.66,1.19,1.49,1.57,2.49.38,1,.57,2.2.57,3.57,0,1.87-.34,3.43-1.01,4.7-.67,1.27-1.59,2.22-2.76,2.87-1.17.65-2.51.97-4.01.97h-6.69v-1.02l2.37-.5-.33.43v-14.33l.33.45-2.37-.45v-1.02l4.46-.12h2.61ZM312.69,860.12c.73,0,1.42-.12,2.09-.36.67-.24,1.27-.62,1.8-1.15.54-.53.96-1.24,1.27-2.14.31-.89.46-1.99.46-3.29s-.15-2.35-.45-3.22-.7-1.55-1.21-2.06c-.51-.51-1.08-.89-1.71-1.12-.63-.23-1.3-.34-1.99-.34h-3.39l.36-.36v14.38l-.36-.36h3.13Z"/><path class="cls-8" d="M328.3,846.02l-2.33.52.26-.33v14.19l-.26-.33,2.33.47v1.02h-6.05v-1.02l2.3-.47-.26.33v-14.19l.31.36-2.35-.43v-1.02l6.05-.12v1.02Z"/><path class="cls-8" d="M340.69,857.67h1.19v3.89h-11.98v-1.02l2.35-.5-.31.43v-14.33l.31.43-2.35-.43v-1.02l3.96-.12h7.74v3.75h-1.19l-.43-2.61.4.31h-6.86l.36-.36v6.64l-.36-.36h6.34v1.42h-6.34l.36-.4v7.07l-.36-.36h7.17l-.43.36.43-2.8Z"/><path class="cls-8" d="M354.93,845.12l5.77-.12v1.02l-2.37.55.31-.45v15.45h-2.18l-9.11-14.5.29-.02v13.43l-.36-.43,2.4.5v1.02h-5.74v-1.02l2.4-.5-.36.43v-14.36l.26.43-2.3-.4v-1.02l4.37-.12,8.99,14.26-.28.02v-13.17l.33.43-2.4-.4v-1.02Z"/><path class="cls-8" d="M364.18,849.03c0,.6.16,1.09.47,1.47.32.38.74.69,1.27.94s1.11.46,1.74.65c.63.19,1.27.4,1.9.63s1.21.51,1.73.85c.52.34.95.78,1.27,1.33.32.54.49,1.23.49,2.05,0,1.11-.28,2.02-.84,2.73s-1.31,1.24-2.24,1.58-1.95.51-3.06.51c-.79,0-1.6-.08-2.42-.25-.82-.17-1.63-.42-2.42-.75l.14-3.89h1.16l.4,3.04-.24-.4c.55.25,1.13.44,1.73.57.6.13,1.19.19,1.76.19.74,0,1.42-.12,2.04-.34.62-.23,1.12-.57,1.5-1.02.38-.45.57-1.02.57-1.7,0-.63-.16-1.14-.49-1.53-.32-.39-.75-.71-1.27-.96-.52-.25-1.1-.47-1.73-.66-.63-.19-1.27-.39-1.9-.61s-1.21-.49-1.73-.82c-.52-.33-.95-.76-1.27-1.29-.33-.53-.49-1.21-.49-2.03,0-1.01.25-1.86.75-2.53.5-.67,1.18-1.17,2.04-1.51.86-.33,1.82-.5,2.88-.5.74,0,1.52.08,2.33.24s1.6.4,2.37.74l-.19,3.73h-1.19l-.36-2.85.29.28c-.47-.21-.99-.36-1.54-.47-.55-.11-1.11-.17-1.66-.17-.65,0-1.27.09-1.85.27-.59.18-1.06.47-1.41.88-.36.4-.53.94-.53,1.6Z"/><path class="cls-8" d="M376.78,861.56v-1.02l2.75-.5-.38.52v-14.48l.43.36h-4.58l.47-.4-.47,3.01h-1.19v-4.06h12.6v4.06h-1.19l-.47-2.97.47.36h-4.58l.43-.36v14.48l-.36-.52,2.73.5v1.02h-6.67Z"/><path class="cls-8" d="M393.02,861.59l-5.17-15.4.52.38-2.3-.43v-1.02l6.26-.12v1.02l-2.59.5.24-.5,4.37,13.83h-.31l4.67-13.72.19.4-2.54-.4v-1.02l5.93-.12v1.02l-2.3.5.5-.38-5.43,15.45h-2.04Z"/><path class="cls-8" d="M413.05,857.67h1.19v3.89h-11.98v-1.02l2.35-.5-.31.43v-14.33l.31.43-2.35-.43v-1.02l3.96-.12h7.74v3.75h-1.19l-.43-2.61.4.31h-6.86l.36-.36v6.64l-.36-.36h6.34v1.42h-6.34l.36-.4v7.07l-.36-.36h7.17l-.43.36.43-2.8Z"/><path class="cls-8" d="M416.27,861.56v-1.02l2.35-.5-.31.43v-14.33l.4.45-2.44-.45v-1.02l4.06-.12h2.78c1.79,0,3.14.37,4.06,1.12.92.74,1.38,1.82,1.38,3.23,0,1.3-.41,2.36-1.22,3.18-.82.82-2.05,1.32-3.71,1.5l-.02-.24c.62.06,1.12.2,1.51.42.39.21.72.5.98.85.27.36.53.79.78,1.32l1.99,4.03-.59-.4,1.99.55v1.02h-2.92l-2.18-4.67c-.3-.68-.59-1.21-.87-1.58-.28-.37-.62-.64-1.02-.79-.4-.16-.98-.24-1.72-.24l-1.64.02.36-.33v6.5l-.31-.43,2.75.5v1.02h-6.43ZM420.26,853.4l-.36-.52h2.25c1.41,0,2.49-.29,3.25-.87.76-.58,1.14-1.43,1.14-2.55,0-.98-.31-1.73-.93-2.24-.62-.51-1.53-.77-2.75-.77h-2.97l.36-.36v7.31Z"/><path class="cls-8" d="M441.31,857.34h1.19v4.22h-11.32v-1.02l2.33-.47-.28.4v-14.33l.28.43-2.33-.43v-1.02l6.31-.12v1.02l-2.59.55.26-.43v14.33l-.36-.36h6.38l-.33.36.45-3.13Z"/><path class="cls-8" d="M454.39,857.67h1.19v3.89h-11.98v-1.02l2.35-.5-.31.43v-14.33l.31.43-2.35-.43v-1.02l3.96-.12h7.74v3.75h-1.19l-.43-2.61.4.31h-6.86l.36-.36v6.64l-.36-.36h6.34v1.42h-6.34l.36-.4v7.07l-.36-.36h7.17l-.43.36.43-2.8Z"/><path class="cls-8" d="M468.63,845.12l5.77-.12v1.02l-2.37.55.31-.45v15.45h-2.18l-9.11-14.5.29-.02v13.43l-.36-.43,2.4.5v1.02h-5.74v-1.02l2.4-.5-.36.43v-14.36l.26.43-2.3-.4v-1.02l4.37-.12,8.99,14.26-.28.02v-13.17l.33.43-2.4-.4v-1.02Z"/><path class="cls-8" d="M481.75,846.02l-2.33.52.26-.33v14.19l-.26-.33,2.33.47v1.02h-6.05v-1.02l2.3-.47-.26.33v-14.19l.31.36-2.35-.43v-1.02l6.05-.12v1.02Z"/><path class="cls-8" d="M494.35,845.12l5.77-.12v1.02l-2.37.55.31-.45v15.45h-2.18l-9.11-14.5.29-.02v13.43l-.36-.43,2.4.5v1.02h-5.74v-1.02l2.4-.5-.36.43v-14.36l.26.43-2.3-.4v-1.02l4.37-.12,8.99,14.26-.28.02v-13.17l.33.43-2.4-.4v-1.02Z"/><path class="cls-8" d="M509.28,861.75c-1.53,0-2.87-.31-4.01-.94-1.14-.62-2.02-1.56-2.65-2.8s-.94-2.76-.94-4.57.32-3.4.95-4.69c.63-1.29,1.54-2.27,2.72-2.95,1.18-.68,2.57-1.02,4.19-1.02.85,0,1.75.1,2.69.3s1.89.5,2.86.91l-.17,3.7h-1.19l-.4-2.92.31.33c-.67-.24-1.35-.43-2.06-.57-.71-.14-1.38-.21-2.02-.21-1.19,0-2.21.28-3.08.83s-1.54,1.36-2.01,2.41c-.47,1.05-.7,2.33-.7,3.83,0,2.18.51,3.87,1.52,5.04,1.01,1.18,2.42,1.77,4.22,1.77.6,0,1.23-.07,1.89-.2.66-.13,1.34-.34,2.05-.6l-.26.45v-5.13l.36.36-2.42-.31v-1.07l5.86-.12v1.07l-2.23.45.26-.38v5.77c-1.03.43-2.03.74-2.99.95-.96.21-1.88.31-2.75.31Z"/><path class="cls-8" d="M192.76,884.52l-.55-.47,2.23.5v1.02h-6.17v-1.02l2.47-.47-.19.33-1.26-3.8.36.29h-7.26l.33-.29-1.35,3.75-.12-.26,2.42.45v1.02h-5.84v-1.02l2.18-.5-.5.43,5.79-15.45,1.97-.07,5.48,15.57ZM182.98,879.77l-.19-.31h6.48l-.21.33-3.11-9.66.45.02-3.42,9.61Z"/><path class="cls-8" d="M208.94,884.52l-.55-.47,2.23.5v1.02h-6.17v-1.02l2.47-.47-.19.33-1.26-3.8.36.29h-7.26l.33-.29-1.35,3.75-.12-.26,2.42.45v1.02h-5.84v-1.02l2.18-.5-.5.43,5.79-15.45,1.97-.07,5.48,15.57ZM199.17,879.77l-.19-.31h6.48l-.21.33-3.11-9.66.45.02-3.42,9.61Z"/><path class="cls-8" d="M221.5,869.12l5.77-.12v1.02l-2.37.55.31-.45v15.45h-2.18l-9.11-14.5.29-.02v13.43l-.36-.43,2.4.5v1.02h-5.74v-1.02l2.4-.5-.36.43v-14.36l.26.43-2.3-.4v-1.02l4.37-.12,8.99,14.26-.28.02v-13.17l.33.43-2.4-.4v-1.02Z"/><path class="cls-8" d="M239.75,885.78c-1.27,0-2.42-.32-3.46-.97-1.04-.65-1.87-1.6-2.48-2.85-.61-1.25-.91-2.78-.91-4.6s.31-3.32.93-4.6c.62-1.28,1.48-2.26,2.59-2.94,1.11-.68,2.4-1.02,3.87-1.02.79,0,1.61.09,2.47.29.85.19,1.74.49,2.66.9l-.17,3.73h-1.16l-.43-2.94.36.38c-.63-.27-1.27-.47-1.91-.61-.64-.13-1.24-.2-1.79-.2-1.09,0-2.03.27-2.82.82-.79.55-1.4,1.33-1.84,2.34s-.65,2.22-.65,3.63c0,1.52.23,2.8.69,3.84.46,1.04,1.09,1.84,1.89,2.38.8.55,1.7.82,2.69.82.73,0,1.49-.16,2.29-.47s1.57-.8,2.31-1.45l.78,1.16c-.93.81-1.91,1.4-2.92,1.79-1.01.39-2,.58-2.97.58Z"/><path class="cls-8" d="M254.01,885.78c-1.36,0-2.58-.31-3.67-.93-1.08-.62-1.94-1.55-2.56-2.79s-.94-2.78-.94-4.62c0-1.44.19-2.7.58-3.79s.93-1.99,1.63-2.72c.7-.73,1.5-1.27,2.41-1.62.91-.36,1.89-.53,2.93-.53s1.96.17,2.85.51c.89.34,1.66.85,2.33,1.54.66.69,1.18,1.55,1.55,2.58s.56,2.22.56,3.58c0,1.87-.34,3.45-1.01,4.76-.67,1.3-1.59,2.3-2.74,2.99-1.16.69-2.46,1.03-3.92,1.03ZM254.13,884.23c.98,0,1.89-.25,2.72-.75.83-.5,1.5-1.27,1.99-2.31.5-1.04.75-2.4.75-4.06s-.23-2.87-.7-3.87c-.47-1-1.1-1.73-1.9-2.21s-1.7-.71-2.69-.71-1.86.24-2.67.72c-.82.48-1.47,1.24-1.96,2.28s-.74,2.38-.74,4.05.23,2.88.7,3.89c.47,1.01,1.09,1.76,1.88,2.24s1.66.72,2.62.72Z"/><path class="cls-8" d="M274.56,869.12l5.77-.12v1.02l-2.37.55.31-.45v15.45h-2.18l-9.11-14.5.29-.02v13.43l-.36-.43,2.4.5v1.02h-5.74v-1.02l2.4-.5-.36.43v-14.36l.26.43-2.3-.4v-1.02l4.37-.12,8.99,14.26-.28.02v-13.17l.33.43-2.4-.4v-1.02Z"/><path class="cls-8" d="M283.82,873.03c0,.6.16,1.09.47,1.47.32.38.74.69,1.27.94s1.11.46,1.74.65c.63.19,1.27.4,1.9.63s1.21.51,1.73.85c.52.34.95.78,1.27,1.33.32.54.49,1.23.49,2.05,0,1.11-.28,2.02-.84,2.73s-1.31,1.24-2.24,1.58-1.95.51-3.06.51c-.79,0-1.6-.08-2.42-.25-.82-.17-1.63-.42-2.42-.75l.14-3.89h1.16l.4,3.04-.24-.4c.55.25,1.13.44,1.73.57.6.13,1.19.19,1.76.19.74,0,1.42-.12,2.04-.34.62-.23,1.12-.57,1.5-1.02.38-.45.57-1.02.57-1.7,0-.63-.16-1.14-.49-1.53-.32-.39-.75-.71-1.27-.96-.52-.25-1.1-.47-1.73-.66-.63-.19-1.27-.39-1.9-.61s-1.21-.49-1.73-.82c-.52-.33-.95-.76-1.27-1.29-.33-.53-.49-1.21-.49-2.03,0-1.01.25-1.86.75-2.53.5-.67,1.18-1.17,2.04-1.51.86-.33,1.82-.5,2.88-.5.74,0,1.52.08,2.33.24s1.6.4,2.37.74l-.19,3.73h-1.19l-.36-2.85.29.28c-.47-.21-.99-.36-1.54-.47-.55-.11-1.11-.17-1.66-.17-.65,0-1.27.09-1.85.27-.59.18-1.06.47-1.41.88-.36.4-.53.94-.53,1.6Z"/><path class="cls-8" d="M304.63,869.12l6.05-.12v1.02l-2.35.52.29-.5v9.25c0,.59-.05,1.19-.14,1.8-.09.62-.27,1.2-.52,1.76-.25.55-.61,1.05-1.07,1.5-.46.44-1.06.79-1.79,1.04-.74.25-1.64.38-2.72.38-1.2,0-2.19-.15-2.97-.45s-1.38-.7-1.8-1.2c-.43-.5-.73-1.03-.9-1.59-.17-.56-.29-1.1-.33-1.63-.05-.52-.07-.97-.07-1.35v-9.52l.28.5-2.33-.4v-1.02l6.05-.12v1.02l-2.33.52.26-.5v9.52c0,.4.02.81.05,1.25.03.43.11.86.25,1.27s.35.78.65,1.1.71.58,1.22.78c.51.2,1.17.3,1.98.3s1.5-.1,2.03-.31c.53-.21.95-.48,1.26-.83.31-.35.53-.74.68-1.17.14-.43.23-.88.26-1.33.03-.45.05-.89.05-1.32v-9.25l.24.47-2.28-.38v-1.02Z"/><path class="cls-8" d="M330.47,870.02l-2.37.55.31-.52v14.43l-.31-.43,2.37.5v1.02h-5.91v-1.02l2.42-.5-.38.43v-13.31l.31.02-5.39,10.06-1.3.09-5.22-10.2.28-.02v13.36l-.28-.4,2.35.47v1.02h-5.72v-1.02l2.37-.5-.33.43v-14.43l.33.52-2.37-.43v-1.02l4.44-.12,5.15,10.42h-.28l5.32-10.3,4.22-.12v1.02Z"/><path class="cls-8" d="M342.86,881.67h1.19v3.89h-11.98v-1.02l2.35-.5-.31.43v-14.33l.31.43-2.35-.43v-1.02l3.96-.12h7.74v3.75h-1.19l-.43-2.61.4.31h-6.86l.36-.36v6.64l-.36-.36h6.34v1.42h-6.34l.36-.4v7.07l-.36-.36h7.17l-.43.36.43-2.8Z"/><path class="cls-8" d="M357.1,869.12l5.77-.12v1.02l-2.37.55.31-.45v15.45h-2.18l-9.11-14.5.29-.02v13.43l-.36-.43,2.4.5v1.02h-5.74v-1.02l2.4-.5-.36.43v-14.36l.26.43-2.3-.4v-1.02l4.37-.12,8.99,14.26-.28.02v-13.17l.33.43-2.4-.4v-1.02Z"/><path class="cls-8" d="M366.09,885.56v-1.02l2.75-.5-.38.52v-14.48l.43.36h-4.58l.47-.4-.47,3.01h-1.19v-4.06h12.6v4.06h-1.19l-.47-2.97.47.36h-4.58l.43-.36v14.48l-.36-.52,2.73.5v1.02h-6.67Z"/><rect class="cls-9" x="31.69" y="529.4" width="509.27" height="114.91"/><path class="cls-8" d="M130.9,538.42l-11.24,96.43h-31.91l-6.38-72.84-7.21,72.84h-31.36l-10.54-96.43h23.45l5.41,78.25,8.05-78.25h25.11l7.21,78.25,6.8-78.25h22.62Z"/><path class="cls-8" d="M161.14,538.42v96.43h-24.56v-96.43h24.56Z"/><path class="cls-8" d="M236.76,634.85h-29.97l-17.48-74.51.42,3.33c.83,6.38,1.5,12.47,2.01,18.25.51,5.78.76,12.14.76,19.08v33.85h-20.95v-96.43h29.83l17.62,74.78c-1.02-6.66-1.8-12.88-2.36-18.66-.56-5.78-.83-12.28-.83-19.49v-36.63h20.95v96.43Z"/><path class="cls-8" d="M312.24,634.85h-29.97l-17.48-74.51.42,3.33c.83,6.38,1.5,12.47,2.01,18.25.51,5.78.76,12.14.76,19.08v33.85h-20.95v-96.43h29.83l17.62,74.78c-1.02-6.66-1.8-12.88-2.36-18.66-.55-5.78-.83-12.28-.83-19.49v-36.63h20.95v96.43Z"/><path class="cls-8" d="M365.51,634.85l-3.33-20.12h-19.15l-3.19,20.12h-24.56l23.03-96.43h29.14l22.89,96.43h-24.83ZM345.95,597.25h13.46l-6.8-41.21-6.66,41.21Z"/><path class="cls-8" d="M436.41,634.85l-3.33-20.12h-19.15l-3.19,20.12h-24.56l23.03-96.43h29.14l22.89,96.43h-24.83ZM416.85,597.25h13.46l-6.8-41.21-6.66,41.21Z"/><path class="cls-8" d="M493.16,598.91h-4.3v35.94h-24.56v-96.43h27.61c24.42,0,36.63,9.94,36.63,29.83,0,5.55-1.11,10.61-3.33,15.19-2.22,4.58-5.74,8.21-10.54,10.89l19.29,40.51h-25.95l-14.85-35.94ZM488.86,582.12h3.47c4.07,0,6.96-1.09,8.67-3.26,1.71-2.17,2.57-5.71,2.57-10.61,0-4.35-.95-7.56-2.84-9.64-1.9-2.08-4.83-3.12-8.81-3.12h-3.05v26.64Z"/><path class="cls-9" d="M306.02,298.98s129.08-13.88,125.44-209.28c0,0-128.06,22.47-125.44,209.28"/><path class="cls-8" d="M358.57,189.63c-1.66-8.41-3.42-15.37-6.68-17.24-2.21-1.27-3.95-.65-4.95,1.09-.91,1.59-.45,3.47.06,5.28l-5.32,1.38c-1.39-4.03-1.41-7.06.6-10.55,2.79-4.86,7.92-6.45,12.72-3.7,4.34,2.49,5.99,8.58,7.46,14.26.54-1.3,1.39-3.14,2-4.2l2.65-4.63,5.57,3.2-10.01,17.45-4.1-2.35Z"/><path class="cls-8" d="M362.69,163.81c-7.51-6.12-8.62-12.45-4.75-17.19,3.87-4.74,10.33-4.9,17.8,1.19,7.51,6.12,8.83,12.62,4.96,17.36-3.87,4.74-10.5,4.76-18.01-1.36ZM371.26,153.31c-5.81-4.74-7.65-4.32-8.76-2.96s-1.15,3.24,4.67,7.98,7.86,4.49,8.96,3.13c1.1-1.36.94-3.41-4.87-8.15Z"/><path class="cls-8" d="M384.81,152.12c1.26-8.48,1.92-15.64-.52-18.48-1.66-1.93-3.5-1.94-5.03-.63-1.39,1.2-1.59,3.12-1.71,4.99l-5.48-.48c.04-4.26,1.04-7.12,4.09-9.74,4.25-3.64,9.62-3.42,13.22.78,3.25,3.8,2.77,10.09,2.25,15.94.95-1.05,2.36-2.49,3.29-3.29l4.05-3.47,4.18,4.88-15.27,13.09-3.08-3.59Z"/><path class="cls-8" d="M402.44,138.76l.48-5.83c2.2.49,4.44.53,6.19-.47,2.27-1.31,2.98-3.06,1.74-5.22-1.2-2.09-3.19-2.39-5.08-1.3-1.29.74-1.76,1.32-2.67,3.08l-3.87-.24-6.65-12.96,14.25-8.2,3.21,5.57-8.64,4.97,1.75,3.73c.66-.79,1.26-1.24,2.05-1.69,4.17-2.4,9.11-2.05,12.1,3.13,3.16,5.49.78,11.08-4.11,13.9-3.94,2.27-7.59,2.41-10.72,1.53Z"/></g></svg>