<?xml version="1.0" encoding="UTF-8"?>
<svg id="Layer_1" xmlns="http://www.w3.org/2000/svg" baseProfile="tiny" version="1.2" viewBox="0 0 531.5 826.4">
  <!-- Generator: Adobe Illustrator 29.8.3, SVG Export Plug-In . SVG Version: 2.1.1 Build 3)  -->
  <path d="M413.2,255.3h0S185.8,28,185.8,28c-37.3-37.3-97.8-37.3-135.1,0l-22.8,22.8c-37.3,37.3-37.3,97.8,0,135.1l212.9,212.9c8,8,8,20.9,0,28.9L28,640.6c-37.3,37.3-37.3,97.8,0,135.1l22.8,22.8c37.3,37.3,97.8,37.3,135.1,0l227.4-227.4h0s90.3-90.3,90.3-90.3c37.3-37.3,37.3-97.8,0-135.1l-90.3-90.3Z" fill="#231f20"/>
</svg>