<?xml version="1.0" encoding="UTF-8"?>
<svg id="Layer_1" xmlns="http://www.w3.org/2000/svg" version="1.1" viewBox="0 0 24 24">
  <!-- Generator: Adobe Illustrator 29.8.1, SVG Export Plug-In . SVG Version: 2.1.1 Build 2)  -->
  <defs>
    <style>
      .st0 {
        fill: #e3e3e3;
      }
    </style>
  </defs>
  <path class="st0" d="M5,19h1.4l9.8-9.8-1.4-1.4-9.8,9.8v1.4ZM3,21v-4.3L16.2,3.6c.2-.2.4-.3.7-.4s.5-.2.8-.2.5,0,.8.2.5.3.7.5l1.4,1.4c.2.2.3.4.4.7s.1.5.1.8,0,.5-.1.8-.2.5-.4.7l-13.2,13.2H3ZM19,6.4l-1.4-1.4,1.4,1.4ZM15.5,8.5l-.7-.7,1.4,1.4-.7-.7Z"/>
</svg>