<?xml version="1.0" encoding="UTF-8"?><svg xmlns="http://www.w3.org/2000/svg" viewBox="0 0 184.25 164.93"><defs><style>.cls-1{fill:#333;}.cls-1,.cls-2,.cls-3{stroke-width:0px;}.cls-2{fill:#96bf3d;}.cls-3{fill:#ee3124;}</style></defs><g id="beeldmerk"><rect class="cls-2" x="8.25" y="8.09" width="28.35" height="113.39"/><rect class="cls-2" x="43.68" y="8.09" width="28.35" height="113.39"/><rect class="cls-2" x="79.11" y="8.09" width="28.35" height="113.39"/><polygon class="cls-2" points="135.8 57.72 178.32 57.72 178.32 43.54 121.63 43.54 121.63 100.24 135.8 100.24 135.8 57.72"/><polygon class="cls-2" points="164.15 107.3 121.63 107.3 121.63 121.47 178.32 121.47 178.32 64.78 164.15 64.78 164.15 107.3"/><rect class="cls-3" x="7.09" y="7.09" width="28.35" height="113.39"/><rect class="cls-3" x="42.52" y="7.09" width="28.35" height="113.39"/><rect class="cls-3" x="77.95" y="7.09" width="28.35" height="113.39"/><polygon class="cls-3" points="134.65 56.72 177.17 56.72 177.17 42.54 120.47 42.54 120.47 99.24 134.65 99.24 134.65 56.72"/><polygon class="cls-3" points="162.99 106.3 120.47 106.3 120.47 120.47 177.17 120.47 177.17 63.78 162.99 63.78 162.99 106.3"/></g><g id="naam_titel"><path class="cls-1" d="M7.05,140.63v-13.46h2.74l5.01,7.33h-1.19l4.99-7.33h2.74v13.46h-3.74v-7.26l.55.15-2.74,3.93h-2.42l-2.72-3.93.53-.15v7.26h-3.74Z"/><path class="cls-1" d="M23.57,140.63v-13.46h3.78v13.46h-3.78Z"/><path class="cls-1" d="M29.58,140.63v-13.46h3.78v13.46h-3.78ZM37.74,140.63l-4.71-7.01,4.48-6.45h4.55l-5.18,6.99v-1.21l5.39,7.67h-4.54Z"/><path class="cls-1" d="M43.16,140.63v-13.46h3.78v13.46h-3.78ZM46.23,130.31v-3.14h7.11v3.14h-7.11ZM46.23,135.3v-3.06h6.52v3.06h-6.52ZM46.23,140.63v-3.14h7.22v3.14h-7.22Z"/><path class="cls-1" d="M65.3,140.89c-1.06,0-2.03-.18-2.92-.53-.89-.35-1.66-.84-2.32-1.47-.66-.63-1.17-1.37-1.54-2.23-.37-.86-.55-1.78-.55-2.78s.18-1.93.54-2.78c.36-.84.87-1.58,1.52-2.21.66-.63,1.43-1.12,2.32-1.46s1.86-.52,2.92-.52,2.03.17,2.92.52c.89.35,1.66.83,2.31,1.46.66.63,1.16,1.37,1.52,2.22.36.85.54,1.78.54,2.79s-.18,1.92-.54,2.77c-.36.85-.87,1.59-1.52,2.23-.66.64-1.42,1.13-2.31,1.47-.88.35-1.85.52-2.89.52ZM65.26,137.57c.71,0,1.32-.15,1.83-.45.52-.3.91-.73,1.19-1.29.28-.55.42-1.2.42-1.95,0-.55-.08-1.06-.24-1.5-.16-.45-.39-.83-.69-1.15-.3-.32-.66-.57-1.09-.74-.42-.17-.9-.25-1.43-.25-.71,0-1.32.15-1.83.44-.52.3-.91.72-1.19,1.27-.28.55-.42,1.19-.42,1.94,0,.57.08,1.08.24,1.53.16.45.39.84.69,1.16.3.32.66.57,1.09.74.42.17.9.26,1.43.26Z"/><path class="cls-1" d="M73.29,130.38v-3.21h11.85v3.21h-11.85ZM77.32,140.63v-13.46h3.78v13.46h-3.78Z"/><path class="cls-1" d="M85.75,130.38v-3.21h11.85v3.21h-11.85ZM89.77,140.63v-13.46h3.78v13.46h-3.78Z"/><path class="cls-1" d="M99.01,140.63v-13.46h3.78v13.46h-3.78ZM102.08,130.31v-3.14h7.11v3.14h-7.11ZM102.08,135.3v-3.06h6.52v3.06h-6.52ZM102.08,140.63v-3.14h7.22v3.14h-7.22Z"/><path class="cls-1" d="M111.09,140.63v-13.46h2.65l1.13,2.83v10.62h-3.78ZM120.35,140.63l-7.81-9.81,1.19-3.65,7.81,9.81-1.19,3.65ZM120.35,140.63l-.94-2.99v-10.47h3.78v13.46h-2.83Z"/><path class="cls-1" d="M125.42,140.63v-13.46h3.78v13.46h-3.78ZM127.48,135.34v-3.14h7.54v3.14h-7.54ZM133.54,140.63v-13.46h3.78v13.46h-3.78Z"/><path class="cls-1" d="M146.21,140.89c-1.06,0-2.03-.18-2.92-.53-.89-.35-1.66-.84-2.32-1.47-.66-.63-1.18-1.37-1.54-2.23-.37-.86-.55-1.78-.55-2.78s.18-1.93.54-2.78c.36-.84.87-1.58,1.52-2.21.65-.63,1.43-1.12,2.31-1.46.89-.35,1.86-.52,2.92-.52s2.03.17,2.92.52c.89.35,1.66.83,2.32,1.46.65.63,1.16,1.37,1.52,2.22.36.85.54,1.78.54,2.79s-.18,1.92-.54,2.77c-.36.85-.87,1.59-1.52,2.23-.66.64-1.42,1.13-2.31,1.47-.88.35-1.85.52-2.89.52ZM146.17,137.57c.71,0,1.32-.15,1.83-.45.52-.3.91-.73,1.19-1.29.28-.55.42-1.2.42-1.95,0-.55-.08-1.06-.24-1.5s-.39-.83-.69-1.15c-.3-.32-.67-.57-1.09-.74-.42-.17-.9-.25-1.43-.25-.71,0-1.32.15-1.83.44-.52.3-.91.72-1.19,1.27s-.42,1.19-.42,1.94c0,.57.08,1.08.24,1.53.16.45.39.84.69,1.16.3.32.66.57,1.09.74.42.17.9.26,1.43.26Z"/><path class="cls-1" d="M155.01,140.63v-13.46h3.78v13.46h-3.78ZM158.08,130.31v-3.14h6.9v3.14h-6.9ZM158.08,135.85v-3.14h6.62v3.14h-6.62Z"/><path class="cls-1" d="M166.62,140.63v-13.46h3.78v13.46h-3.78ZM169.68,130.31v-3.14h6.9v3.14h-6.9ZM169.68,135.85v-3.14h6.62v3.14h-6.62Z"/><path class="cls-1" d="M7.12,157.85v-9.55h.34l4.28,7.01h-.31l4.28-7.01h.34v9.55h-.45v-8.79l.11.03-3.96,6.49h-.34l-3.96-6.49.11-.03v8.79h-.45Z"/><path class="cls-1" d="M22.12,157.99c-.65,0-1.23-.15-1.75-.44-.51-.29-.92-.69-1.22-1.2s-.45-1.08-.45-1.72v-6.33h.45v6.25c0,.61.13,1.14.39,1.6s.61.8,1.06,1.05c.45.25.95.37,1.5.37s1.07-.12,1.51-.37.79-.59,1.05-1.05c.26-.45.39-.98.39-1.58v-6.26h.45v6.34c0,.64-.15,1.21-.45,1.72s-.7.9-1.22,1.19c-.51.29-1.09.44-1.74.44Z"/><path class="cls-1" d="M28.2,157.85v-9.55h.45v9.55h-.45ZM28.45,157.85v-.41h5.54v.41h-5.54Z"/><path class="cls-1" d="M33.85,148.71v-.41h7.71v.41h-7.71ZM37.48,157.85v-9.28h.45v9.28h-.45Z"/><path class="cls-1" d="M43.66,157.85v-9.55h.45v9.55h-.45Z"/><path class="cls-1" d="M46.91,157.85v-9.55h.34l4.28,7.01h-.31l4.28-7.01h.34v9.55h-.45v-8.79l.11.03-3.96,6.49h-.34l-3.96-6.49.11-.03v8.79h-.45Z"/><path class="cls-1" d="M58.63,157.85v-9.55h.45v9.55h-.45ZM58.89,148.71v-.41h5.81v.41h-5.81ZM58.89,153.14v-.4h5.47v.4h-5.47ZM58.89,157.85v-.41h5.89v.41h-5.89Z"/><path class="cls-1" d="M66.94,157.85v-9.55h.45v9.55h-.45ZM67.1,157.85v-.42h3.12c.85,0,1.6-.19,2.25-.57s1.17-.89,1.53-1.55c.37-.66.55-1.41.55-2.25s-.18-1.58-.55-2.24c-.37-.66-.88-1.17-1.53-1.54-.65-.37-1.41-.56-2.25-.56h-3.07v-.42h3.07c.71,0,1.35.12,1.94.35s1.09.56,1.53.99c.43.42.77.93,1,1.51s.35,1.22.35,1.92-.12,1.32-.35,1.91-.57,1.09-1,1.52-.94.76-1.52,1-1.22.35-1.92.35h-3.15Z"/><path class="cls-1" d="M77.37,157.85v-9.55h.45v9.55h-.45Z"/><path class="cls-1" d="M79.93,157.85l3.89-9.55h.42l3.86,9.55h-.49l-3.69-9.16h.21l-3.72,9.16h-.48ZM81.55,154.7v-.41h4.93v.41h-4.93Z"/><path class="cls-1" d="M96.11,157.85l-3.74-9.55h.49l3.57,9.14h-.21l3.6-9.14h.48l-3.77,9.55h-.42Z"/><path class="cls-1" d="M105.96,157.99c-.67,0-1.29-.12-1.86-.38-.57-.25-1.07-.6-1.49-1.05s-.75-.98-.99-1.58c-.24-.6-.35-1.24-.35-1.93s.12-1.34.35-1.94c.23-.59.56-1.11.98-1.55.42-.44.92-.79,1.48-1.04.56-.25,1.18-.38,1.85-.38s1.29.12,1.86.38c.57.25,1.06.6,1.48,1.04.42.44.75.96.98,1.56.24.6.35,1.25.35,1.94s-.12,1.33-.35,1.93c-.23.6-.56,1.12-.98,1.57s-.92.8-1.48,1.04c-.56.25-1.18.38-1.84.38ZM105.93,157.55c.8,0,1.52-.2,2.15-.59.63-.4,1.13-.93,1.5-1.61.37-.68.55-1.44.55-2.29,0-.63-.11-1.22-.32-1.76-.21-.54-.51-1.02-.88-1.42-.38-.4-.82-.72-1.33-.95-.51-.23-1.06-.34-1.67-.34-.8,0-1.52.2-2.15.59-.63.39-1.13.92-1.49,1.6-.36.67-.54,1.43-.54,2.28,0,.63.11,1.22.32,1.77.21.55.51,1.02.88,1.43.38.41.82.73,1.33.95.51.23,1.06.34,1.65.34Z"/><path class="cls-1" d="M112.94,157.85v-9.55h.45v9.55h-.45ZM113.16,153.35v-.41h3.14c.78,0,1.38-.2,1.78-.59.41-.39.61-.9.61-1.53s-.2-1.15-.61-1.54c-.4-.39-1-.58-1.78-.58h-3.14v-.41h3.07c.63,0,1.16.11,1.6.32.43.21.76.51.99.89s.34.82.34,1.32-.11.94-.34,1.32c-.23.38-.56.68-.99.89-.43.21-.97.32-1.6.32h-3.07ZM119.27,157.85l-3.83-4.69.49-.08,3.94,4.78h-.61Z"/><path class="cls-1" d="M121.74,157.85v-9.55h.34l4.28,7.01h-.31l4.28-7.01h.34v9.55h-.45v-8.79l.11.03-3.96,6.49h-.34l-3.96-6.49.11-.03v8.79h-.45Z"/><path class="cls-1" d="M137.8,157.97c-.7,0-1.34-.12-1.93-.37s-1.1-.59-1.53-1.02-.76-.96-1-1.55c-.24-.6-.35-1.25-.35-1.96s.12-1.36.36-1.96c.24-.6.58-1.12,1.01-1.57.43-.45.94-.79,1.53-1.04s1.22-.37,1.92-.37c.78,0,1.49.16,2.13.47.64.32,1.16.77,1.55,1.35l-.34.34c-.38-.56-.85-.98-1.42-1.28-.57-.3-1.21-.45-1.93-.45-.84,0-1.58.2-2.24.59-.66.39-1.17.92-1.54,1.6-.37.68-.56,1.45-.56,2.32s.18,1.62.55,2.3c.37.67.87,1.2,1.52,1.58.64.38,1.39.57,2.23.57.79,0,1.48-.17,2.06-.51s1.04-.83,1.36-1.46.49-1.39.5-2.27l.17.14h-4.27v-.41h4.56v.08c0,1.02-.18,1.89-.54,2.61-.36.73-.87,1.28-1.52,1.67-.65.39-1.42.58-2.31.58Z"/><path class="cls-1" d="M144.4,157.85v-9.55h.45v9.55h-.45ZM144.66,148.71v-.41h5.81v.41h-5.81ZM144.66,153.14v-.4h5.47v.4h-5.47ZM144.66,157.85v-.41h5.89v.41h-5.89Z"/><path class="cls-1" d="M155.57,157.85l-3.75-9.55h.5l3.58,9.14h-.21l3.6-9.14h.48l-3.77,9.55h-.42Z"/><path class="cls-1" d="M161.87,157.85v-9.55h.45v9.55h-.45ZM162.12,148.71v-.41h5.81v.41h-5.81ZM162.12,153.14v-.4h5.47v.4h-5.47ZM162.12,157.85v-.41h5.89v.41h-5.89Z"/><path class="cls-1" d="M170.17,157.85v-9.55h.45v9.55h-.45ZM170.4,153.35v-.41h3.14c.78,0,1.38-.2,1.78-.59s.61-.9.61-1.53-.2-1.15-.61-1.54c-.41-.39-1-.58-1.78-.58h-3.14v-.41h3.07c.63,0,1.16.11,1.6.32.43.21.76.51.99.89.23.38.34.82.34,1.32s-.11.94-.34,1.32c-.23.38-.56.68-.99.89-.43.21-.97.32-1.6.32h-3.07ZM176.51,157.85l-3.83-4.69.5-.08,3.94,4.78h-.61Z"/></g></svg>