<?xml version="1.0" encoding="UTF-8"?>
<svg id="Layer_1" xmlns="http://www.w3.org/2000/svg" baseProfile="tiny" version="1.2" viewBox="0 0 531.5 826.4">
  <!-- Generator: Adobe Illustrator 29.8.3, SVG Export Plug-In . SVG Version: 2.1.1 Build 3)  -->
  <path d="M118.3,571.1h0s227.4,227.4,227.4,227.4c37.3,37.3,97.8,37.3,135.1,0l22.8-22.8c37.3-37.3,37.3-97.8,0-135.1l-212.9-212.9c-8-8-8-20.9,0-28.9l212.9-212.9c37.3-37.3,37.3-97.8,0-135.1l-22.8-22.8c-37.3-37.3-97.8-37.3-135.1,0L118.3,255.3h0s-90.3,90.3-90.3,90.3c-37.3,37.3-37.3,97.8,0,135.1l90.3,90.3Z" fill="#231f20"/>
</svg>